<svg width="235" height="236" viewBox="0 0 235 236" fill="none" xmlns="http://www.w3.org/2000/svg">
<path d="M1 13C1 6.37259 6.37258 1 13 1H222C228.627 1 234 6.37258 234 13V222.993C234 229.621 228.627 234.993 222 234.993H13C6.37259 234.993 1 229.621 1 222.993V13Z" fill="black"/>
<path d="M222 0.5C228.904 0.500003 234.5 6.09644 234.5 13V222.993C234.5 229.897 228.904 235.493 222 235.493H13C6.09644 235.493 0.5 229.897 0.5 222.993V13C0.500002 6.09644 6.09644 0.5 13 0.5H222Z" stroke="#D7D7D7" stroke-opacity="0.3"/>
<path d="M25 22.3334V31.6667M20.3333 27H29.6667" stroke="white" stroke-width="1.5" stroke-linecap="round" stroke-linejoin="round"/>
<path d="M39.3418 22.9082V21.8145H46.9844V22.9082H43.7852V32H42.5547V22.9082H39.3418ZM49.2402 27.4062V32H48.0781V21.8145H49.2402V25.5605H49.3496C49.5273 25.1641 49.7939 24.8496 50.1494 24.6172C50.5094 24.3802 50.9902 24.2617 51.5918 24.2617C52.1113 24.2617 52.5671 24.3665 52.959 24.5762C53.3509 24.7812 53.6562 25.098 53.875 25.5264C54.0938 25.9502 54.2031 26.4902 54.2031 27.1465V32H53.0273V27.2285C53.0273 26.6178 52.8701 26.1462 52.5557 25.8135C52.2412 25.4808 51.806 25.3145 51.25 25.3145C50.8626 25.3145 50.5186 25.3965 50.2178 25.5605C49.917 25.7246 49.6777 25.9616 49.5 26.2715C49.3268 26.5814 49.2402 26.9596 49.2402 27.4062ZM58.9062 32.1641C58.1725 32.1641 57.5368 32 56.999 31.6719C56.4658 31.3438 56.0557 30.8857 55.7686 30.2979C55.4814 29.7054 55.3379 29.0195 55.3379 28.2402C55.3379 27.4564 55.4792 26.766 55.7617 26.1689C56.0443 25.5719 56.4408 25.1048 56.9512 24.7676C57.4661 24.4303 58.0677 24.2617 58.7559 24.2617C59.1523 24.2617 59.5465 24.3278 59.9385 24.46C60.3304 24.5921 60.6859 24.8063 61.0049 25.1025C61.3285 25.3988 61.5859 25.7907 61.7773 26.2783C61.9688 26.766 62.0645 27.3652 62.0645 28.0762V28.582H56.1719V27.5703H61.4287L60.8887 27.9531C60.8887 27.4427 60.8089 26.9893 60.6494 26.5928C60.4899 26.1963 60.2507 25.8841 59.9316 25.6562C59.6172 25.4284 59.2253 25.3145 58.7559 25.3145C58.2865 25.3145 57.8831 25.4307 57.5459 25.6631C57.2132 25.891 56.958 26.1895 56.7803 26.5586C56.6025 26.9277 56.5137 27.3242 56.5137 27.748V28.418C56.5137 28.9967 56.6139 29.4867 56.8145 29.8877C57.015 30.2887 57.2952 30.5941 57.6553 30.8037C58.0153 31.0088 58.4323 31.1113 58.9062 31.1113C59.2116 31.1113 59.4896 31.068 59.7402 30.9814C59.9909 30.8903 60.2074 30.7559 60.3896 30.5781C60.5719 30.3958 60.7109 30.1725 60.8066 29.9082L61.9414 30.2363C61.8229 30.6191 61.6224 30.9564 61.3398 31.248C61.0618 31.5352 60.7155 31.7607 60.3008 31.9248C59.8861 32.0843 59.4212 32.1641 58.9062 32.1641ZM69.9395 32.1641C69.4518 32.1641 69.0599 32.082 68.7637 31.918C68.4674 31.7493 68.2396 31.5602 68.0801 31.3506C67.9206 31.1364 67.7975 30.9609 67.7109 30.8242H67.5742V32H66.4531V21.8145H67.6152V25.5742H67.7109C67.7975 25.4421 67.9183 25.2734 68.0732 25.0684C68.2282 24.8587 68.4515 24.6719 68.7432 24.5078C69.0348 24.3438 69.429 24.2617 69.9258 24.2617C70.5684 24.2617 71.1335 24.4235 71.6211 24.7471C72.1087 25.0661 72.4893 25.5218 72.7627 26.1143C73.0407 26.7021 73.1797 27.3971 73.1797 28.1992C73.1797 29.0059 73.043 29.7077 72.7695 30.3047C72.4961 30.8971 72.1156 31.3551 71.6279 31.6787C71.1403 32.0023 70.5775 32.1641 69.9395 32.1641ZM69.7891 31.1113C70.2767 31.1113 70.6846 30.9814 71.0127 30.7217C71.3408 30.4574 71.5869 30.1042 71.751 29.6621C71.9196 29.2201 72.0039 28.7279 72.0039 28.1855C72.0039 27.6478 71.9219 27.1624 71.7578 26.7295C71.5938 26.2965 71.3477 25.9525 71.0195 25.6973C70.696 25.4421 70.2858 25.3145 69.7891 25.3145C69.3105 25.3145 68.9095 25.4352 68.5859 25.6768C68.2624 25.9137 68.0163 26.2487 67.8477 26.6816C67.6836 27.11 67.6016 27.6113 67.6016 28.1855C67.6016 28.7598 67.6859 29.2679 67.8545 29.71C68.0231 30.1475 68.2692 30.4915 68.5928 30.7422C68.9209 30.9883 69.3197 31.1113 69.7891 31.1113ZM76.5566 32.1777C76.0736 32.1777 75.6338 32.0866 75.2373 31.9043C74.8408 31.7174 74.5264 31.4486 74.2939 31.0977C74.0615 30.7467 73.9453 30.3229 73.9453 29.8262C73.9453 29.3887 74.0319 29.0355 74.2051 28.7666C74.3783 28.4932 74.6084 28.279 74.8955 28.124C75.1872 27.9645 75.5062 27.846 75.8525 27.7686C76.2035 27.6911 76.5566 27.6296 76.9121 27.584C77.377 27.5247 77.7529 27.4792 78.04 27.4473C78.3317 27.4154 78.5436 27.3607 78.6758 27.2832C78.8125 27.2057 78.8809 27.0736 78.8809 26.8867V26.8457C78.8809 26.3581 78.7464 25.9798 78.4775 25.7109C78.2132 25.4375 77.8099 25.3008 77.2676 25.3008C76.7116 25.3008 76.2741 25.4238 75.9551 25.6699C75.6361 25.9115 75.4128 26.1712 75.2852 26.4492L74.1641 26.0527C74.3646 25.5879 74.6312 25.2256 74.9639 24.9658C75.3011 24.7061 75.6657 24.5238 76.0576 24.4189C76.4541 24.3141 76.8438 24.2617 77.2266 24.2617C77.4727 24.2617 77.7552 24.2913 78.0742 24.3506C78.3932 24.4053 78.7031 24.5238 79.0039 24.7061C79.3092 24.8838 79.5599 25.1549 79.7559 25.5195C79.9564 25.8796 80.0566 26.3626 80.0566 26.9688V32H78.8809V30.9609H78.8262C78.7487 31.125 78.6165 31.3027 78.4297 31.4941C78.2428 31.681 77.9945 31.8428 77.6846 31.9795C77.3792 32.1117 77.0033 32.1777 76.5566 32.1777ZM76.7344 31.125C77.1992 31.125 77.5911 31.0339 77.9102 30.8516C78.2292 30.6693 78.4707 30.4346 78.6348 30.1475C78.7988 29.8558 78.8809 29.5527 78.8809 29.2383V28.1582C78.8307 28.2174 78.7214 28.2721 78.5527 28.3223C78.3887 28.3678 78.1973 28.4089 77.9785 28.4453C77.7643 28.4818 77.5547 28.5137 77.3496 28.541C77.1445 28.5638 76.9805 28.582 76.8574 28.5957C76.5521 28.6367 76.2673 28.7028 76.0029 28.7939C75.7386 28.8805 75.5244 29.0104 75.3604 29.1836C75.2008 29.3568 75.1211 29.5938 75.1211 29.8945C75.1211 30.3001 75.2715 30.6077 75.5723 30.8174C75.8776 31.0225 76.265 31.125 76.7344 31.125ZM81.5605 32V24.3574H82.6816V25.5195H82.7637C82.9049 25.1413 83.1579 24.8359 83.5225 24.6035C83.8916 24.3665 84.304 24.248 84.7598 24.248C84.8464 24.248 84.9535 24.2503 85.0811 24.2549C85.2087 24.2549 85.3066 24.2572 85.375 24.2617V25.4512C85.334 25.4421 85.2428 25.4284 85.1016 25.4102C84.9603 25.3919 84.8099 25.3828 84.6504 25.3828C84.2812 25.3828 83.9508 25.4603 83.6592 25.6152C83.3675 25.7702 83.1374 25.9821 82.9688 26.251C82.8047 26.5199 82.7227 26.8275 82.7227 27.1738V32H81.5605ZM89.0801 32.1641C88.3464 32.1641 87.7106 32 87.1729 31.6719C86.6396 31.3438 86.2295 30.8857 85.9424 30.2979C85.6553 29.7054 85.5117 29.0195 85.5117 28.2402C85.5117 27.4564 85.653 26.766 85.9355 26.1689C86.2181 25.5719 86.6146 25.1048 87.125 24.7676C87.64 24.4303 88.2415 24.2617 88.9297 24.2617C89.3262 24.2617 89.7204 24.3278 90.1123 24.46C90.5042 24.5921 90.8597 24.8063 91.1787 25.1025C91.5023 25.3988 91.7598 25.7907 91.9512 26.2783C92.1426 26.766 92.2383 27.3652 92.2383 28.0762V28.582H86.3457V27.5703H91.6025L91.0625 27.9531C91.0625 27.4427 90.9827 26.9893 90.8232 26.5928C90.6637 26.1963 90.4245 25.8841 90.1055 25.6562C89.791 25.4284 89.3991 25.3145 88.9297 25.3145C88.4603 25.3145 88.057 25.4307 87.7197 25.6631C87.387 25.891 87.1318 26.1895 86.9541 26.5586C86.7764 26.9277 86.6875 27.3242 86.6875 27.748V28.418C86.6875 28.9967 86.7878 29.4867 86.9883 29.8877C87.1888 30.2887 87.4691 30.5941 87.8291 30.8037C88.1891 31.0088 88.6061 31.1113 89.0801 31.1113C89.3854 31.1113 89.6634 31.068 89.9141 30.9814C90.1647 30.8903 90.3812 30.7559 90.5635 30.5781C90.7458 30.3958 90.8848 30.1725 90.9805 29.9082L92.1152 30.2363C91.9967 30.6191 91.7962 30.9564 91.5137 31.248C91.2357 31.5352 90.8893 31.7607 90.4746 31.9248C90.0599 32.0843 89.5951 32.1641 89.0801 32.1641ZM96.627 32V24.3574H97.748V25.5605H97.8574C98.0169 25.1504 98.2744 24.8314 98.6299 24.6035C98.9854 24.3757 99.4115 24.2617 99.9082 24.2617C100.41 24.2617 100.826 24.3757 101.159 24.6035C101.496 24.8314 101.758 25.1504 101.945 25.5605H102.027C102.228 25.1641 102.522 24.8496 102.909 24.6172C103.301 24.3802 103.768 24.2617 104.311 24.2617C104.994 24.2617 105.555 24.4759 105.992 24.9043C106.43 25.3281 106.648 25.9889 106.648 26.8867V32H105.473V26.8867C105.473 26.3216 105.318 25.9183 105.008 25.6768C104.698 25.4352 104.333 25.3145 103.914 25.3145C103.381 25.3145 102.966 25.4785 102.67 25.8066C102.378 26.1302 102.232 26.5358 102.232 27.0234V32H101.029V26.7637C101.029 26.3307 100.89 25.9821 100.612 25.7178C100.334 25.4489 99.972 25.3145 99.5254 25.3145C99.2201 25.3145 98.9352 25.3965 98.6709 25.5605C98.4066 25.7246 98.1924 25.9502 98.0283 26.2373C97.8688 26.5244 97.7891 26.8548 97.7891 27.2285V32H96.627ZM108.152 32V24.3574H109.314V32H108.152ZM108.74 23.0859C108.512 23.0859 108.316 23.0085 108.152 22.8535C107.988 22.6986 107.906 22.5117 107.906 22.293C107.906 22.0742 107.988 21.8874 108.152 21.7324C108.316 21.5775 108.512 21.5 108.74 21.5C108.968 21.5 109.164 21.5775 109.328 21.7324C109.492 21.8874 109.574 22.0742 109.574 22.293C109.574 22.5117 109.492 22.6986 109.328 22.8535C109.164 23.0085 108.968 23.0859 108.74 23.0859ZM111.98 27.4062V32H110.818V24.3574H111.939V25.5605H112.049C112.227 25.1686 112.498 24.8542 112.862 24.6172C113.227 24.3802 113.699 24.2617 114.277 24.2617C114.792 24.2617 115.243 24.3665 115.631 24.5762C116.018 24.7858 116.319 25.1048 116.533 25.5332C116.752 25.957 116.861 26.4948 116.861 27.1465V32H115.699V27.2285C115.699 26.6315 115.542 26.1644 115.228 25.8271C114.913 25.4854 114.485 25.3145 113.942 25.3145C113.569 25.3145 113.234 25.3965 112.938 25.5605C112.641 25.7246 112.407 25.9616 112.233 26.2715C112.065 26.5814 111.98 26.9596 111.98 27.4062ZM118.365 32V24.3574H119.527V32H118.365ZM118.953 23.0859C118.725 23.0859 118.529 23.0085 118.365 22.8535C118.201 22.6986 118.119 22.5117 118.119 22.293C118.119 22.0742 118.201 21.8874 118.365 21.7324C118.529 21.5775 118.725 21.5 118.953 21.5C119.181 21.5 119.377 21.5775 119.541 21.7324C119.705 21.8874 119.787 22.0742 119.787 22.293C119.787 22.5117 119.705 22.6986 119.541 22.8535C119.377 23.0085 119.181 23.0859 118.953 23.0859ZM121.031 32V24.3574H122.152V25.5605H122.262C122.421 25.1504 122.679 24.8314 123.034 24.6035C123.39 24.3757 123.816 24.2617 124.312 24.2617C124.814 24.2617 125.231 24.3757 125.563 24.6035C125.901 24.8314 126.163 25.1504 126.35 25.5605H126.432C126.632 25.1641 126.926 24.8496 127.313 24.6172C127.705 24.3802 128.173 24.2617 128.715 24.2617C129.398 24.2617 129.959 24.4759 130.396 24.9043C130.834 25.3281 131.053 25.9889 131.053 26.8867V32H129.877V26.8867C129.877 26.3216 129.722 25.9183 129.412 25.6768C129.102 25.4352 128.738 25.3145 128.318 25.3145C127.785 25.3145 127.37 25.4785 127.074 25.8066C126.783 26.1302 126.637 26.5358 126.637 27.0234V32H125.434V26.7637C125.434 26.3307 125.295 25.9821 125.017 25.7178C124.739 25.4489 124.376 25.3145 123.93 25.3145C123.624 25.3145 123.34 25.3965 123.075 25.5605C122.811 25.7246 122.597 25.9502 122.433 26.2373C122.273 26.5244 122.193 26.8548 122.193 27.2285V32H121.031ZM137.369 28.8828V24.3574H138.531V32H137.369V30.7012H137.287C137.105 31.0885 136.825 31.4189 136.446 31.6924C136.073 31.9658 135.596 32.1003 135.018 32.0957C134.539 32.0957 134.115 31.9932 133.746 31.7881C133.377 31.5785 133.085 31.2594 132.871 30.8311C132.661 30.4027 132.557 29.8626 132.557 29.2109V24.3574H133.719V29.1426C133.719 29.694 133.876 30.1361 134.19 30.4688C134.509 30.8014 134.913 30.9655 135.4 30.9609C135.692 30.9609 135.988 30.888 136.289 30.7422C136.594 30.5918 136.85 30.3639 137.055 30.0586C137.264 29.7487 137.369 29.3568 137.369 28.8828ZM140.035 32V24.3574H141.156V25.5605H141.266C141.425 25.1504 141.683 24.8314 142.038 24.6035C142.394 24.3757 142.82 24.2617 143.316 24.2617C143.818 24.2617 144.235 24.3757 144.567 24.6035C144.905 24.8314 145.167 25.1504 145.354 25.5605H145.436C145.636 25.1641 145.93 24.8496 146.317 24.6172C146.709 24.3802 147.176 24.2617 147.719 24.2617C148.402 24.2617 148.963 24.4759 149.4 24.9043C149.838 25.3281 150.057 25.9889 150.057 26.8867V32H148.881V26.8867C148.881 26.3216 148.726 25.9183 148.416 25.6768C148.106 25.4352 147.742 25.3145 147.322 25.3145C146.789 25.3145 146.374 25.4785 146.078 25.8066C145.786 26.1302 145.641 26.5358 145.641 27.0234V32H144.438V26.7637C144.438 26.3307 144.299 25.9821 144.021 25.7178C143.743 25.4489 143.38 25.3145 142.934 25.3145C142.628 25.3145 142.343 25.3965 142.079 25.5605C141.815 25.7246 141.601 25.9502 141.437 26.2373C141.277 26.5244 141.197 26.8548 141.197 27.2285V32H140.035Z" fill="white"/>
<rect x="194" y="19" width="27" height="16" rx="8" fill="#CA9FFF"/>
<rect x="206" y="20" width="14" height="14" rx="7" fill="white"/>
<line opacity="0.3" x1="16.9989" y1="43.8311" x2="217.994" y2="42.5" stroke="#D9D9D9"/>
<path d="M25 55.6644V64.9978M20.3333 60.3311H29.6667" stroke="white" stroke-width="1.5" stroke-linecap="round" stroke-linejoin="round"/>
<path d="M39.3418 56.2393V55.1455H46.9844V56.2393H43.7852V65.3311H42.5547V56.2393H39.3418ZM47.2852 65.3311V57.6885H48.4062V58.8506H48.4883C48.6296 58.4723 48.8825 58.167 49.2471 57.9346C49.6162 57.6976 50.0286 57.5791 50.4844 57.5791C50.571 57.5791 50.6781 57.5814 50.8057 57.5859C50.9333 57.5859 51.0312 57.5882 51.0996 57.5928V58.7822C51.0586 58.7731 50.9674 58.7594 50.8262 58.7412C50.6849 58.723 50.5345 58.7139 50.375 58.7139C50.0059 58.7139 49.6755 58.7913 49.3838 58.9463C49.0921 59.1012 48.862 59.3132 48.6934 59.582C48.5293 59.8509 48.4473 60.1585 48.4473 60.5049V65.3311H47.2852ZM54.0801 65.5088C53.597 65.5088 53.1572 65.4176 52.7607 65.2354C52.3643 65.0485 52.0498 64.7796 51.8174 64.4287C51.585 64.0778 51.4688 63.654 51.4688 63.1572C51.4688 62.7197 51.5553 62.3665 51.7285 62.0977C51.9017 61.8242 52.1318 61.61 52.4189 61.4551C52.7106 61.2956 53.0296 61.1771 53.376 61.0996C53.7269 61.0221 54.0801 60.9606 54.4355 60.915C54.9004 60.8558 55.2764 60.8102 55.5635 60.7783C55.8551 60.7464 56.0671 60.6917 56.1992 60.6143C56.3359 60.5368 56.4043 60.4046 56.4043 60.2178V60.1768C56.4043 59.6891 56.2699 59.3109 56.001 59.042C55.7367 58.7686 55.3333 58.6318 54.791 58.6318C54.235 58.6318 53.7975 58.7549 53.4785 59.001C53.1595 59.2425 52.9362 59.5023 52.8086 59.7803L51.6875 59.3838C51.888 58.9189 52.1546 58.5566 52.4873 58.2969C52.8245 58.0371 53.1891 57.8548 53.5811 57.75C53.9775 57.6452 54.3672 57.5928 54.75 57.5928C54.9961 57.5928 55.2786 57.6224 55.5977 57.6816C55.9167 57.7363 56.2266 57.8548 56.5273 58.0371C56.8327 58.2148 57.0833 58.486 57.2793 58.8506C57.4798 59.2106 57.5801 59.6937 57.5801 60.2998V65.3311H56.4043V64.292H56.3496C56.2721 64.4561 56.14 64.6338 55.9531 64.8252C55.7663 65.012 55.5179 65.1738 55.208 65.3105C54.9027 65.4427 54.5267 65.5088 54.0801 65.5088ZM54.2578 64.4561C54.7227 64.4561 55.1146 64.3649 55.4336 64.1826C55.7526 64.0003 55.9941 63.7656 56.1582 63.4785C56.3223 63.1868 56.4043 62.8838 56.4043 62.5693V61.4893C56.3542 61.5485 56.2448 61.6032 56.0762 61.6533C55.9121 61.6989 55.7207 61.7399 55.502 61.7764C55.2878 61.8128 55.0781 61.8447 54.873 61.8721C54.668 61.8949 54.5039 61.9131 54.3809 61.9268C54.0755 61.9678 53.7907 62.0339 53.5264 62.125C53.262 62.2116 53.0479 62.3415 52.8838 62.5146C52.7243 62.6878 52.6445 62.9248 52.6445 63.2256C52.6445 63.6312 52.7949 63.9388 53.0957 64.1484C53.401 64.3535 53.7884 64.4561 54.2578 64.4561ZM62.1738 65.4951C61.4629 65.4951 60.8477 65.3265 60.3281 64.9893C59.8132 64.6475 59.4144 64.1803 59.1318 63.5879C58.8538 62.9954 58.7148 62.3187 58.7148 61.5576C58.7148 60.7783 58.8584 60.0924 59.1455 59.5C59.4326 58.903 59.8337 58.4359 60.3486 58.0986C60.8682 57.7614 61.472 57.5928 62.1602 57.5928C62.6979 57.5928 63.181 57.693 63.6094 57.8936C64.0423 58.0895 64.3955 58.3675 64.6689 58.7275C64.9469 59.0876 65.1178 59.5068 65.1816 59.9854H64.0059C63.9466 59.7529 63.8395 59.5342 63.6846 59.3291C63.5296 59.124 63.3245 58.96 63.0693 58.8369C62.8187 58.7093 62.5202 58.6455 62.1738 58.6455C61.7181 58.6455 61.3193 58.764 60.9775 59.001C60.6357 59.238 60.3691 59.5729 60.1777 60.0059C59.9863 60.4342 59.8906 60.9378 59.8906 61.5166C59.8906 62.1045 59.984 62.6195 60.1709 63.0615C60.3577 63.499 60.6221 63.8385 60.9639 64.0801C61.3102 64.3216 61.7135 64.4424 62.1738 64.4424C62.6341 64.4424 63.0283 64.3239 63.3564 64.0869C63.6846 63.8454 63.901 63.5173 64.0059 63.1025H65.1816C65.1178 63.5537 64.9538 63.9593 64.6895 64.3193C64.4297 64.6794 64.0856 64.9665 63.6572 65.1807C63.2334 65.3903 62.7389 65.4951 62.1738 65.4951ZM67.3828 62.542L67.3555 61.0928H67.6016L70.9375 57.6885H72.3867L68.832 61.2979H68.7227L67.3828 62.542ZM66.2891 65.3311V55.1455H67.4512V65.3311H66.2891ZM71.1289 65.3311L68.1484 61.5576L68.9824 60.7373L72.6328 65.3311H71.1289ZM77.2812 68.1885C77.0807 68.193 76.903 68.1794 76.748 68.1475C76.5931 68.1156 76.4837 68.0837 76.4199 68.0518L76.7207 67.0264L76.8369 67.0537C77.2288 67.1449 77.557 67.1243 77.8213 66.9922C78.0902 66.8646 78.3249 66.5251 78.5254 65.9736L78.7441 65.3721L75.9277 57.6885H77.1992L79.3047 63.7861H79.3867L81.4922 57.6885H82.7637L79.5234 66.4385C79.3776 66.835 79.1976 67.1631 78.9834 67.4229C78.7692 67.6826 78.5208 67.874 78.2383 67.9971C77.9557 68.1247 77.6367 68.1885 77.2812 68.1885ZM86.4824 65.4951C85.7943 65.4951 85.1904 65.3311 84.6709 65.0029C84.1514 64.6748 83.7458 64.2145 83.4541 63.6221C83.167 63.0296 83.0234 62.3415 83.0234 61.5576C83.0234 60.7601 83.167 60.0651 83.4541 59.4727C83.7458 58.8757 84.1514 58.4131 84.6709 58.085C85.1904 57.7568 85.7943 57.5928 86.4824 57.5928C87.1751 57.5928 87.7812 57.7568 88.3008 58.085C88.8203 58.4131 89.2259 58.8757 89.5176 59.4727C89.8092 60.0651 89.9551 60.7601 89.9551 61.5576C89.9551 62.3415 89.8092 63.0296 89.5176 63.6221C89.2259 64.2145 88.8203 64.6748 88.3008 65.0029C87.7812 65.3311 87.1751 65.4951 86.4824 65.4951ZM86.4824 64.4424C87.0111 64.4424 87.444 64.3079 87.7812 64.0391C88.1185 63.7702 88.3691 63.417 88.5332 62.9795C88.6973 62.5374 88.7793 62.0635 88.7793 61.5576C88.7793 61.0426 88.6973 60.5641 88.5332 60.1221C88.3691 59.68 88.1185 59.3245 87.7812 59.0557C87.444 58.7822 87.0111 58.6455 86.4824 58.6455C85.9629 58.6455 85.5345 58.7822 85.1973 59.0557C84.86 59.3245 84.6094 59.68 84.4453 60.1221C84.2812 60.5641 84.1992 61.0426 84.1992 61.5576C84.1992 62.0635 84.2812 62.5374 84.4453 62.9795C84.6094 63.417 84.86 63.7702 85.1973 64.0391C85.5345 64.3079 85.9629 64.4424 86.4824 64.4424ZM95.9023 62.2139V57.6885H97.0645V65.3311H95.9023V64.0322H95.8203C95.638 64.4196 95.3577 64.75 94.9795 65.0234C94.6058 65.2969 94.1296 65.4313 93.5508 65.4268C93.0723 65.4268 92.6484 65.3242 92.2793 65.1191C91.9102 64.9095 91.6185 64.5905 91.4043 64.1621C91.1947 63.7337 91.0898 63.1937 91.0898 62.542V57.6885H92.252V62.4736C92.252 63.0251 92.4092 63.4671 92.7236 63.7998C93.0426 64.1325 93.446 64.2965 93.9336 64.292C94.2253 64.292 94.5215 64.2191 94.8223 64.0732C95.1276 63.9229 95.3828 63.695 95.5879 63.3896C95.7975 63.0798 95.9023 62.6878 95.9023 62.2139ZM98.5684 65.3311V57.6885H99.6895V58.8506H99.7715C99.9128 58.4723 100.166 58.167 100.53 57.9346C100.899 57.6976 101.312 57.5791 101.768 57.5791C101.854 57.5791 101.961 57.5814 102.089 57.5859C102.216 57.5859 102.314 57.5882 102.383 57.5928V58.7822C102.342 58.7731 102.251 58.7594 102.109 58.7412C101.968 58.723 101.818 58.7139 101.658 58.7139C101.289 58.7139 100.959 58.7913 100.667 58.9463C100.375 59.1012 100.145 59.3132 99.9766 59.582C99.8125 59.8509 99.7305 60.1585 99.7305 60.5049V65.3311H98.5684ZM111.803 59.4111L110.75 59.6982C110.65 59.4385 110.477 59.1924 110.23 58.96C109.989 58.723 109.611 58.6045 109.096 58.6045C108.631 58.6045 108.243 58.7139 107.934 58.9326C107.624 59.1468 107.469 59.4157 107.469 59.7393C107.469 60.0309 107.574 60.2633 107.783 60.4365C107.997 60.6097 108.33 60.751 108.781 60.8604L109.916 61.1338C110.595 61.2979 111.101 61.5508 111.434 61.8926C111.771 62.2344 111.939 62.6696 111.939 63.1982C111.939 63.6357 111.814 64.0277 111.563 64.374C111.313 64.7204 110.964 64.9938 110.518 65.1943C110.071 65.3949 109.551 65.4951 108.959 65.4951C108.18 65.4951 107.535 65.3242 107.024 64.9824C106.519 64.6406 106.197 64.1462 106.061 63.499L107.168 63.2256C107.273 63.6357 107.473 63.9434 107.77 64.1484C108.07 64.3535 108.462 64.4561 108.945 64.4561C109.488 64.4561 109.921 64.3398 110.244 64.1074C110.572 63.8704 110.736 63.5902 110.736 63.2666C110.736 62.7288 110.358 62.3688 109.602 62.1865L108.33 61.8857C107.628 61.7171 107.113 61.4596 106.785 61.1133C106.457 60.7669 106.293 60.3317 106.293 59.8076C106.293 59.3747 106.414 58.9919 106.655 58.6592C106.901 58.3265 107.236 58.0667 107.66 57.8799C108.084 57.6885 108.562 57.5928 109.096 57.5928C109.857 57.5928 110.451 57.7614 110.88 58.0986C111.313 58.4313 111.62 58.8688 111.803 59.4111ZM116.15 65.4951C115.462 65.4951 114.858 65.3311 114.339 65.0029C113.819 64.6748 113.414 64.2145 113.122 63.6221C112.835 63.0296 112.691 62.3415 112.691 61.5576C112.691 60.7601 112.835 60.0651 113.122 59.4727C113.414 58.8757 113.819 58.4131 114.339 58.085C114.858 57.7568 115.462 57.5928 116.15 57.5928C116.843 57.5928 117.449 57.7568 117.969 58.085C118.488 58.4131 118.894 58.8757 119.186 59.4727C119.477 60.0651 119.623 60.7601 119.623 61.5576C119.623 62.3415 119.477 63.0296 119.186 63.6221C118.894 64.2145 118.488 64.6748 117.969 65.0029C117.449 65.3311 116.843 65.4951 116.15 65.4951ZM116.15 64.4424C116.679 64.4424 117.112 64.3079 117.449 64.0391C117.786 63.7702 118.037 63.417 118.201 62.9795C118.365 62.5374 118.447 62.0635 118.447 61.5576C118.447 61.0426 118.365 60.5641 118.201 60.1221C118.037 59.68 117.786 59.3245 117.449 59.0557C117.112 58.7822 116.679 58.6455 116.15 58.6455C115.631 58.6455 115.202 58.7822 114.865 59.0557C114.528 59.3245 114.277 59.68 114.113 60.1221C113.949 60.5641 113.867 61.0426 113.867 61.5576C113.867 62.0635 113.949 62.5374 114.113 62.9795C114.277 63.417 114.528 63.7702 114.865 64.0391C115.202 64.3079 115.631 64.4424 116.15 64.4424ZM123.848 65.4951C123.137 65.4951 122.521 65.3265 122.002 64.9893C121.487 64.6475 121.088 64.1803 120.806 63.5879C120.528 62.9954 120.389 62.3187 120.389 61.5576C120.389 60.7783 120.532 60.0924 120.819 59.5C121.106 58.903 121.507 58.4359 122.022 58.0986C122.542 57.7614 123.146 57.5928 123.834 57.5928C124.372 57.5928 124.855 57.693 125.283 57.8936C125.716 58.0895 126.069 58.3675 126.343 58.7275C126.621 59.0876 126.792 59.5068 126.855 59.9854H125.68C125.62 59.7529 125.513 59.5342 125.358 59.3291C125.203 59.124 124.998 58.96 124.743 58.8369C124.493 58.7093 124.194 58.6455 123.848 58.6455C123.392 58.6455 122.993 58.764 122.651 59.001C122.31 59.238 122.043 59.5729 121.852 60.0059C121.66 60.4342 121.564 60.9378 121.564 61.5166C121.564 62.1045 121.658 62.6195 121.845 63.0615C122.032 63.499 122.296 63.8385 122.638 64.0801C122.984 64.3216 123.387 64.4424 123.848 64.4424C124.308 64.4424 124.702 64.3239 125.03 64.0869C125.358 63.8454 125.575 63.5173 125.68 63.1025H126.855C126.792 63.5537 126.628 63.9593 126.363 64.3193C126.104 64.6794 125.759 64.9665 125.331 65.1807C124.907 65.3903 124.413 65.4951 123.848 65.4951ZM127.963 65.3311V57.6885H129.125V65.3311H127.963ZM128.551 56.417C128.323 56.417 128.127 56.3395 127.963 56.1846C127.799 56.0296 127.717 55.8428 127.717 55.624C127.717 55.4053 127.799 55.2184 127.963 55.0635C128.127 54.9085 128.323 54.8311 128.551 54.8311C128.779 54.8311 128.975 54.9085 129.139 55.0635C129.303 55.2184 129.385 55.4053 129.385 55.624C129.385 55.8428 129.303 56.0296 129.139 56.1846C128.975 56.3395 128.779 56.417 128.551 56.417ZM132.871 65.5088C132.388 65.5088 131.948 65.4176 131.552 65.2354C131.155 65.0485 130.841 64.7796 130.608 64.4287C130.376 64.0778 130.26 63.654 130.26 63.1572C130.26 62.7197 130.346 62.3665 130.52 62.0977C130.693 61.8242 130.923 61.61 131.21 61.4551C131.502 61.2956 131.821 61.1771 132.167 61.0996C132.518 61.0221 132.871 60.9606 133.227 60.915C133.691 60.8558 134.067 60.8102 134.354 60.7783C134.646 60.7464 134.858 60.6917 134.99 60.6143C135.127 60.5368 135.195 60.4046 135.195 60.2178V60.1768C135.195 59.6891 135.061 59.3109 134.792 59.042C134.528 58.7686 134.124 58.6318 133.582 58.6318C133.026 58.6318 132.589 58.7549 132.27 59.001C131.951 59.2425 131.727 59.5023 131.6 59.7803L130.479 59.3838C130.679 58.9189 130.946 58.5566 131.278 58.2969C131.616 58.0371 131.98 57.8548 132.372 57.75C132.769 57.6452 133.158 57.5928 133.541 57.5928C133.787 57.5928 134.07 57.6224 134.389 57.6816C134.708 57.7363 135.018 57.8548 135.318 58.0371C135.624 58.2148 135.874 58.486 136.07 58.8506C136.271 59.2106 136.371 59.6937 136.371 60.2998V65.3311H135.195V64.292H135.141C135.063 64.4561 134.931 64.6338 134.744 64.8252C134.557 65.012 134.309 65.1738 133.999 65.3105C133.694 65.4427 133.318 65.5088 132.871 65.5088ZM133.049 64.4561C133.514 64.4561 133.906 64.3649 134.225 64.1826C134.544 64.0003 134.785 63.7656 134.949 63.4785C135.113 63.1868 135.195 62.8838 135.195 62.5693V61.4893C135.145 61.5485 135.036 61.6032 134.867 61.6533C134.703 61.6989 134.512 61.7399 134.293 61.7764C134.079 61.8128 133.869 61.8447 133.664 61.8721C133.459 61.8949 133.295 61.9131 133.172 61.9268C132.867 61.9678 132.582 62.0339 132.317 62.125C132.053 62.2116 131.839 62.3415 131.675 62.5146C131.515 62.6878 131.436 62.9248 131.436 63.2256C131.436 63.6312 131.586 63.9388 131.887 64.1484C132.192 64.3535 132.579 64.4561 133.049 64.4561ZM139.037 55.1455V65.3311H137.875V55.1455H139.037ZM143.822 65.3311V57.6885H144.943V58.8916H145.053C145.212 58.4814 145.47 58.1624 145.825 57.9346C146.181 57.7067 146.607 57.5928 147.104 57.5928C147.605 57.5928 148.022 57.7067 148.354 57.9346C148.692 58.1624 148.954 58.4814 149.141 58.8916H149.223C149.423 58.4951 149.717 58.1807 150.104 57.9482C150.496 57.7113 150.964 57.5928 151.506 57.5928C152.189 57.5928 152.75 57.807 153.188 58.2354C153.625 58.6592 153.844 59.32 153.844 60.2178V65.3311H152.668V60.2178C152.668 59.6527 152.513 59.2493 152.203 59.0078C151.893 58.7663 151.529 58.6455 151.109 58.6455C150.576 58.6455 150.161 58.8096 149.865 59.1377C149.574 59.4613 149.428 59.8669 149.428 60.3545V65.3311H148.225V60.0947C148.225 59.6618 148.086 59.3132 147.808 59.0488C147.53 58.7799 147.167 58.6455 146.721 58.6455C146.415 58.6455 146.131 58.7275 145.866 58.8916C145.602 59.0557 145.388 59.2812 145.224 59.5684C145.064 59.8555 144.984 60.1859 144.984 60.5596V65.3311H143.822ZM158.547 65.4951C157.813 65.4951 157.177 65.3311 156.64 65.0029C156.106 64.6748 155.696 64.2168 155.409 63.6289C155.122 63.0365 154.979 62.3506 154.979 61.5713C154.979 60.7874 155.12 60.097 155.402 59.5C155.685 58.903 156.081 58.4359 156.592 58.0986C157.107 57.7614 157.708 57.5928 158.396 57.5928C158.793 57.5928 159.187 57.6589 159.579 57.791C159.971 57.9232 160.326 58.1374 160.646 58.4336C160.969 58.7298 161.227 59.1217 161.418 59.6094C161.609 60.097 161.705 60.6963 161.705 61.4072V61.9131H155.812V60.9014H161.069L160.529 61.2842C160.529 60.7738 160.45 60.3203 160.29 59.9238C160.131 59.5273 159.891 59.2152 159.572 58.9873C159.258 58.7594 158.866 58.6455 158.396 58.6455C157.927 58.6455 157.524 58.7617 157.187 58.9941C156.854 59.222 156.599 59.5205 156.421 59.8896C156.243 60.2588 156.154 60.6553 156.154 61.0791V61.749C156.154 62.3278 156.255 62.8177 156.455 63.2188C156.656 63.6198 156.936 63.9251 157.296 64.1348C157.656 64.3398 158.073 64.4424 158.547 64.4424C158.852 64.4424 159.13 64.3991 159.381 64.3125C159.632 64.2214 159.848 64.0869 160.03 63.9092C160.213 63.7269 160.352 63.5036 160.447 63.2393L161.582 63.5674C161.464 63.9502 161.263 64.2874 160.98 64.5791C160.702 64.8662 160.356 65.0918 159.941 65.2559C159.527 65.4154 159.062 65.4951 158.547 65.4951ZM165.684 65.4951C165.046 65.4951 164.483 65.3333 163.995 65.0098C163.507 64.6862 163.127 64.2282 162.854 63.6357C162.58 63.0387 162.443 62.3369 162.443 61.5303C162.443 60.7282 162.58 60.0332 162.854 59.4453C163.132 58.8529 163.514 58.3971 164.002 58.0781C164.49 57.7546 165.055 57.5928 165.697 57.5928C166.199 57.5928 166.593 57.6748 166.88 57.8389C167.172 58.0029 167.395 58.1898 167.55 58.3994C167.705 58.6045 167.826 58.7731 167.912 58.9053H168.008V55.1455H169.17V65.3311H168.049V64.1553H167.912C167.826 64.292 167.702 64.4674 167.543 64.6816C167.383 64.8913 167.156 65.0804 166.859 65.249C166.568 65.4131 166.176 65.4951 165.684 65.4951ZM165.834 64.4424C166.308 64.4424 166.707 64.3193 167.03 64.0732C167.354 63.8226 167.6 63.4785 167.769 63.041C167.937 62.599 168.021 62.0908 168.021 61.5166C168.021 60.9424 167.939 60.4411 167.775 60.0127C167.611 59.5798 167.365 59.2448 167.037 59.0078C166.714 58.7663 166.312 58.6455 165.834 58.6455C165.342 58.6455 164.932 58.7731 164.604 59.0283C164.275 59.2835 164.029 59.6276 163.865 60.0605C163.701 60.4935 163.619 60.9788 163.619 61.5166C163.619 62.0589 163.701 62.5511 163.865 62.9932C164.034 63.4352 164.282 63.7884 164.61 64.0527C164.938 64.3125 165.346 64.4424 165.834 64.4424ZM170.674 65.3311V57.6885H171.836V65.3311H170.674ZM171.262 56.417C171.034 56.417 170.838 56.3395 170.674 56.1846C170.51 56.0296 170.428 55.8428 170.428 55.624C170.428 55.4053 170.51 55.2184 170.674 55.0635C170.838 54.9085 171.034 54.8311 171.262 54.8311C171.49 54.8311 171.686 54.9085 171.85 55.0635C172.014 55.2184 172.096 55.4053 172.096 55.624C172.096 55.8428 172.014 56.0296 171.85 56.1846C171.686 56.3395 171.49 56.417 171.262 56.417ZM175.582 65.5088C175.099 65.5088 174.659 65.4176 174.263 65.2354C173.866 65.0485 173.552 64.7796 173.319 64.4287C173.087 64.0778 172.971 63.654 172.971 63.1572C172.971 62.7197 173.057 62.3665 173.23 62.0977C173.404 61.8242 173.634 61.61 173.921 61.4551C174.213 61.2956 174.532 61.1771 174.878 61.0996C175.229 61.0221 175.582 60.9606 175.938 60.915C176.402 60.8558 176.778 60.8102 177.065 60.7783C177.357 60.7464 177.569 60.6917 177.701 60.6143C177.838 60.5368 177.906 60.4046 177.906 60.2178V60.1768C177.906 59.6891 177.772 59.3109 177.503 59.042C177.239 58.7686 176.835 58.6318 176.293 58.6318C175.737 58.6318 175.299 58.7549 174.98 59.001C174.661 59.2425 174.438 59.5023 174.311 59.7803L173.189 59.3838C173.39 58.9189 173.657 58.5566 173.989 58.2969C174.326 58.0371 174.691 57.8548 175.083 57.75C175.479 57.6452 175.869 57.5928 176.252 57.5928C176.498 57.5928 176.781 57.6224 177.1 57.6816C177.419 57.7363 177.729 57.8548 178.029 58.0371C178.335 58.2148 178.585 58.486 178.781 58.8506C178.982 59.2106 179.082 59.6937 179.082 60.2998V65.3311H177.906V64.292H177.852C177.774 64.4561 177.642 64.6338 177.455 64.8252C177.268 65.012 177.02 65.1738 176.71 65.3105C176.405 65.4427 176.029 65.5088 175.582 65.5088ZM175.76 64.4561C176.225 64.4561 176.617 64.3649 176.936 64.1826C177.255 64.0003 177.496 63.7656 177.66 63.4785C177.824 63.1868 177.906 62.8838 177.906 62.5693V61.4893C177.856 61.5485 177.747 61.6032 177.578 61.6533C177.414 61.6989 177.223 61.7399 177.004 61.7764C176.79 61.8128 176.58 61.8447 176.375 61.8721C176.17 61.8949 176.006 61.9131 175.883 61.9268C175.577 61.9678 175.293 62.0339 175.028 62.125C174.764 62.2116 174.55 62.3415 174.386 62.5146C174.226 62.6878 174.146 62.9248 174.146 63.2256C174.146 63.6312 174.297 63.9388 174.598 64.1484C174.903 64.3535 175.29 64.4561 175.76 64.4561Z" fill="white"/>
<rect x="194" y="52.3311" width="27" height="16" rx="8" fill="#CA9FFF"/>
<rect x="206" y="53.3311" width="14" height="14" rx="7" fill="white"/>
<line opacity="0.3" x1="16.9989" y1="77.1622" x2="217.994" y2="75.8311" stroke="#D9D9D9"/>
<path d="M25 88.9956V98.3289M20.3333 93.6623H29.6667" stroke="white" stroke-width="1.5" stroke-linecap="round" stroke-linejoin="round"/>
<path d="M39.9023 98.6622V88.4767H43.3477C44.1452 88.4767 44.7969 88.6134 45.3027 88.8868C45.8132 89.1557 46.1914 89.5271 46.4375 90.0011C46.6836 90.4705 46.8066 91.006 46.8066 91.6075C46.8066 92.2045 46.6836 92.7355 46.4375 93.2003C46.196 93.6652 45.82 94.0297 45.3096 94.2941C44.8037 94.5538 44.1543 94.6837 43.3613 94.6837H40.5859V93.5763H43.3203C43.8672 93.5763 44.307 93.4965 44.6396 93.337C44.9723 93.1775 45.2139 92.9519 45.3643 92.6603C45.5146 92.3641 45.5898 92.0131 45.5898 91.6075C45.5898 91.1974 45.5124 90.8396 45.3574 90.5343C45.207 90.229 44.9655 89.992 44.6328 89.8234C44.3001 89.6547 43.8581 89.5704 43.3066 89.5704H41.1328V98.6622H39.9023ZM45.7676 98.6622L43.3066 94.0822H44.7012L47.2031 98.6622H45.7676ZM51.168 98.8263C50.4342 98.8263 49.7985 98.6622 49.2607 98.3341C48.7275 98.006 48.3174 97.548 48.0303 96.9601C47.7432 96.3676 47.5996 95.6818 47.5996 94.9025C47.5996 94.1186 47.7409 93.4282 48.0234 92.8312C48.306 92.2342 48.7025 91.767 49.2129 91.4298C49.7279 91.0926 50.3294 90.924 51.0176 90.924C51.4141 90.924 51.8083 90.99 52.2002 91.1222C52.5921 91.2544 52.9476 91.4685 53.2666 91.7648C53.5902 92.061 53.8477 92.4529 54.0391 92.9406C54.2305 93.4282 54.3262 94.0275 54.3262 94.7384V95.2443H48.4336V94.2325H53.6904L53.1504 94.6154C53.1504 94.1049 53.0706 93.6515 52.9111 93.255C52.7516 92.8585 52.5124 92.5463 52.1934 92.3185C51.8789 92.0906 51.487 91.9767 51.0176 91.9767C50.5482 91.9767 50.1449 92.0929 49.8076 92.3253C49.4749 92.5532 49.2197 92.8517 49.042 93.2208C48.8643 93.59 48.7754 93.9865 48.7754 94.4103V95.0802C48.7754 95.659 48.8757 96.1489 49.0762 96.5499C49.2767 96.951 49.557 97.2563 49.917 97.4659C50.277 97.671 50.694 97.7736 51.168 97.7736C51.4733 97.7736 51.7513 97.7303 52.002 97.6437C52.2526 97.5525 52.4691 97.4181 52.6514 97.2404C52.8337 97.0581 52.9727 96.8348 53.0684 96.5704L54.2031 96.8986C54.0846 97.2814 53.8841 97.6186 53.6016 97.9103C53.3236 98.1974 52.9772 98.423 52.5625 98.587C52.1478 98.7465 51.6829 98.8263 51.168 98.8263ZM58.5234 98.8263C57.8125 98.8263 57.1973 98.6577 56.6777 98.3204C56.1628 97.9786 55.764 97.5115 55.4814 96.9191C55.2035 96.3266 55.0645 95.6499 55.0645 94.8888C55.0645 94.1095 55.208 93.4236 55.4951 92.8312C55.7822 92.2342 56.1833 91.767 56.6982 91.4298C57.2178 91.0926 57.8216 90.924 58.5098 90.924C59.0475 90.924 59.5306 91.0242 59.959 91.2247C60.3919 91.4207 60.7451 91.6987 61.0186 92.0587C61.2965 92.4187 61.4674 92.838 61.5312 93.3165H60.3555C60.2962 93.0841 60.1891 92.8654 60.0342 92.6603C59.8792 92.4552 59.6742 92.2911 59.4189 92.1681C59.1683 92.0405 58.8698 91.9767 58.5234 91.9767C58.0677 91.9767 57.6689 92.0952 57.3271 92.3322C56.9854 92.5691 56.7188 92.9041 56.5273 93.337C56.3359 93.7654 56.2402 94.269 56.2402 94.8478C56.2402 95.4357 56.3337 95.9506 56.5205 96.3927C56.7074 96.8302 56.9717 97.1697 57.3135 97.4113C57.6598 97.6528 58.0632 97.7736 58.5234 97.7736C58.9837 97.7736 59.3779 97.6551 59.7061 97.4181C60.0342 97.1766 60.2507 96.8484 60.3555 96.4337H61.5312C61.4674 96.8849 61.3034 97.2905 61.0391 97.6505C60.7793 98.0105 60.4352 98.2976 60.0068 98.5118C59.583 98.7215 59.0885 98.8263 58.5234 98.8263ZM65.7285 98.8263C65.0404 98.8263 64.4365 98.6622 63.917 98.3341C63.3975 98.006 62.9919 97.5457 62.7002 96.9532C62.4131 96.3608 62.2695 95.6726 62.2695 94.8888C62.2695 94.0913 62.4131 93.3963 62.7002 92.8038C62.9919 92.2068 63.3975 91.7443 63.917 91.4161C64.4365 91.088 65.0404 90.924 65.7285 90.924C66.4212 90.924 67.0273 91.088 67.5469 91.4161C68.0664 91.7443 68.472 92.2068 68.7637 92.8038C69.0553 93.3963 69.2012 94.0913 69.2012 94.8888C69.2012 95.6726 69.0553 96.3608 68.7637 96.9532C68.472 97.5457 68.0664 98.006 67.5469 98.3341C67.0273 98.6622 66.4212 98.8263 65.7285 98.8263ZM65.7285 97.7736C66.2572 97.7736 66.6901 97.6391 67.0273 97.3702C67.3646 97.1014 67.6152 96.7482 67.7793 96.3107C67.9434 95.8686 68.0254 95.3947 68.0254 94.8888C68.0254 94.3738 67.9434 93.8953 67.7793 93.4532C67.6152 93.0112 67.3646 92.6557 67.0273 92.3868C66.6901 92.1134 66.2572 91.9767 65.7285 91.9767C65.209 91.9767 64.7806 92.1134 64.4434 92.3868C64.1061 92.6557 63.8555 93.0112 63.6914 93.4532C63.5273 93.8953 63.4453 94.3738 63.4453 94.8888C63.4453 95.3947 63.5273 95.8686 63.6914 96.3107C63.8555 96.7482 64.1061 97.1014 64.4434 97.3702C64.7806 97.6391 65.209 97.7736 65.7285 97.7736ZM70.3359 98.6622V91.0197H71.457V92.1818H71.5391C71.6803 91.8035 71.9333 91.4982 72.2979 91.2657C72.667 91.0288 73.0794 90.9103 73.5352 90.9103C73.6217 90.9103 73.7288 90.9126 73.8564 90.9171C73.984 90.9171 74.082 90.9194 74.1504 90.924V92.1134C74.1094 92.1043 74.0182 92.0906 73.877 92.0724C73.7357 92.0542 73.5853 92.045 73.4258 92.045C73.0566 92.045 72.7262 92.1225 72.4346 92.2775C72.1429 92.4324 71.9128 92.6443 71.7441 92.9132C71.5801 93.1821 71.498 93.4897 71.498 93.8361V98.6622H70.3359ZM77.5273 98.8263C76.8893 98.8263 76.3265 98.6645 75.8389 98.3409C75.3512 98.0174 74.9707 97.5594 74.6973 96.9669C74.4238 96.3699 74.2871 95.6681 74.2871 94.8615C74.2871 94.0594 74.4238 93.3644 74.6973 92.7765C74.9753 92.184 75.3581 91.7283 75.8457 91.4093C76.3333 91.0857 76.8984 90.924 77.541 90.924C78.0423 90.924 78.4365 91.006 78.7236 91.17C79.0153 91.3341 79.2386 91.521 79.3936 91.7306C79.5485 91.9357 79.6693 92.1043 79.7559 92.2365H79.8516V88.4767H81.0137V98.6622H79.8926V97.4865H79.7559C79.6693 97.6232 79.5462 97.7986 79.3867 98.0128C79.2272 98.2225 78.9993 98.4116 78.7031 98.5802C78.4115 98.7443 78.0195 98.8263 77.5273 98.8263ZM77.6777 97.7736C78.1517 97.7736 78.5505 97.6505 78.874 97.4044C79.1976 97.1538 79.4437 96.8097 79.6123 96.3722C79.7809 95.9301 79.8652 95.422 79.8652 94.8478C79.8652 94.2736 79.7832 93.7723 79.6191 93.3439C79.4551 92.9109 79.209 92.576 78.8809 92.339C78.5573 92.0975 78.1562 91.9767 77.6777 91.9767C77.1855 91.9767 76.7754 92.1043 76.4473 92.3595C76.1191 92.6147 75.873 92.9588 75.709 93.3917C75.5449 93.8247 75.4629 94.31 75.4629 94.8478C75.4629 95.3901 75.5449 95.8823 75.709 96.3243C75.8776 96.7664 76.126 97.1196 76.4541 97.3839C76.7822 97.6437 77.1901 97.7736 77.6777 97.7736ZM86.5508 101.52C86.3503 101.524 86.1725 101.511 86.0176 101.479C85.8626 101.447 85.7533 101.415 85.6895 101.383L85.9902 100.358L86.1064 100.385C86.4984 100.476 86.8265 100.456 87.0908 100.323C87.3597 100.196 87.5944 99.8562 87.7949 99.3048L88.0137 98.7032L85.1973 91.0197H86.4688L88.5742 97.1173H88.6562L90.7617 91.0197H92.0332L88.793 99.7697C88.6471 100.166 88.4671 100.494 88.2529 100.754C88.0387 101.014 87.7904 101.205 87.5078 101.328C87.2253 101.456 86.9062 101.52 86.5508 101.52ZM95.752 98.8263C95.0638 98.8263 94.46 98.6622 93.9404 98.3341C93.4209 98.006 93.0153 97.5457 92.7236 96.9532C92.4365 96.3608 92.293 95.6726 92.293 94.8888C92.293 94.0913 92.4365 93.3963 92.7236 92.8038C93.0153 92.2068 93.4209 91.7443 93.9404 91.4161C94.46 91.088 95.0638 90.924 95.752 90.924C96.4447 90.924 97.0508 91.088 97.5703 91.4161C98.0898 91.7443 98.4954 92.2068 98.7871 92.8038C99.0788 93.3963 99.2246 94.0913 99.2246 94.8888C99.2246 95.6726 99.0788 96.3608 98.7871 96.9532C98.4954 97.5457 98.0898 98.006 97.5703 98.3341C97.0508 98.6622 96.4447 98.8263 95.752 98.8263ZM95.752 97.7736C96.2806 97.7736 96.7135 97.6391 97.0508 97.3702C97.388 97.1014 97.6387 96.7482 97.8027 96.3107C97.9668 95.8686 98.0488 95.3947 98.0488 94.8888C98.0488 94.3738 97.9668 93.8953 97.8027 93.4532C97.6387 93.0112 97.388 92.6557 97.0508 92.3868C96.7135 92.1134 96.2806 91.9767 95.752 91.9767C95.2324 91.9767 94.804 92.1134 94.4668 92.3868C94.1296 92.6557 93.8789 93.0112 93.7148 93.4532C93.5508 93.8953 93.4688 94.3738 93.4688 94.8888C93.4688 95.3947 93.5508 95.8686 93.7148 96.3107C93.8789 96.7482 94.1296 97.1014 94.4668 97.3702C94.804 97.6391 95.2324 97.7736 95.752 97.7736ZM105.172 95.545V91.0197H106.334V98.6622H105.172V97.3634H105.09C104.908 97.7508 104.627 98.0812 104.249 98.3546C103.875 98.6281 103.399 98.7625 102.82 98.7579C102.342 98.7579 101.918 98.6554 101.549 98.4503C101.18 98.2407 100.888 97.9217 100.674 97.4933C100.464 97.0649 100.359 96.5249 100.359 95.8732V91.0197H101.521V95.8048C101.521 96.3562 101.679 96.7983 101.993 97.131C102.312 97.4637 102.715 97.6277 103.203 97.6232C103.495 97.6232 103.791 97.5503 104.092 97.4044C104.397 97.254 104.652 97.0262 104.857 96.7208C105.067 96.4109 105.172 96.019 105.172 95.545ZM107.838 98.6622V91.0197H108.959V92.1818H109.041C109.182 91.8035 109.435 91.4982 109.8 91.2657C110.169 91.0288 110.581 90.9103 111.037 90.9103C111.124 90.9103 111.231 90.9126 111.358 90.9171C111.486 90.9171 111.584 90.9194 111.652 90.924V92.1134C111.611 92.1043 111.52 92.0906 111.379 92.0724C111.238 92.0542 111.087 92.045 110.928 92.045C110.559 92.045 110.228 92.1225 109.937 92.2775C109.645 92.4324 109.415 92.6443 109.246 92.9132C109.082 93.1821 109 93.4897 109 93.8361V98.6622H107.838ZM119.158 98.8263C118.671 98.8263 118.279 98.7443 117.982 98.5802C117.686 98.4116 117.458 98.2225 117.299 98.0128C117.139 97.7986 117.016 97.6232 116.93 97.4865H116.793V98.6622H115.672V88.4767H116.834V92.2365H116.93C117.016 92.1043 117.137 91.9357 117.292 91.7306C117.447 91.521 117.67 91.3341 117.962 91.17C118.254 91.006 118.648 90.924 119.145 90.924C119.787 90.924 120.352 91.0857 120.84 91.4093C121.327 91.7283 121.708 92.184 121.981 92.7765C122.259 93.3644 122.398 94.0594 122.398 94.8615C122.398 95.6681 122.262 96.3699 121.988 96.9669C121.715 97.5594 121.334 98.0174 120.847 98.3409C120.359 98.6645 119.796 98.8263 119.158 98.8263ZM119.008 97.7736C119.495 97.7736 119.903 97.6437 120.231 97.3839C120.56 97.1196 120.806 96.7664 120.97 96.3243C121.138 95.8823 121.223 95.3901 121.223 94.8478C121.223 94.31 121.141 93.8247 120.977 93.3917C120.812 92.9588 120.566 92.6147 120.238 92.3595C119.915 92.1043 119.505 91.9767 119.008 91.9767C118.529 91.9767 118.128 92.0975 117.805 92.339C117.481 92.576 117.235 92.9109 117.066 93.3439C116.902 93.7723 116.82 94.2736 116.82 94.8478C116.82 95.422 116.905 95.9301 117.073 96.3722C117.242 96.8097 117.488 97.1538 117.812 97.4044C118.14 97.6505 118.538 97.7736 119.008 97.7736ZM123.533 98.6622V91.0197H124.654V92.1818H124.736C124.878 91.8035 125.131 91.4982 125.495 91.2657C125.864 91.0288 126.277 90.9103 126.732 90.9103C126.819 90.9103 126.926 90.9126 127.054 90.9171C127.181 90.9171 127.279 90.9194 127.348 90.924V92.1134C127.307 92.1043 127.215 92.0906 127.074 92.0724C126.933 92.0542 126.783 92.045 126.623 92.045C126.254 92.045 125.924 92.1225 125.632 92.2775C125.34 92.4324 125.11 92.6443 124.941 92.9132C124.777 93.1821 124.695 93.4897 124.695 93.8361V98.6622H123.533ZM130.943 98.8263C130.255 98.8263 129.651 98.6622 129.132 98.3341C128.612 98.006 128.207 97.5457 127.915 96.9532C127.628 96.3608 127.484 95.6726 127.484 94.8888C127.484 94.0913 127.628 93.3963 127.915 92.8038C128.207 92.2068 128.612 91.7443 129.132 91.4161C129.651 91.088 130.255 90.924 130.943 90.924C131.636 90.924 132.242 91.088 132.762 91.4161C133.281 91.7443 133.687 92.2068 133.979 92.8038C134.27 93.3963 134.416 94.0913 134.416 94.8888C134.416 95.6726 134.27 96.3608 133.979 96.9532C133.687 97.5457 133.281 98.006 132.762 98.3341C132.242 98.6622 131.636 98.8263 130.943 98.8263ZM130.943 97.7736C131.472 97.7736 131.905 97.6391 132.242 97.3702C132.579 97.1014 132.83 96.7482 132.994 96.3107C133.158 95.8686 133.24 95.3947 133.24 94.8888C133.24 94.3738 133.158 93.8953 132.994 93.4532C132.83 93.0112 132.579 92.6557 132.242 92.3868C131.905 92.1134 131.472 91.9767 130.943 91.9767C130.424 91.9767 129.995 92.1134 129.658 92.3868C129.321 92.6557 129.07 93.0112 128.906 93.4532C128.742 93.8953 128.66 94.3738 128.66 94.8888C128.66 95.3947 128.742 95.8686 128.906 96.3107C129.07 96.7482 129.321 97.1014 129.658 97.3702C129.995 97.6391 130.424 97.7736 130.943 97.7736ZM137.014 98.6622L134.689 91.0197H135.92L137.574 96.8712H137.656L139.283 91.0197H140.541L142.141 96.8575H142.223L143.877 91.0197H145.107L142.783 98.6622H141.635L139.953 92.797H139.844L138.162 98.6622H137.014ZM151.41 92.7423L150.357 93.0294C150.257 92.7697 150.084 92.5236 149.838 92.2911C149.596 92.0542 149.218 91.9357 148.703 91.9357C148.238 91.9357 147.851 92.045 147.541 92.2638C147.231 92.478 147.076 92.7469 147.076 93.0704C147.076 93.3621 147.181 93.5945 147.391 93.7677C147.605 93.9409 147.938 94.0822 148.389 94.1915L149.523 94.465C150.202 94.629 150.708 94.882 151.041 95.2238C151.378 95.5656 151.547 96.0008 151.547 96.5294C151.547 96.9669 151.422 97.3588 151.171 97.7052C150.92 98.0516 150.572 98.325 150.125 98.5255C149.678 98.726 149.159 98.8263 148.566 98.8263C147.787 98.8263 147.142 98.6554 146.632 98.3136C146.126 97.9718 145.805 97.4773 145.668 96.8302L146.775 96.5568C146.88 96.9669 147.081 97.2745 147.377 97.4796C147.678 97.6847 148.07 97.7872 148.553 97.7872C149.095 97.7872 149.528 97.671 149.852 97.4386C150.18 97.2016 150.344 96.9213 150.344 96.5978C150.344 96.06 149.965 95.7 149.209 95.5177L147.938 95.2169C147.236 95.0483 146.721 94.7908 146.393 94.4445C146.064 94.0981 145.9 93.6629 145.9 93.1388C145.9 92.7059 146.021 92.323 146.263 91.9904C146.509 91.6577 146.844 91.3979 147.268 91.2111C147.691 91.0197 148.17 90.924 148.703 90.924C149.464 90.924 150.059 91.0926 150.487 91.4298C150.92 91.7625 151.228 92.2 151.41 92.7423ZM152.668 98.6622V91.0197H153.83V98.6622H152.668ZM153.256 89.7482C153.028 89.7482 152.832 89.6707 152.668 89.5157C152.504 89.3608 152.422 89.174 152.422 88.9552C152.422 88.7365 152.504 88.5496 152.668 88.3947C152.832 88.2397 153.028 88.1622 153.256 88.1622C153.484 88.1622 153.68 88.2397 153.844 88.3947C154.008 88.5496 154.09 88.7365 154.09 88.9552C154.09 89.174 154.008 89.3608 153.844 89.5157C153.68 89.6707 153.484 89.7482 153.256 89.7482ZM156.496 94.0685V98.6622H155.334V91.0197H156.455V92.2228H156.564C156.742 91.8309 157.013 91.5164 157.378 91.2794C157.743 91.0424 158.214 90.924 158.793 90.924C159.308 90.924 159.759 91.0288 160.146 91.2384C160.534 91.448 160.835 91.767 161.049 92.1954C161.268 92.6193 161.377 93.157 161.377 93.8087V98.6622H160.215V93.8907C160.215 93.2937 160.058 92.8266 159.743 92.4894C159.429 92.1476 159 91.9767 158.458 91.9767C158.084 91.9767 157.749 92.0587 157.453 92.2228C157.157 92.3868 156.922 92.6238 156.749 92.9337C156.58 93.2436 156.496 93.6219 156.496 94.0685ZM165.957 101.684C165.105 101.684 164.43 101.529 163.934 101.219C163.441 100.909 163.077 100.554 162.84 100.152L163.77 99.4962C163.874 99.6375 164.009 99.797 164.173 99.9747C164.337 100.157 164.56 100.314 164.843 100.446C165.125 100.579 165.497 100.645 165.957 100.645C166.572 100.645 167.08 100.497 167.481 100.2C167.887 99.9041 168.09 99.437 168.09 98.799V97.254H167.98C167.898 97.3907 167.778 97.5616 167.618 97.7667C167.463 97.9672 167.238 98.1473 166.941 98.3068C166.65 98.4617 166.253 98.5392 165.752 98.5392C165.137 98.5392 164.585 98.3934 164.098 98.1017C163.61 97.81 163.223 97.3862 162.936 96.8302C162.653 96.2742 162.512 95.5997 162.512 94.8068C162.512 94.0229 162.648 93.3416 162.922 92.7628C163.2 92.1795 163.585 91.7283 164.077 91.4093C164.569 91.0857 165.137 90.924 165.779 90.924C166.276 90.924 166.67 91.006 166.962 91.17C167.258 91.3341 167.484 91.521 167.639 91.7306C167.798 91.9357 167.921 92.1043 168.008 92.2365H168.131V91.0197H169.252V98.881C169.252 99.5372 169.104 100.07 168.808 100.481C168.516 100.895 168.119 101.198 167.618 101.39C167.121 101.586 166.568 101.684 165.957 101.684ZM165.916 97.4865C166.622 97.4865 167.162 97.2472 167.536 96.7687C167.914 96.2902 168.104 95.6271 168.104 94.7794C168.104 94.228 168.021 93.7426 167.857 93.3234C167.693 92.9041 167.447 92.576 167.119 92.339C166.796 92.0975 166.395 91.9767 165.916 91.9767C165.419 91.9767 165.005 92.1043 164.672 92.3595C164.344 92.6101 164.098 92.9474 163.934 93.3712C163.77 93.795 163.688 94.2644 163.688 94.7794C163.688 95.3081 163.77 95.7775 163.934 96.1876C164.102 96.5932 164.353 96.9122 164.686 97.1447C165.018 97.3725 165.428 97.4865 165.916 97.4865Z" fill="white"/>
<rect x="194" y="85.6622" width="27" height="16" rx="8" fill="#CA9FFF"/>
<rect x="206" y="86.6622" width="14" height="14" rx="7" fill="white"/>
<line opacity="0.3" x1="16.9989" y1="110.493" x2="217.994" y2="109.162" stroke="#D9D9D9"/>
<path d="M25 122.327V131.66M20.3333 126.993H29.6667" stroke="white" stroke-width="1.5" stroke-linecap="round" stroke-linejoin="round"/>
<path d="M39.938 121.983H41.198V130.873H46.448V131.993H39.938V121.983ZM50.2865 131.209C51.7145 131.209 52.2465 130.285 52.3725 129.795H53.4925C53.1285 131.125 52.1065 132.189 50.3285 132.189C48.1585 132.189 46.8425 130.663 46.8425 128.423C46.8425 126.043 48.1865 124.657 50.2725 124.657C52.5125 124.657 53.6045 126.183 53.6045 128.717H47.9625C47.9625 130.005 48.7325 131.209 50.2865 131.209ZM50.2725 125.637C48.9285 125.637 47.9625 126.589 47.9625 127.737H52.4845C52.4845 126.589 51.6165 125.637 50.2725 125.637ZM57.6846 125.833H56.2846V130.131C56.2846 130.943 56.7326 131.083 57.6846 131.013V131.993C57.4326 132.049 57.1386 132.077 56.8446 132.077C55.8926 132.077 55.1646 131.699 55.1646 130.243V125.833H54.1146V124.853H55.1646V122.473H56.2846V124.853H57.6846V125.833ZM66.3907 124.853H67.5107V131.993H66.3907V131.139H66.3627C65.9847 131.643 65.2287 132.189 64.0107 132.189C62.7087 132.189 61.6167 131.475 61.6167 129.837V124.853H62.7367V129.557C62.7367 130.481 63.1707 131.209 64.2907 131.209C65.5507 131.209 66.3907 130.411 66.3907 129.305V124.853ZM71.9532 127.751C73.2272 128.059 74.6692 128.269 74.6692 130.033C74.6692 131.335 73.4792 132.189 71.8552 132.189C69.6712 132.189 68.6632 131.153 68.5932 129.613H69.7132C69.7832 130.411 70.0632 131.209 71.8552 131.209C73.0732 131.209 73.5492 130.579 73.5492 130.103C73.5492 129.067 72.6112 129.011 71.5892 128.759C70.4972 128.493 68.8732 128.367 68.8732 126.687C68.8732 125.567 69.8672 124.657 71.5472 124.657C73.3252 124.657 74.2772 125.665 74.3892 126.897H73.2692C73.1572 126.351 72.8912 125.637 71.5472 125.637C70.5392 125.637 69.9932 126.043 69.9932 126.603C69.9932 127.443 70.9592 127.513 71.9532 127.751ZM78.5571 121.983H79.6771V127.919L82.9531 124.853H84.3531L81.5671 127.499L84.6471 131.993H83.3171L80.7831 128.157L79.6771 129.179V131.993H78.5571V121.983ZM88.9067 124.657C90.2087 124.657 91.3007 125.371 91.3007 127.009V131.993H90.1807V127.289C90.1807 126.365 89.7467 125.637 88.6267 125.637C87.3667 125.637 86.5267 126.435 86.5267 127.541V131.993H85.4067V124.853H86.5267V125.707H86.5547C86.9327 125.203 87.6887 124.657 88.9067 124.657ZM95.8972 132.189C93.7132 132.189 92.3972 130.649 92.3972 128.423C92.3972 126.197 93.7132 124.657 95.8972 124.657C98.0672 124.657 99.3832 126.197 99.3832 128.423C99.3832 130.649 98.0672 132.189 95.8972 132.189ZM95.8972 131.209C97.4932 131.209 98.2632 129.949 98.2632 128.423C98.2632 126.897 97.4932 125.637 95.8972 125.637C94.2872 125.637 93.5172 126.897 93.5172 128.423C93.5172 129.949 94.2872 131.209 95.8972 131.209ZM99.6634 124.853H100.895L102.519 130.775H102.547L104.143 124.853H105.333L106.943 130.775H106.971L108.595 124.853H109.827L107.545 131.993H106.355L104.745 126.099H104.717L103.135 131.993H101.945L99.6634 124.853ZM119.509 124.853L116.457 132.581C116.149 133.351 115.785 134.401 114.469 134.401C114.021 134.401 113.699 134.317 113.517 134.261V133.421H113.685C114.301 133.477 114.735 133.435 115.113 133.029C115.407 132.707 115.701 132.105 115.421 131.405L112.719 124.853H113.979L116.163 130.677H116.191L118.249 124.853H119.509ZM123.268 132.189C121.084 132.189 119.768 130.649 119.768 128.423C119.768 126.197 121.084 124.657 123.268 124.657C125.438 124.657 126.754 126.197 126.754 128.423C126.754 130.649 125.438 132.189 123.268 132.189ZM123.268 131.209C124.864 131.209 125.634 129.949 125.634 128.423C125.634 126.897 124.864 125.637 123.268 125.637C121.658 125.637 120.888 126.897 120.888 128.423C120.888 129.949 121.658 131.209 123.268 131.209ZM132.617 124.853H133.737V131.993H132.617V131.139H132.589C132.211 131.643 131.455 132.189 130.237 132.189C128.935 132.189 127.843 131.475 127.843 129.837V124.853H128.963V129.557C128.963 130.481 129.397 131.209 130.517 131.209C131.777 131.209 132.617 130.411 132.617 129.305V124.853ZM138.404 124.657C138.67 124.657 138.866 124.671 139.062 124.699V125.819H139.034C137.48 125.567 136.402 126.659 136.402 128.185V131.993H135.282V124.853H136.402V126.267H136.43C136.808 125.329 137.382 124.657 138.404 124.657ZM142.925 121.983H144.045V131.993H142.925V121.983ZM148.725 132.189C146.541 132.189 145.225 130.649 145.225 128.423C145.225 126.197 146.541 124.657 148.725 124.657C150.895 124.657 152.211 126.197 152.211 128.423C152.211 130.649 150.895 132.189 148.725 132.189ZM148.725 131.209C150.321 131.209 151.091 129.949 151.091 128.423C151.091 126.897 150.321 125.637 148.725 125.637C147.115 125.637 146.345 126.897 146.345 128.423C146.345 129.949 147.115 131.209 148.725 131.209ZM158.41 127.429C158.354 126.645 157.822 125.637 156.394 125.637C154.7 125.637 154.056 127.079 154.056 128.423C154.056 129.767 154.7 131.209 156.394 131.209C157.836 131.209 158.354 130.215 158.41 129.361H159.53C159.432 130.985 158.158 132.189 156.394 132.189C154.308 132.189 152.936 130.663 152.936 128.423C152.936 126.183 154.308 124.657 156.394 124.657C158.158 124.657 159.362 125.833 159.53 127.429H158.41ZM165.107 126.673C165.107 126.113 164.799 125.637 163.651 125.637C162.293 125.637 161.845 126.029 161.775 127.065H160.655C160.725 125.693 161.579 124.657 163.651 124.657C165.009 124.657 166.227 125.189 166.227 126.911V130.383C166.227 130.943 166.325 131.251 167.039 131.167V131.951C166.745 132.049 166.591 132.063 166.381 132.063C165.709 132.063 165.303 131.881 165.107 131.097H165.079C164.631 131.769 163.833 132.189 162.657 132.189C161.215 132.189 160.305 131.363 160.305 130.159C160.305 128.535 161.509 128.115 163.357 127.765C164.561 127.541 165.107 127.387 165.107 126.673ZM162.769 131.209C164.099 131.209 165.107 130.607 165.107 129.235V128.045C164.897 128.255 164.211 128.451 163.455 128.605C162.069 128.899 161.425 129.249 161.425 130.103C161.425 130.803 161.845 131.209 162.769 131.209ZM168.575 123.467C168.267 123.467 167.875 123.229 167.875 122.795C167.875 122.361 168.267 122.123 168.575 122.123C168.897 122.123 169.275 122.361 169.275 122.795C169.275 123.229 168.897 123.467 168.575 123.467ZM168.015 124.853H169.135V131.993H168.015V124.853ZM173.923 125.833H172.523V130.131C172.523 130.943 172.971 131.083 173.923 131.013V131.993C173.671 132.049 173.377 132.077 173.083 132.077C172.131 132.077 171.403 131.699 171.403 130.243V125.833H170.353V124.853H171.403V122.473H172.523V124.853H173.923V125.833ZM178.12 132.189C175.936 132.189 174.62 130.649 174.62 128.423C174.62 126.197 175.936 124.657 178.12 124.657C180.29 124.657 181.606 126.197 181.606 128.423C181.606 130.649 180.29 132.189 178.12 132.189ZM178.12 131.209C179.716 131.209 180.486 129.949 180.486 128.423C180.486 126.897 179.716 125.637 178.12 125.637C176.51 125.637 175.74 126.897 175.74 128.423C175.74 129.949 176.51 131.209 178.12 131.209ZM186.237 124.657C187.539 124.657 188.631 125.371 188.631 127.009V131.993H187.511V127.289C187.511 126.365 187.077 125.637 185.957 125.637C184.697 125.637 183.857 126.435 183.857 127.541V131.993H182.737V124.853H183.857V125.707H183.885C184.263 125.203 185.019 124.657 186.237 124.657Z" fill="white"/>
<rect x="194" y="118.993" width="27" height="16" rx="8" fill="#CA9FFF"/>
<rect x="206" y="119.993" width="14" height="14" rx="7" fill="white"/>
<g clip-path="url(#clip0_368_1065)">
<g clip-path="url(#clip1_368_1065)">
<rect width="201" height="31" transform="translate(17 146.993)" fill="#CA9FFF"/>
<path d="M81.1938 167.993V158.905H77.8658V156.553H87.3858V158.905H84.0738V167.993H81.1938ZM88.4403 167.993V156.553H93.8323C96.3763 156.553 97.9123 157.721 97.9123 159.881C97.9123 161.401 97.0163 162.361 95.5923 162.681V162.713C98.4563 163.209 97.4163 167.641 98.0723 167.833V167.993H95.0803C94.5203 167.513 95.5603 164.009 93.1123 164.009H91.3203V167.993H88.4403ZM91.3203 158.905V161.657H93.2723C94.4243 161.657 95.0323 161.241 95.0323 160.281C95.0323 159.321 94.4243 158.905 93.2723 158.905H91.3203ZM106.067 165.609H102.147L101.411 167.993H98.5309L102.675 156.553H105.555L109.683 167.993H106.803L106.067 165.609ZM102.803 163.417H105.427L104.131 159.193H104.099L102.803 163.417ZM117.032 160.809C116.824 159.561 116.248 158.649 114.728 158.649C112.824 158.649 112.184 160.121 112.184 162.265C112.184 164.425 112.824 165.897 114.728 165.897C116.264 165.897 116.84 164.985 117.032 163.705H119.912C119.656 166.393 117.992 168.249 114.856 168.249C111.24 168.249 109.304 165.721 109.304 162.265C109.304 158.825 111.24 156.297 114.856 156.297C117.976 156.297 119.64 158.153 119.912 160.809H117.032ZM120.925 156.553H123.805V161.193L127.789 156.553H131.149L126.797 161.593L131.309 167.993H127.949L124.957 163.657L123.805 164.969V167.993H120.925V156.553ZM134.8 167.993V156.553H138.32L140.672 163.849H140.704L143.056 156.553H146.576V167.993H143.856V160.873H143.824L141.696 167.993H139.68L137.552 160.873H137.52V167.993H134.8ZM151.023 160.937H156.015V163.289H151.023V165.641H156.911V167.993H148.143V156.553H156.815V158.905H151.023V160.937Z" fill="#1E1E1E"/>
</g>
<g opacity="0.6">
<path d="M61.8893 199.121C61.6013 197.761 60.5453 196.945 58.8493 196.945C56.4013 196.945 55.3933 199.121 55.3933 201.265C55.3933 203.425 56.1773 205.601 58.7853 205.601C60.5933 205.601 62.0333 204.353 62.0493 202.529H58.8173V200.993H63.9853V206.993H62.6733L62.2573 205.425H62.2253C61.4573 206.577 60.3853 207.233 58.6573 207.233C55.3453 207.233 53.4893 204.721 53.4893 201.265C53.4893 197.825 55.5693 195.313 58.8653 195.313C61.8413 195.313 63.4413 196.929 63.7933 199.121H61.8893ZM65.7971 195.553H67.7011V206.993H65.7971V195.553ZM68.7913 195.553H70.8073L73.7193 204.913H73.7353L76.6473 195.553H78.6633L74.7593 206.993H72.6953L68.7913 195.553ZM81.6378 200.273H87.2218V201.905H81.6378V205.377H88.1658V206.993H79.7338V195.553H88.0058V197.169H81.6378V200.273ZM92.7651 206.993V195.553H95.2291L98.4291 204.353H98.4611L101.645 195.553H104.109V206.993H102.253V198.321H102.221L99.1971 206.993H97.6771L94.6531 198.321H94.6211V206.993H92.7651ZM107.966 200.273H113.55V201.905H107.966V205.377H114.494V206.993H106.062V195.553H114.334V197.169H107.966V200.273ZM119.093 206.993V195.553H123.957C126.149 195.553 127.733 196.577 127.733 198.977C127.733 201.377 126.149 202.417 123.957 202.417H120.997V206.993H119.093ZM120.997 197.169V200.785H123.877C125.157 200.785 125.829 200.241 125.829 198.977C125.829 197.729 125.157 197.169 123.877 197.169H120.997ZM128.999 206.993V195.553H133.879C136.231 195.553 137.751 196.753 137.751 198.833C137.751 200.433 136.935 201.361 135.623 201.681V201.713C138.263 202.209 137.303 206.689 137.911 206.881V206.993H135.911C135.383 206.513 136.455 202.577 133.703 202.577H130.903V206.993H128.999ZM130.903 197.169V200.945H133.479C134.647 200.945 135.863 200.721 135.863 199.057C135.863 197.409 134.647 197.169 133.479 197.169H130.903ZM139.344 195.553H141.248V206.993H139.344V195.553ZM142.338 195.553H144.354L147.266 204.913H147.282L150.194 195.553H152.21L148.306 206.993H146.242L142.338 195.553ZM158.765 204.289H154.093L153.165 206.993H151.229L155.437 195.553H157.437L161.629 206.993H159.693L158.765 204.289ZM154.621 202.705H158.253L156.461 197.297H156.429L154.621 202.705ZM170.077 199.489C169.869 198.337 169.117 196.945 167.005 196.945C164.541 196.945 163.565 199.009 163.565 201.265C163.565 203.537 164.541 205.601 167.005 205.601C169.133 205.601 169.949 204.209 170.077 202.817H171.981C171.725 205.393 169.965 207.233 167.053 207.233C163.757 207.233 161.677 204.721 161.677 201.265C161.677 197.825 163.757 195.313 167.053 195.313C169.949 195.313 171.709 197.153 171.981 199.489H170.077ZM171.917 195.553H173.949L176.909 200.865H176.941L179.917 195.553H181.949L177.885 202.449V206.993H175.981V202.449L171.917 195.553Z" fill="white"/>
</g>
</g>
<defs>
<clipPath id="clip0_368_1065">
<rect x="17" y="146.993" width="201" height="70" rx="4" fill="white"/>
</clipPath>
<clipPath id="clip1_368_1065">
<rect x="17" y="146.993" width="201" height="31" rx="4" fill="white"/>
</clipPath>
</defs>
</svg>
