<svg width="235" height="236" viewBox="0 0 235 236" fill="none" xmlns="http://www.w3.org/2000/svg">
<path d="M1 13C1 6.37259 6.37258 1 13 1H222C228.627 1 234 6.37258 234 13V222.993C234 229.621 228.627 234.993 222 234.993H13C6.37259 234.993 1 229.621 1 222.993V13Z" fill="white"/>
<path d="M222 0.5C228.904 0.500003 234.5 6.09644 234.5 13V222.993C234.5 229.897 228.904 235.493 222 235.493H13C6.09644 235.493 0.5 229.897 0.5 222.993V13C0.500002 6.09644 6.09644 0.5 13 0.5H222Z" stroke="#E0E0E0" stroke-opacity="0.3"/>
<path d="M25 20.3334V29.6667M20.3333 25H29.6666" stroke="#1E1E1E" stroke-width="1.5" stroke-linecap="round" stroke-linejoin="round"/>
<path d="M39.9023 30V19.8145H46.0547V20.9082H41.1328V24.3125H45.7266V25.4062H41.1328V28.9062H46.123V30H39.9023ZM52.8633 24.0801L51.8105 24.3672C51.7103 24.1074 51.5371 23.8613 51.291 23.6289C51.0495 23.3919 50.6712 23.2734 50.1562 23.2734C49.6914 23.2734 49.304 23.3828 48.9941 23.6016C48.6842 23.8158 48.5293 24.0846 48.5293 24.4082C48.5293 24.6999 48.6341 24.9323 48.8438 25.1055C49.0579 25.2786 49.3906 25.4199 49.8418 25.5293L50.9766 25.8027C51.6556 25.9668 52.1615 26.2197 52.4941 26.5615C52.8314 26.9033 53 27.3385 53 27.8672C53 28.3047 52.8747 28.6966 52.624 29.043C52.3734 29.3893 52.0247 29.6628 51.5781 29.8633C51.1315 30.0638 50.612 30.1641 50.0195 30.1641C49.2402 30.1641 48.5954 29.9932 48.085 29.6514C47.5791 29.3096 47.2578 28.8151 47.1211 28.168L48.2285 27.8945C48.3333 28.3047 48.5339 28.6123 48.8301 28.8174C49.1309 29.0225 49.5228 29.125 50.0059 29.125C50.5482 29.125 50.9811 29.0088 51.3047 28.7764C51.6328 28.5394 51.7969 28.2591 51.7969 27.9355C51.7969 27.3978 51.4186 27.0378 50.6621 26.8555L49.3906 26.5547C48.6888 26.3861 48.1738 26.1286 47.8457 25.7822C47.5176 25.4359 47.3535 25.0007 47.3535 24.4766C47.3535 24.0436 47.4743 23.6608 47.7158 23.3281C47.9619 22.9954 48.2969 22.7357 48.7207 22.5488C49.1445 22.3574 49.623 22.2617 50.1562 22.2617C50.9173 22.2617 51.512 22.4303 51.9404 22.7676C52.3734 23.1003 52.681 23.5378 52.8633 24.0801ZM59.5215 24.0801L58.4688 24.3672C58.3685 24.1074 58.1953 23.8613 57.9492 23.6289C57.7077 23.3919 57.3294 23.2734 56.8145 23.2734C56.3496 23.2734 55.9622 23.3828 55.6523 23.6016C55.3424 23.8158 55.1875 24.0846 55.1875 24.4082C55.1875 24.6999 55.2923 24.9323 55.502 25.1055C55.7161 25.2786 56.0488 25.4199 56.5 25.5293L57.6348 25.8027C58.3138 25.9668 58.8197 26.2197 59.1523 26.5615C59.4896 26.9033 59.6582 27.3385 59.6582 27.8672C59.6582 28.3047 59.5329 28.6966 59.2822 29.043C59.0316 29.3893 58.6829 29.6628 58.2363 29.8633C57.7897 30.0638 57.2702 30.1641 56.6777 30.1641C55.8984 30.1641 55.2536 29.9932 54.7432 29.6514C54.2373 29.3096 53.916 28.8151 53.7793 28.168L54.8867 27.8945C54.9915 28.3047 55.1921 28.6123 55.4883 28.8174C55.7891 29.0225 56.181 29.125 56.6641 29.125C57.2064 29.125 57.6393 29.0088 57.9629 28.7764C58.291 28.5394 58.4551 28.2591 58.4551 27.9355C58.4551 27.3978 58.0768 27.0378 57.3203 26.8555L56.0488 26.5547C55.347 26.3861 54.832 26.1286 54.5039 25.7822C54.1758 25.4359 54.0117 25.0007 54.0117 24.4766C54.0117 24.0436 54.1325 23.6608 54.374 23.3281C54.6201 22.9954 54.9551 22.7357 55.3789 22.5488C55.8027 22.3574 56.2812 22.2617 56.8145 22.2617C57.5755 22.2617 58.1702 22.4303 58.5986 22.7676C59.0316 23.1003 59.3392 23.5378 59.5215 24.0801ZM63.9785 30.1641C63.2448 30.1641 62.609 30 62.0713 29.6719C61.5381 29.3438 61.1279 28.8857 60.8408 28.2979C60.5537 27.7054 60.4102 27.0195 60.4102 26.2402C60.4102 25.4564 60.5514 24.766 60.834 24.1689C61.1165 23.5719 61.513 23.1048 62.0234 22.7676C62.5384 22.4303 63.14 22.2617 63.8281 22.2617C64.2246 22.2617 64.6188 22.3278 65.0107 22.46C65.4027 22.5921 65.7581 22.8063 66.0771 23.1025C66.4007 23.3988 66.6582 23.7907 66.8496 24.2783C67.041 24.766 67.1367 25.3652 67.1367 26.0762V26.582H61.2441V25.5703H66.501L65.9609 25.9531C65.9609 25.4427 65.8812 24.9893 65.7217 24.5928C65.5622 24.1963 65.3229 23.8841 65.0039 23.6562C64.6895 23.4284 64.2975 23.3145 63.8281 23.3145C63.3587 23.3145 62.9554 23.4307 62.6182 23.6631C62.2855 23.891 62.0303 24.1895 61.8525 24.5586C61.6748 24.9277 61.5859 25.3242 61.5859 25.748V26.418C61.5859 26.9967 61.6862 27.4867 61.8867 27.8877C62.0872 28.2887 62.3675 28.5941 62.7275 28.8037C63.0876 29.0088 63.5046 29.1113 63.9785 29.1113C64.2839 29.1113 64.5618 29.068 64.8125 28.9814C65.0632 28.8903 65.2796 28.7559 65.4619 28.5781C65.6442 28.3958 65.7832 28.1725 65.8789 27.9082L67.0137 28.2363C66.8952 28.6191 66.6947 28.9564 66.4121 29.248C66.1341 29.5352 65.7878 29.7607 65.373 29.9248C64.9583 30.0843 64.4935 30.1641 63.9785 30.1641ZM69.4062 25.4062V30H68.2441V22.3574H69.3652V23.5605H69.4746C69.6523 23.1686 69.9235 22.8542 70.2881 22.6172C70.6527 22.3802 71.1243 22.2617 71.7031 22.2617C72.2181 22.2617 72.6693 22.3665 73.0566 22.5762C73.444 22.7858 73.7448 23.1048 73.959 23.5332C74.1777 23.957 74.2871 24.4948 74.2871 25.1465V30H73.125V25.2285C73.125 24.6315 72.9678 24.1644 72.6533 23.8271C72.3389 23.4854 71.9105 23.3145 71.3682 23.3145C70.9945 23.3145 70.6595 23.3965 70.3633 23.5605C70.0671 23.7246 69.8324 23.9616 69.6592 24.2715C69.4906 24.5814 69.4062 24.9596 69.4062 25.4062ZM79.0996 22.3574V23.3555H75.1484V22.3574H79.0996ZM76.2969 20.5391H77.459V27.8125C77.459 28.209 77.541 28.5007 77.7051 28.6875C77.8691 28.8698 78.1289 28.9609 78.4844 28.9609C78.5618 28.9609 78.6416 28.9564 78.7236 28.9473C78.8102 28.9382 78.9036 28.9245 79.0039 28.9062L79.25 29.959C79.1406 30 79.0062 30.0319 78.8467 30.0547C78.6917 30.082 78.5345 30.0957 78.375 30.0957C77.7598 30.0957 77.2585 29.9134 76.8711 29.5488C76.4883 29.1842 76.2969 28.7103 76.2969 28.127V20.5391ZM80.2207 30V22.3574H81.3828V30H80.2207ZM80.8086 21.0859C80.5807 21.0859 80.3848 21.0085 80.2207 20.8535C80.0566 20.6986 79.9746 20.5117 79.9746 20.293C79.9746 20.0742 80.0566 19.8874 80.2207 19.7324C80.3848 19.5775 80.5807 19.5 80.8086 19.5C81.0365 19.5 81.2324 19.5775 81.3965 19.7324C81.5605 19.8874 81.6426 20.0742 81.6426 20.293C81.6426 20.5117 81.5605 20.6986 81.3965 20.8535C81.2324 21.0085 81.0365 21.0859 80.8086 21.0859ZM85.1289 30.1777C84.6458 30.1777 84.2061 30.0866 83.8096 29.9043C83.4131 29.7174 83.0986 29.4486 82.8662 29.0977C82.6338 28.7467 82.5176 28.3229 82.5176 27.8262C82.5176 27.3887 82.6042 27.0355 82.7773 26.7666C82.9505 26.4932 83.1807 26.279 83.4678 26.124C83.7594 25.9645 84.0785 25.846 84.4248 25.7686C84.7757 25.6911 85.1289 25.6296 85.4844 25.584C85.9492 25.5247 86.3252 25.4792 86.6123 25.4473C86.904 25.4154 87.1159 25.3607 87.248 25.2832C87.3848 25.2057 87.4531 25.0736 87.4531 24.8867V24.8457C87.4531 24.3581 87.3187 23.9798 87.0498 23.7109C86.7855 23.4375 86.3822 23.3008 85.8398 23.3008C85.2839 23.3008 84.8464 23.4238 84.5273 23.6699C84.2083 23.9115 83.985 24.1712 83.8574 24.4492L82.7363 24.0527C82.9368 23.5879 83.2035 23.2256 83.5361 22.9658C83.8734 22.7061 84.238 22.5238 84.6299 22.4189C85.0264 22.3141 85.416 22.2617 85.7988 22.2617C86.0449 22.2617 86.3275 22.2913 86.6465 22.3506C86.9655 22.4053 87.2754 22.5238 87.5762 22.7061C87.8815 22.8838 88.1322 23.1549 88.3281 23.5195C88.5286 23.8796 88.6289 24.3626 88.6289 24.9688V30H87.4531V28.9609H87.3984C87.321 29.125 87.1888 29.3027 87.002 29.4941C86.8151 29.681 86.5667 29.8428 86.2568 29.9795C85.9515 30.1117 85.5755 30.1777 85.1289 30.1777ZM85.3066 29.125C85.7715 29.125 86.1634 29.0339 86.4824 28.8516C86.8014 28.6693 87.043 28.4346 87.207 28.1475C87.3711 27.8558 87.4531 27.5527 87.4531 27.2383V26.1582C87.403 26.2174 87.2936 26.2721 87.125 26.3223C86.9609 26.3678 86.7695 26.4089 86.5508 26.4453C86.3366 26.4818 86.127 26.5137 85.9219 26.541C85.7168 26.5638 85.5527 26.582 85.4297 26.5957C85.1243 26.6367 84.8395 26.7028 84.5752 26.7939C84.3109 26.8805 84.0967 27.0104 83.9326 27.1836C83.7731 27.3568 83.6934 27.5938 83.6934 27.8945C83.6934 28.3001 83.8438 28.6077 84.1445 28.8174C84.4499 29.0225 84.8372 29.125 85.3066 29.125ZM91.2949 19.8145V30H90.1328V19.8145H91.2949ZM99.1699 30.1641C98.459 30.1641 97.8438 29.9954 97.3242 29.6582C96.8092 29.3164 96.4105 28.8493 96.1279 28.2568C95.8499 27.6644 95.7109 26.9876 95.7109 26.2266C95.7109 25.4473 95.8545 24.7614 96.1416 24.1689C96.4287 23.5719 96.8298 23.1048 97.3447 22.7676C97.8643 22.4303 98.4681 22.2617 99.1562 22.2617C99.694 22.2617 100.177 22.362 100.605 22.5625C101.038 22.7585 101.392 23.0365 101.665 23.3965C101.943 23.7565 102.114 24.1758 102.178 24.6543H101.002C100.943 24.4219 100.836 24.2031 100.681 23.998C100.526 23.793 100.321 23.6289 100.065 23.5059C99.8148 23.3783 99.5163 23.3145 99.1699 23.3145C98.7142 23.3145 98.3154 23.4329 97.9736 23.6699C97.6318 23.9069 97.3652 24.2419 97.1738 24.6748C96.9824 25.1032 96.8867 25.6068 96.8867 26.1855C96.8867 26.7734 96.9801 27.2884 97.167 27.7305C97.3538 28.168 97.6182 28.5075 97.96 28.749C98.3063 28.9906 98.7096 29.1113 99.1699 29.1113C99.6302 29.1113 100.024 28.9928 100.353 28.7559C100.681 28.5143 100.897 28.1862 101.002 27.7715H102.178C102.114 28.2227 101.95 28.6283 101.686 28.9883C101.426 29.3483 101.082 29.6354 100.653 29.8496C100.229 30.0592 99.735 30.1641 99.1699 30.1641ZM106.375 30.1641C105.687 30.1641 105.083 30 104.563 29.6719C104.044 29.3438 103.638 28.8835 103.347 28.291C103.06 27.6986 102.916 27.0104 102.916 26.2266C102.916 25.429 103.06 24.734 103.347 24.1416C103.638 23.5446 104.044 23.082 104.563 22.7539C105.083 22.4258 105.687 22.2617 106.375 22.2617C107.068 22.2617 107.674 22.4258 108.193 22.7539C108.713 23.082 109.118 23.5446 109.41 24.1416C109.702 24.734 109.848 25.429 109.848 26.2266C109.848 27.0104 109.702 27.6986 109.41 28.291C109.118 28.8835 108.713 29.3438 108.193 29.6719C107.674 30 107.068 30.1641 106.375 30.1641ZM106.375 29.1113C106.904 29.1113 107.337 28.9769 107.674 28.708C108.011 28.4391 108.262 28.0859 108.426 27.6484C108.59 27.2064 108.672 26.7324 108.672 26.2266C108.672 25.7116 108.59 25.2331 108.426 24.791C108.262 24.349 108.011 23.9935 107.674 23.7246C107.337 23.4512 106.904 23.3145 106.375 23.3145C105.855 23.3145 105.427 23.4512 105.09 23.7246C104.753 23.9935 104.502 24.349 104.338 24.791C104.174 25.2331 104.092 25.7116 104.092 26.2266C104.092 26.7324 104.174 27.2064 104.338 27.6484C104.502 28.0859 104.753 28.4391 105.09 28.708C105.427 28.9769 105.855 29.1113 106.375 29.1113ZM114.072 30.1641C113.384 30.1641 112.78 30 112.261 29.6719C111.741 29.3438 111.336 28.8835 111.044 28.291C110.757 27.6986 110.613 27.0104 110.613 26.2266C110.613 25.429 110.757 24.734 111.044 24.1416C111.336 23.5446 111.741 23.082 112.261 22.7539C112.78 22.4258 113.384 22.2617 114.072 22.2617C114.765 22.2617 115.371 22.4258 115.891 22.7539C116.41 23.082 116.816 23.5446 117.107 24.1416C117.399 24.734 117.545 25.429 117.545 26.2266C117.545 27.0104 117.399 27.6986 117.107 28.291C116.816 28.8835 116.41 29.3438 115.891 29.6719C115.371 30 114.765 30.1641 114.072 30.1641ZM114.072 29.1113C114.601 29.1113 115.034 28.9769 115.371 28.708C115.708 28.4391 115.959 28.0859 116.123 27.6484C116.287 27.2064 116.369 26.7324 116.369 26.2266C116.369 25.7116 116.287 25.2331 116.123 24.791C115.959 24.349 115.708 23.9935 115.371 23.7246C115.034 23.4512 114.601 23.3145 114.072 23.3145C113.553 23.3145 113.124 23.4512 112.787 23.7246C112.45 23.9935 112.199 24.349 112.035 24.791C111.871 25.2331 111.789 25.7116 111.789 26.2266C111.789 26.7324 111.871 27.2064 112.035 27.6484C112.199 28.0859 112.45 28.4391 112.787 28.708C113.124 28.9769 113.553 29.1113 114.072 29.1113ZM119.773 27.2109L119.746 25.7617H119.992L123.328 22.3574H124.777L121.223 25.9668H121.113L119.773 27.2109ZM118.68 30V19.8145H119.842V30H118.68ZM123.52 30L120.539 26.2266L121.373 25.4062L125.023 30H123.52ZM125.639 30V22.3574H126.801V30H125.639ZM126.227 21.0859C125.999 21.0859 125.803 21.0085 125.639 20.8535C125.475 20.6986 125.393 20.5117 125.393 20.293C125.393 20.0742 125.475 19.8874 125.639 19.7324C125.803 19.5775 125.999 19.5 126.227 19.5C126.454 19.5 126.65 19.5775 126.814 19.7324C126.979 19.8874 127.061 20.0742 127.061 20.293C127.061 20.5117 126.979 20.6986 126.814 20.8535C126.65 21.0085 126.454 21.0859 126.227 21.0859ZM131.504 30.1641C130.77 30.1641 130.134 30 129.597 29.6719C129.063 29.3438 128.653 28.8857 128.366 28.2979C128.079 27.7054 127.936 27.0195 127.936 26.2402C127.936 25.4564 128.077 24.766 128.359 24.1689C128.642 23.5719 129.038 23.1048 129.549 22.7676C130.064 22.4303 130.665 22.2617 131.354 22.2617C131.75 22.2617 132.144 22.3278 132.536 22.46C132.928 22.5921 133.284 22.8063 133.603 23.1025C133.926 23.3988 134.184 23.7907 134.375 24.2783C134.566 24.766 134.662 25.3652 134.662 26.0762V26.582H128.77V25.5703H134.026L133.486 25.9531C133.486 25.4427 133.407 24.9893 133.247 24.5928C133.088 24.1963 132.848 23.8841 132.529 23.6562C132.215 23.4284 131.823 23.3145 131.354 23.3145C130.884 23.3145 130.481 23.4307 130.144 23.6631C129.811 23.891 129.556 24.1895 129.378 24.5586C129.2 24.9277 129.111 25.3242 129.111 25.748V26.418C129.111 26.9967 129.212 27.4867 129.412 27.8877C129.613 28.2887 129.893 28.5941 130.253 28.8037C130.613 29.0088 131.03 29.1113 131.504 29.1113C131.809 29.1113 132.087 29.068 132.338 28.9814C132.589 28.8903 132.805 28.7559 132.987 28.5781C133.17 28.3958 133.309 28.1725 133.404 27.9082L134.539 28.2363C134.421 28.6191 134.22 28.9564 133.938 29.248C133.66 29.5352 133.313 29.7607 132.898 29.9248C132.484 30.0843 132.019 30.1641 131.504 30.1641ZM141.17 24.0801L140.117 24.3672C140.017 24.1074 139.844 23.8613 139.598 23.6289C139.356 23.3919 138.978 23.2734 138.463 23.2734C137.998 23.2734 137.611 23.3828 137.301 23.6016C136.991 23.8158 136.836 24.0846 136.836 24.4082C136.836 24.6999 136.941 24.9323 137.15 25.1055C137.365 25.2786 137.697 25.4199 138.148 25.5293L139.283 25.8027C139.962 25.9668 140.468 26.2197 140.801 26.5615C141.138 26.9033 141.307 27.3385 141.307 27.8672C141.307 28.3047 141.181 28.6966 140.931 29.043C140.68 29.3893 140.331 29.6628 139.885 29.8633C139.438 30.0638 138.919 30.1641 138.326 30.1641C137.547 30.1641 136.902 29.9932 136.392 29.6514C135.886 29.3096 135.564 28.8151 135.428 28.168L136.535 27.8945C136.64 28.3047 136.84 28.6123 137.137 28.8174C137.438 29.0225 137.829 29.125 138.312 29.125C138.855 29.125 139.288 29.0088 139.611 28.7764C139.939 28.5394 140.104 28.2591 140.104 27.9355C140.104 27.3978 139.725 27.0378 138.969 26.8555L137.697 26.5547C136.995 26.3861 136.48 26.1286 136.152 25.7822C135.824 25.4359 135.66 25.0007 135.66 24.4766C135.66 24.0436 135.781 23.6608 136.022 23.3281C136.269 22.9954 136.604 22.7357 137.027 22.5488C137.451 22.3574 137.93 22.2617 138.463 22.2617C139.224 22.2617 139.819 22.4303 140.247 22.7676C140.68 23.1003 140.988 23.5378 141.17 24.0801Z" fill="#1E1E1E"/>
<rect x="194" y="17" width="27" height="16" rx="8" fill="#CA9FFF"/>
<rect x="206" y="18" width="14" height="14" rx="7" fill="white"/>
<line x1="16.9989" y1="41.8311" x2="217.994" y2="40.5" stroke="#D9D9D9"/>
<path d="M25 53.6644V62.9978M20.3333 58.3311H29.6666" stroke="#1E1E1E" stroke-width="1.5" stroke-linecap="round" stroke-linejoin="round"/>
<path d="M40.3262 63.3311H39.0273L42.7734 53.1455H44.0449L47.7773 63.3311H46.4922L43.4434 54.7588H43.3613L40.3262 63.3311ZM40.8047 59.3525H46.0137V60.4463H40.8047V59.3525ZM51.4277 63.4951C50.7897 63.4951 50.2269 63.3333 49.7393 63.0098C49.2516 62.6862 48.8711 62.2282 48.5977 61.6357C48.3242 61.0387 48.1875 60.3369 48.1875 59.5303C48.1875 58.7282 48.3242 58.0332 48.5977 57.4453C48.8757 56.8529 49.2585 56.3971 49.7461 56.0781C50.2337 55.7546 50.7988 55.5928 51.4414 55.5928C51.9427 55.5928 52.3369 55.6748 52.624 55.8389C52.9157 56.0029 53.139 56.1898 53.2939 56.3994C53.4489 56.6045 53.5697 56.7731 53.6562 56.9053H53.752V53.1455H54.9141V63.3311H53.793V62.1553H53.6562C53.5697 62.292 53.4466 62.4674 53.2871 62.6816C53.1276 62.8913 52.8997 63.0804 52.6035 63.249C52.3118 63.4131 51.9199 63.4951 51.4277 63.4951ZM51.5781 62.4424C52.0521 62.4424 52.4508 62.3193 52.7744 62.0732C53.098 61.8226 53.3441 61.4785 53.5127 61.041C53.6813 60.599 53.7656 60.0908 53.7656 59.5166C53.7656 58.9424 53.6836 58.4411 53.5195 58.0127C53.3555 57.5798 53.1094 57.2448 52.7812 57.0078C52.4577 56.7663 52.0566 56.6455 51.5781 56.6455C51.0859 56.6455 50.6758 56.7731 50.3477 57.0283C50.0195 57.2835 49.7734 57.6276 49.6094 58.0605C49.4453 58.4935 49.3633 58.9788 49.3633 59.5166C49.3633 60.0589 49.4453 60.5511 49.6094 60.9932C49.778 61.4352 50.0264 61.7884 50.3545 62.0527C50.6826 62.3125 51.0905 62.4424 51.5781 62.4424ZM62.6523 55.6885L59.8359 63.3311H58.6328L55.8164 55.6885H57.0879L59.1934 61.7861H59.2754L61.3809 55.6885H62.6523ZM66.4805 63.4951C65.7467 63.4951 65.111 63.3311 64.5732 63.0029C64.04 62.6748 63.6299 62.2168 63.3428 61.6289C63.0557 61.0365 62.9121 60.3506 62.9121 59.5713C62.9121 58.7874 63.0534 58.097 63.3359 57.5C63.6185 56.903 64.015 56.4359 64.5254 56.0986C65.0404 55.7614 65.6419 55.5928 66.3301 55.5928C66.7266 55.5928 67.1208 55.6589 67.5127 55.791C67.9046 55.9232 68.2601 56.1374 68.5791 56.4336C68.9027 56.7298 69.1602 57.1217 69.3516 57.6094C69.543 58.097 69.6387 58.6963 69.6387 59.4072V59.9131H63.7461V58.9014H69.0029L68.4629 59.2842C68.4629 58.7738 68.3831 58.3203 68.2236 57.9238C68.0641 57.5273 67.8249 57.2152 67.5059 56.9873C67.1914 56.7594 66.7995 56.6455 66.3301 56.6455C65.8607 56.6455 65.4574 56.7617 65.1201 56.9941C64.7874 57.222 64.5322 57.5205 64.3545 57.8896C64.1768 58.2588 64.0879 58.6553 64.0879 59.0791V59.749C64.0879 60.3278 64.1882 60.8177 64.3887 61.2188C64.5892 61.6198 64.8695 61.9251 65.2295 62.1348C65.5895 62.3398 66.0065 62.4424 66.4805 62.4424C66.7858 62.4424 67.0638 62.3991 67.3145 62.3125C67.5651 62.2214 67.7816 62.0869 67.9639 61.9092C68.1462 61.7269 68.2852 61.5036 68.3809 61.2393L69.5156 61.5674C69.3971 61.9502 69.1966 62.2874 68.9141 62.5791C68.6361 62.8662 68.2897 63.0918 67.875 63.2559C67.4603 63.4154 66.9954 63.4951 66.4805 63.4951ZM70.7461 63.3311V55.6885H71.8672V56.8506H71.9492C72.0905 56.4723 72.3434 56.167 72.708 55.9346C73.0771 55.6976 73.4896 55.5791 73.9453 55.5791C74.0319 55.5791 74.139 55.5814 74.2666 55.5859C74.3942 55.5859 74.4922 55.5882 74.5605 55.5928V56.7822C74.5195 56.7731 74.4284 56.7594 74.2871 56.7412C74.1458 56.723 73.9954 56.7139 73.8359 56.7139C73.4668 56.7139 73.1364 56.7913 72.8447 56.9463C72.5531 57.1012 72.3229 57.3132 72.1543 57.582C71.9902 57.8509 71.9082 58.1585 71.9082 58.5049V63.3311H70.7461ZM79.0859 55.6885V56.6865H75.1348V55.6885H79.0859ZM76.2832 53.8701H77.4453V61.1436C77.4453 61.54 77.5273 61.8317 77.6914 62.0186C77.8555 62.2008 78.1152 62.292 78.4707 62.292C78.5482 62.292 78.6279 62.2874 78.71 62.2783C78.7965 62.2692 78.89 62.2555 78.9902 62.2373L79.2363 63.29C79.127 63.3311 78.9925 63.363 78.833 63.3857C78.6781 63.4131 78.5208 63.4268 78.3613 63.4268C77.7461 63.4268 77.2448 63.2445 76.8574 62.8799C76.4746 62.5153 76.2832 62.0413 76.2832 61.458V53.8701ZM80.207 63.3311V55.6885H81.3691V63.3311H80.207ZM80.7949 54.417C80.5671 54.417 80.3711 54.3395 80.207 54.1846C80.043 54.0296 79.9609 53.8428 79.9609 53.624C79.9609 53.4053 80.043 53.2184 80.207 53.0635C80.3711 52.9085 80.5671 52.8311 80.7949 52.8311C81.0228 52.8311 81.2188 52.9085 81.3828 53.0635C81.5469 53.2184 81.6289 53.4053 81.6289 53.624C81.6289 53.8428 81.5469 54.0296 81.3828 54.1846C81.2188 54.3395 81.0228 54.417 80.7949 54.417ZM88.2734 57.4111L87.2207 57.6982C87.1204 57.4385 86.9473 57.1924 86.7012 56.96C86.4596 56.723 86.0814 56.6045 85.5664 56.6045C85.1016 56.6045 84.7142 56.7139 84.4043 56.9326C84.0944 57.1468 83.9395 57.4157 83.9395 57.7393C83.9395 58.0309 84.0443 58.2633 84.2539 58.4365C84.4681 58.6097 84.8008 58.751 85.252 58.8604L86.3867 59.1338C87.0658 59.2979 87.5716 59.5508 87.9043 59.8926C88.2415 60.2344 88.4102 60.6696 88.4102 61.1982C88.4102 61.6357 88.2848 62.0277 88.0342 62.374C87.7835 62.7204 87.4349 62.9938 86.9883 63.1943C86.5417 63.3949 86.0221 63.4951 85.4297 63.4951C84.6504 63.4951 84.0055 63.3242 83.4951 62.9824C82.9893 62.6406 82.668 62.1462 82.5312 61.499L83.6387 61.2256C83.7435 61.6357 83.944 61.9434 84.2402 62.1484C84.541 62.3535 84.9329 62.4561 85.416 62.4561C85.9583 62.4561 86.3913 62.3398 86.7148 62.1074C87.043 61.8704 87.207 61.5902 87.207 61.2666C87.207 60.7288 86.8288 60.3688 86.0723 60.1865L84.8008 59.8857C84.099 59.7171 83.584 59.4596 83.2559 59.1133C82.9277 58.7669 82.7637 58.3317 82.7637 57.8076C82.7637 57.3747 82.8844 56.9919 83.126 56.6592C83.3721 56.3265 83.707 56.0667 84.1309 55.8799C84.5547 55.6885 85.0332 55.5928 85.5664 55.5928C86.3275 55.5928 86.9222 55.7614 87.3506 56.0986C87.7835 56.4313 88.0911 56.8688 88.2734 57.4111ZM89.5312 63.3311V55.6885H90.6934V63.3311H89.5312ZM90.1191 54.417C89.8913 54.417 89.6953 54.3395 89.5312 54.1846C89.3672 54.0296 89.2852 53.8428 89.2852 53.624C89.2852 53.4053 89.3672 53.2184 89.5312 53.0635C89.6953 52.9085 89.8913 52.8311 90.1191 52.8311C90.347 52.8311 90.543 52.9085 90.707 53.0635C90.8711 53.2184 90.9531 53.4053 90.9531 53.624C90.9531 53.8428 90.8711 54.0296 90.707 54.1846C90.543 54.3395 90.347 54.417 90.1191 54.417ZM93.3594 58.7373V63.3311H92.1973V55.6885H93.3184V56.8916H93.4277C93.6055 56.4997 93.8766 56.1852 94.2412 55.9482C94.6058 55.7113 95.0775 55.5928 95.6562 55.5928C96.1712 55.5928 96.6224 55.6976 97.0098 55.9072C97.3971 56.1169 97.6979 56.4359 97.9121 56.8643C98.1309 57.2881 98.2402 57.8258 98.2402 58.4775V63.3311H97.0781V58.5596C97.0781 57.9626 96.9209 57.4954 96.6064 57.1582C96.292 56.8164 95.8636 56.6455 95.3213 56.6455C94.9476 56.6455 94.6126 56.7275 94.3164 56.8916C94.0202 57.0557 93.7855 57.2926 93.6123 57.6025C93.4437 57.9124 93.3594 58.2907 93.3594 58.7373ZM102.82 66.3525C101.968 66.3525 101.294 66.1976 100.797 65.8877C100.305 65.5778 99.9401 65.2223 99.7031 64.8213L100.633 64.165C100.738 64.3063 100.872 64.4658 101.036 64.6436C101.2 64.8258 101.424 64.9831 101.706 65.1152C101.989 65.2474 102.36 65.3135 102.82 65.3135C103.436 65.3135 103.944 65.1654 104.345 64.8691C104.75 64.5729 104.953 64.1058 104.953 63.4678V61.9229H104.844C104.762 62.0596 104.641 62.2305 104.481 62.4355C104.326 62.6361 104.101 62.8161 103.805 62.9756C103.513 63.1305 103.117 63.208 102.615 63.208C102 63.208 101.449 63.0622 100.961 62.7705C100.473 62.4788 100.086 62.055 99.7988 61.499C99.5163 60.943 99.375 60.2686 99.375 59.4756C99.375 58.6917 99.5117 58.0104 99.7852 57.4316C100.063 56.8483 100.448 56.3971 100.94 56.0781C101.433 55.7546 102 55.5928 102.643 55.5928C103.139 55.5928 103.534 55.6748 103.825 55.8389C104.121 56.0029 104.347 56.1898 104.502 56.3994C104.661 56.6045 104.785 56.7731 104.871 56.9053H104.994V55.6885H106.115V63.5498C106.115 64.2061 105.967 64.7393 105.671 65.1494C105.379 65.5641 104.983 65.8672 104.481 66.0586C103.985 66.2546 103.431 66.3525 102.82 66.3525ZM102.779 62.1553C103.486 62.1553 104.026 61.916 104.399 61.4375C104.778 60.959 104.967 60.2959 104.967 59.4482C104.967 58.8968 104.885 58.4115 104.721 57.9922C104.557 57.5729 104.311 57.2448 103.982 57.0078C103.659 56.7663 103.258 56.6455 102.779 56.6455C102.283 56.6455 101.868 56.7731 101.535 57.0283C101.207 57.279 100.961 57.6162 100.797 58.04C100.633 58.4639 100.551 58.9333 100.551 59.4482C100.551 59.9769 100.633 60.4463 100.797 60.8564C100.965 61.262 101.216 61.5811 101.549 61.8135C101.882 62.0413 102.292 62.1553 102.779 62.1553ZM113.99 63.4951C113.279 63.4951 112.664 63.3265 112.145 62.9893C111.63 62.6475 111.231 62.1803 110.948 61.5879C110.67 60.9954 110.531 60.3187 110.531 59.5576C110.531 58.7783 110.675 58.0924 110.962 57.5C111.249 56.903 111.65 56.4359 112.165 56.0986C112.685 55.7614 113.288 55.5928 113.977 55.5928C114.514 55.5928 114.997 55.693 115.426 55.8936C115.859 56.0895 116.212 56.3675 116.485 56.7275C116.763 57.0876 116.934 57.5068 116.998 57.9854H115.822C115.763 57.7529 115.656 57.5342 115.501 57.3291C115.346 57.124 115.141 56.96 114.886 56.8369C114.635 56.7093 114.337 56.6455 113.99 56.6455C113.535 56.6455 113.136 56.764 112.794 57.001C112.452 57.238 112.186 57.5729 111.994 58.0059C111.803 58.4342 111.707 58.9378 111.707 59.5166C111.707 60.1045 111.8 60.6195 111.987 61.0615C112.174 61.499 112.438 61.8385 112.78 62.0801C113.127 62.3216 113.53 62.4424 113.99 62.4424C114.451 62.4424 114.845 62.3239 115.173 62.0869C115.501 61.8454 115.717 61.5173 115.822 61.1025H116.998C116.934 61.5537 116.77 61.9593 116.506 62.3193C116.246 62.6794 115.902 62.9665 115.474 63.1807C115.05 63.3903 114.555 63.4951 113.99 63.4951ZM121.195 63.4951C120.507 63.4951 119.903 63.3311 119.384 63.0029C118.864 62.6748 118.459 62.2145 118.167 61.6221C117.88 61.0296 117.736 60.3415 117.736 59.5576C117.736 58.7601 117.88 58.0651 118.167 57.4727C118.459 56.8757 118.864 56.4131 119.384 56.085C119.903 55.7568 120.507 55.5928 121.195 55.5928C121.888 55.5928 122.494 55.7568 123.014 56.085C123.533 56.4131 123.939 56.8757 124.23 57.4727C124.522 58.0651 124.668 58.7601 124.668 59.5576C124.668 60.3415 124.522 61.0296 124.23 61.6221C123.939 62.2145 123.533 62.6748 123.014 63.0029C122.494 63.3311 121.888 63.4951 121.195 63.4951ZM121.195 62.4424C121.724 62.4424 122.157 62.3079 122.494 62.0391C122.831 61.7702 123.082 61.417 123.246 60.9795C123.41 60.5374 123.492 60.0635 123.492 59.5576C123.492 59.0426 123.41 58.5641 123.246 58.1221C123.082 57.68 122.831 57.3245 122.494 57.0557C122.157 56.7822 121.724 56.6455 121.195 56.6455C120.676 56.6455 120.247 56.7822 119.91 57.0557C119.573 57.3245 119.322 57.68 119.158 58.1221C118.994 58.5641 118.912 59.0426 118.912 59.5576C118.912 60.0635 118.994 60.5374 119.158 60.9795C119.322 61.417 119.573 61.7702 119.91 62.0391C120.247 62.3079 120.676 62.4424 121.195 62.4424ZM128.893 63.4951C128.204 63.4951 127.601 63.3311 127.081 63.0029C126.562 62.6748 126.156 62.2145 125.864 61.6221C125.577 61.0296 125.434 60.3415 125.434 59.5576C125.434 58.7601 125.577 58.0651 125.864 57.4727C126.156 56.8757 126.562 56.4131 127.081 56.085C127.601 55.7568 128.204 55.5928 128.893 55.5928C129.585 55.5928 130.191 55.7568 130.711 56.085C131.23 56.4131 131.636 56.8757 131.928 57.4727C132.219 58.0651 132.365 58.7601 132.365 59.5576C132.365 60.3415 132.219 61.0296 131.928 61.6221C131.636 62.2145 131.23 62.6748 130.711 63.0029C130.191 63.3311 129.585 63.4951 128.893 63.4951ZM128.893 62.4424C129.421 62.4424 129.854 62.3079 130.191 62.0391C130.529 61.7702 130.779 61.417 130.943 60.9795C131.107 60.5374 131.189 60.0635 131.189 59.5576C131.189 59.0426 131.107 58.5641 130.943 58.1221C130.779 57.68 130.529 57.3245 130.191 57.0557C129.854 56.7822 129.421 56.6455 128.893 56.6455C128.373 56.6455 127.945 56.7822 127.607 57.0557C127.27 57.3245 127.02 57.68 126.855 58.1221C126.691 58.5641 126.609 59.0426 126.609 59.5576C126.609 60.0635 126.691 60.5374 126.855 60.9795C127.02 61.417 127.27 61.7702 127.607 62.0391C127.945 62.3079 128.373 62.4424 128.893 62.4424ZM134.594 60.542L134.566 59.0928H134.812L138.148 55.6885H139.598L136.043 59.2979H135.934L134.594 60.542ZM133.5 63.3311V53.1455H134.662V63.3311H133.5ZM138.34 63.3311L135.359 59.5576L136.193 58.7373L139.844 63.3311H138.34ZM140.459 63.3311V55.6885H141.621V63.3311H140.459ZM141.047 54.417C140.819 54.417 140.623 54.3395 140.459 54.1846C140.295 54.0296 140.213 53.8428 140.213 53.624C140.213 53.4053 140.295 53.2184 140.459 53.0635C140.623 52.9085 140.819 52.8311 141.047 52.8311C141.275 52.8311 141.471 52.9085 141.635 53.0635C141.799 53.2184 141.881 53.4053 141.881 53.624C141.881 53.8428 141.799 54.0296 141.635 54.1846C141.471 54.3395 141.275 54.417 141.047 54.417ZM146.324 63.4951C145.59 63.4951 144.955 63.3311 144.417 63.0029C143.884 62.6748 143.474 62.2168 143.187 61.6289C142.899 61.0365 142.756 60.3506 142.756 59.5713C142.756 58.7874 142.897 58.097 143.18 57.5C143.462 56.903 143.859 56.4359 144.369 56.0986C144.884 55.7614 145.486 55.5928 146.174 55.5928C146.57 55.5928 146.965 55.6589 147.356 55.791C147.748 55.9232 148.104 56.1374 148.423 56.4336C148.746 56.7298 149.004 57.1217 149.195 57.6094C149.387 58.097 149.482 58.6963 149.482 59.4072V59.9131H143.59V58.9014H148.847L148.307 59.2842C148.307 58.7738 148.227 58.3203 148.067 57.9238C147.908 57.5273 147.669 57.2152 147.35 56.9873C147.035 56.7594 146.643 56.6455 146.174 56.6455C145.704 56.6455 145.301 56.7617 144.964 56.9941C144.631 57.222 144.376 57.5205 144.198 57.8896C144.021 58.2588 143.932 58.6553 143.932 59.0791V59.749C143.932 60.3278 144.032 60.8177 144.232 61.2188C144.433 61.6198 144.713 61.9251 145.073 62.1348C145.433 62.3398 145.85 62.4424 146.324 62.4424C146.63 62.4424 146.908 62.3991 147.158 62.3125C147.409 62.2214 147.625 62.0869 147.808 61.9092C147.99 61.7269 148.129 61.5036 148.225 61.2393L149.359 61.5674C149.241 61.9502 149.04 62.2874 148.758 62.5791C148.48 62.8662 148.133 63.0918 147.719 63.2559C147.304 63.4154 146.839 63.4951 146.324 63.4951ZM155.99 57.4111L154.938 57.6982C154.837 57.4385 154.664 57.1924 154.418 56.96C154.176 56.723 153.798 56.6045 153.283 56.6045C152.818 56.6045 152.431 56.7139 152.121 56.9326C151.811 57.1468 151.656 57.4157 151.656 57.7393C151.656 58.0309 151.761 58.2633 151.971 58.4365C152.185 58.6097 152.518 58.751 152.969 58.8604L154.104 59.1338C154.783 59.2979 155.288 59.5508 155.621 59.8926C155.958 60.2344 156.127 60.6696 156.127 61.1982C156.127 61.6357 156.002 62.0277 155.751 62.374C155.5 62.7204 155.152 62.9938 154.705 63.1943C154.258 63.3949 153.739 63.4951 153.146 63.4951C152.367 63.4951 151.722 63.3242 151.212 62.9824C150.706 62.6406 150.385 62.1462 150.248 61.499L151.355 61.2256C151.46 61.6357 151.661 61.9434 151.957 62.1484C152.258 62.3535 152.65 62.4561 153.133 62.4561C153.675 62.4561 154.108 62.3398 154.432 62.1074C154.76 61.8704 154.924 61.5902 154.924 61.2666C154.924 60.7288 154.546 60.3688 153.789 60.1865L152.518 59.8857C151.816 59.7171 151.301 59.4596 150.973 59.1133C150.645 58.7669 150.48 58.3317 150.48 57.8076C150.48 57.3747 150.601 56.9919 150.843 56.6592C151.089 56.3265 151.424 56.0667 151.848 55.8799C152.271 55.6885 152.75 55.5928 153.283 55.5928C154.044 55.5928 154.639 55.7614 155.067 56.0986C155.5 56.4313 155.808 56.8688 155.99 57.4111Z" fill="#1E1E1E"/>
<rect x="194" y="50.3311" width="27" height="16" rx="8" fill="#CA9FFF"/>
<rect x="206" y="51.3311" width="14" height="14" rx="7" fill="white"/>
<line x1="16.9989" y1="75.1622" x2="217.994" y2="73.8311" stroke="#D9D9D9"/>
<path d="M25 86.9956V96.3289M20.3333 91.6623H29.6666" stroke="#1E1E1E" stroke-width="1.5" stroke-linecap="round" stroke-linejoin="round"/>
<path d="M40.3262 96.6622H39.0273L42.7734 86.4767H44.0449L47.7773 96.6622H46.4922L43.4434 88.09H43.3613L40.3262 96.6622ZM40.8047 92.6837H46.0137V93.7775H40.8047V92.6837ZM49.7188 92.0685V96.6622H48.5566V89.0197H49.6777V90.2228H49.7871C49.9648 89.8309 50.236 89.5164 50.6006 89.2794C50.9652 89.0424 51.4368 88.924 52.0156 88.924C52.5306 88.924 52.9818 89.0288 53.3691 89.2384C53.7565 89.448 54.0573 89.767 54.2715 90.1954C54.4902 90.6193 54.5996 91.157 54.5996 91.8087V96.6622H53.4375V91.8907C53.4375 91.2937 53.2803 90.8266 52.9658 90.4894C52.6514 90.1476 52.223 89.9767 51.6807 89.9767C51.307 89.9767 50.972 90.0587 50.6758 90.2228C50.3796 90.3868 50.1449 90.6238 49.9717 90.9337C49.8031 91.2436 49.7188 91.6219 49.7188 92.0685ZM58.3457 96.84C57.8626 96.84 57.4229 96.7488 57.0264 96.5665C56.6299 96.3797 56.3154 96.1108 56.083 95.7599C55.8506 95.409 55.7344 94.9851 55.7344 94.4884C55.7344 94.0509 55.821 93.6977 55.9941 93.4288C56.1673 93.1554 56.3975 92.9412 56.6846 92.7863C56.9762 92.6267 57.2952 92.5083 57.6416 92.4308C57.9925 92.3533 58.3457 92.2918 58.7012 92.2462C59.166 92.187 59.542 92.1414 59.8291 92.1095C60.1208 92.0776 60.3327 92.0229 60.4648 91.9454C60.6016 91.868 60.6699 91.7358 60.6699 91.549V91.5079C60.6699 91.0203 60.5355 90.642 60.2666 90.3732C60.0023 90.0997 59.599 89.963 59.0566 89.963C58.5007 89.963 58.0632 90.0861 57.7441 90.3322C57.4251 90.5737 57.2018 90.8335 57.0742 91.1115L55.9531 90.715C56.1536 90.2501 56.4202 89.8878 56.7529 89.6281C57.0902 89.3683 57.4548 89.186 57.8467 89.0812C58.2432 88.9764 58.6328 88.924 59.0156 88.924C59.2617 88.924 59.5443 88.9536 59.8633 89.0128C60.1823 89.0675 60.4922 89.186 60.793 89.3683C61.0983 89.546 61.349 89.8172 61.5449 90.1818C61.7454 90.5418 61.8457 91.0249 61.8457 91.631V96.6622H60.6699V95.6232H60.6152C60.5378 95.7872 60.4056 95.965 60.2188 96.1564C60.0319 96.3432 59.7835 96.505 59.4736 96.6417C59.1683 96.7739 58.7923 96.84 58.3457 96.84ZM58.5234 95.7872C58.9883 95.7872 59.3802 95.6961 59.6992 95.5138C60.0182 95.3315 60.2598 95.0968 60.4238 94.8097C60.5879 94.518 60.6699 94.215 60.6699 93.9005V92.8204C60.6198 92.8797 60.5104 92.9344 60.3418 92.9845C60.1777 93.0301 59.9863 93.0711 59.7676 93.1075C59.5534 93.144 59.3438 93.1759 59.1387 93.2032C58.9336 93.226 58.7695 93.2443 58.6465 93.2579C58.3411 93.299 58.0563 93.365 57.792 93.4562C57.5277 93.5428 57.3135 93.6726 57.1494 93.8458C56.9899 94.019 56.9102 94.256 56.9102 94.5568C56.9102 94.9624 57.0605 95.27 57.3613 95.4796C57.6667 95.6847 58.054 95.7872 58.5234 95.7872ZM64.5117 86.4767V96.6622H63.3496V86.4767H64.5117ZM66.7676 99.5197C66.5671 99.5242 66.3893 99.5105 66.2344 99.4786C66.0794 99.4467 65.9701 99.4148 65.9062 99.3829L66.207 98.3575L66.3232 98.3849C66.7152 98.476 67.0433 98.4555 67.3076 98.3234C67.5765 98.1958 67.8112 97.8562 68.0117 97.3048L68.2305 96.7032L65.4141 89.0197H66.6855L68.791 95.1173H68.873L70.9785 89.0197H72.25L69.0098 97.7697C68.8639 98.1661 68.6839 98.4943 68.4697 98.754C68.2555 99.0138 68.0072 99.2052 67.7246 99.3282C67.4421 99.4559 67.123 99.5197 66.7676 99.5197ZM76.4609 89.0197V90.0177H72.5098V89.0197H76.4609ZM73.6582 87.2013H74.8203V94.4747C74.8203 94.8712 74.9023 95.1629 75.0664 95.3497C75.2305 95.532 75.4902 95.6232 75.8457 95.6232C75.9232 95.6232 76.0029 95.6186 76.085 95.6095C76.1715 95.6004 76.265 95.5867 76.3652 95.5685L76.6113 96.6212C76.502 96.6622 76.3675 96.6941 76.208 96.7169C76.0531 96.7443 75.8958 96.7579 75.7363 96.7579C75.1211 96.7579 74.6198 96.5756 74.2324 96.2111C73.8496 95.8465 73.6582 95.3725 73.6582 94.7892V87.2013ZM77.582 96.6622V89.0197H78.7441V96.6622H77.582ZM78.1699 87.7482C77.9421 87.7482 77.7461 87.6707 77.582 87.5157C77.418 87.3608 77.3359 87.174 77.3359 86.9552C77.3359 86.7365 77.418 86.5496 77.582 86.3947C77.7461 86.2397 77.9421 86.1622 78.1699 86.1622C78.3978 86.1622 78.5938 86.2397 78.7578 86.3947C78.9219 86.5496 79.0039 86.7365 79.0039 86.9552C79.0039 87.174 78.9219 87.3608 78.7578 87.5157C78.5938 87.6707 78.3978 87.7482 78.1699 87.7482ZM83.3379 96.8263C82.627 96.8263 82.0117 96.6577 81.4922 96.3204C80.9772 95.9786 80.5785 95.5115 80.2959 94.9191C80.0179 94.3266 79.8789 93.6499 79.8789 92.8888C79.8789 92.1095 80.0225 91.4236 80.3096 90.8312C80.5967 90.2342 80.9977 89.767 81.5127 89.4298C82.0322 89.0926 82.6361 88.924 83.3242 88.924C83.862 88.924 84.3451 89.0242 84.7734 89.2247C85.2064 89.4207 85.5596 89.6987 85.833 90.0587C86.111 90.4187 86.2819 90.838 86.3457 91.3165H85.1699C85.1107 91.0841 85.0036 90.8654 84.8486 90.6603C84.6937 90.4552 84.4886 90.2911 84.2334 90.1681C83.9827 90.0405 83.6842 89.9767 83.3379 89.9767C82.8822 89.9767 82.4834 90.0952 82.1416 90.3322C81.7998 90.5691 81.5332 90.9041 81.3418 91.337C81.1504 91.7654 81.0547 92.269 81.0547 92.8478C81.0547 93.4357 81.1481 93.9506 81.335 94.3927C81.5218 94.8302 81.7861 95.1697 82.1279 95.4113C82.4743 95.6528 82.8776 95.7736 83.3379 95.7736C83.7982 95.7736 84.1924 95.6551 84.5205 95.4181C84.8486 95.1766 85.0651 94.8484 85.1699 94.4337H86.3457C86.2819 94.8849 86.1178 95.2905 85.8535 95.6505C85.5938 96.0105 85.2497 96.2976 84.8213 96.5118C84.3975 96.7215 83.903 96.8263 83.3379 96.8263ZM89.6953 96.84C89.2122 96.84 88.7725 96.7488 88.376 96.5665C87.9795 96.3797 87.665 96.1108 87.4326 95.7599C87.2002 95.409 87.084 94.9851 87.084 94.4884C87.084 94.0509 87.1706 93.6977 87.3438 93.4288C87.5169 93.1554 87.7471 92.9412 88.0342 92.7863C88.3258 92.6267 88.6449 92.5083 88.9912 92.4308C89.3421 92.3533 89.6953 92.2918 90.0508 92.2462C90.5156 92.187 90.8916 92.1414 91.1787 92.1095C91.4704 92.0776 91.6823 92.0229 91.8145 91.9454C91.9512 91.868 92.0195 91.7358 92.0195 91.549V91.5079C92.0195 91.0203 91.8851 90.642 91.6162 90.3732C91.3519 90.0997 90.9486 89.963 90.4062 89.963C89.8503 89.963 89.4128 90.0861 89.0938 90.3322C88.7747 90.5737 88.5514 90.8335 88.4238 91.1115L87.3027 90.715C87.5033 90.2501 87.7699 89.8878 88.1025 89.6281C88.4398 89.3683 88.8044 89.186 89.1963 89.0812C89.5928 88.9764 89.9824 88.924 90.3652 88.924C90.6113 88.924 90.8939 88.9536 91.2129 89.0128C91.5319 89.0675 91.8418 89.186 92.1426 89.3683C92.4479 89.546 92.6986 89.8172 92.8945 90.1818C93.0951 90.5418 93.1953 91.0249 93.1953 91.631V96.6622H92.0195V95.6232H91.9648C91.8874 95.7872 91.7552 95.965 91.5684 96.1564C91.3815 96.3432 91.1331 96.505 90.8232 96.6417C90.5179 96.7739 90.1419 96.84 89.6953 96.84ZM89.873 95.7872C90.3379 95.7872 90.7298 95.6961 91.0488 95.5138C91.3678 95.3315 91.6094 95.0968 91.7734 94.8097C91.9375 94.518 92.0195 94.215 92.0195 93.9005V92.8204C91.9694 92.8797 91.86 92.9344 91.6914 92.9845C91.5273 93.0301 91.3359 93.0711 91.1172 93.1075C90.903 93.144 90.6934 93.1759 90.4883 93.2032C90.2832 93.226 90.1191 93.2443 89.9961 93.2579C89.6908 93.299 89.4059 93.365 89.1416 93.4562C88.8773 93.5428 88.6631 93.6726 88.499 93.8458C88.3395 94.019 88.2598 94.256 88.2598 94.5568C88.2598 94.9624 88.4102 95.27 88.7109 95.4796C89.0163 95.6847 89.4036 95.7872 89.873 95.7872ZM95.8613 86.4767V96.6622H94.6992V86.4767H95.8613ZM103.736 96.8263C103.025 96.8263 102.41 96.6577 101.891 96.3204C101.376 95.9786 100.977 95.5115 100.694 94.9191C100.416 94.3266 100.277 93.6499 100.277 92.8888C100.277 92.1095 100.421 91.4236 100.708 90.8312C100.995 90.2342 101.396 89.767 101.911 89.4298C102.431 89.0926 103.035 88.924 103.723 88.924C104.26 88.924 104.743 89.0242 105.172 89.2247C105.605 89.4207 105.958 89.6987 106.231 90.0587C106.509 90.4187 106.68 90.838 106.744 91.3165H105.568C105.509 91.0841 105.402 90.8654 105.247 90.6603C105.092 90.4552 104.887 90.2911 104.632 90.1681C104.381 90.0405 104.083 89.9767 103.736 89.9767C103.281 89.9767 102.882 90.0952 102.54 90.3322C102.198 90.5691 101.932 90.9041 101.74 91.337C101.549 91.7654 101.453 92.269 101.453 92.8478C101.453 93.4357 101.547 93.9506 101.733 94.3927C101.92 94.8302 102.185 95.1697 102.526 95.4113C102.873 95.6528 103.276 95.7736 103.736 95.7736C104.197 95.7736 104.591 95.6551 104.919 95.4181C105.247 95.1766 105.464 94.8484 105.568 94.4337H106.744C106.68 94.8849 106.516 95.2905 106.252 95.6505C105.992 96.0105 105.648 96.2976 105.22 96.5118C104.796 96.7215 104.301 96.8263 103.736 96.8263ZM110.941 96.8263C110.253 96.8263 109.649 96.6622 109.13 96.3341C108.61 96.006 108.205 95.5457 107.913 94.9532C107.626 94.3608 107.482 93.6726 107.482 92.8888C107.482 92.0913 107.626 91.3963 107.913 90.8038C108.205 90.2068 108.61 89.7443 109.13 89.4161C109.649 89.088 110.253 88.924 110.941 88.924C111.634 88.924 112.24 89.088 112.76 89.4161C113.279 89.7443 113.685 90.2068 113.977 90.8038C114.268 91.3963 114.414 92.0913 114.414 92.8888C114.414 93.6726 114.268 94.3608 113.977 94.9532C113.685 95.5457 113.279 96.006 112.76 96.3341C112.24 96.6622 111.634 96.8263 110.941 96.8263ZM110.941 95.7736C111.47 95.7736 111.903 95.6391 112.24 95.3702C112.577 95.1014 112.828 94.7482 112.992 94.3107C113.156 93.8686 113.238 93.3947 113.238 92.8888C113.238 92.3738 113.156 91.8953 112.992 91.4532C112.828 91.0112 112.577 90.6557 112.24 90.3868C111.903 90.1134 111.47 89.9767 110.941 89.9767C110.422 89.9767 109.993 90.1134 109.656 90.3868C109.319 90.6557 109.068 91.0112 108.904 91.4532C108.74 91.8953 108.658 92.3738 108.658 92.8888C108.658 93.3947 108.74 93.8686 108.904 94.3107C109.068 94.7482 109.319 95.1014 109.656 95.3702C109.993 95.6391 110.422 95.7736 110.941 95.7736ZM118.639 96.8263C117.951 96.8263 117.347 96.6622 116.827 96.3341C116.308 96.006 115.902 95.5457 115.61 94.9532C115.323 94.3608 115.18 93.6726 115.18 92.8888C115.18 92.0913 115.323 91.3963 115.61 90.8038C115.902 90.2068 116.308 89.7443 116.827 89.4161C117.347 89.088 117.951 88.924 118.639 88.924C119.331 88.924 119.938 89.088 120.457 89.4161C120.977 89.7443 121.382 90.2068 121.674 90.8038C121.965 91.3963 122.111 92.0913 122.111 92.8888C122.111 93.6726 121.965 94.3608 121.674 94.9532C121.382 95.5457 120.977 96.006 120.457 96.3341C119.938 96.6622 119.331 96.8263 118.639 96.8263ZM118.639 95.7736C119.167 95.7736 119.6 95.6391 119.938 95.3702C120.275 95.1014 120.525 94.7482 120.689 94.3107C120.854 93.8686 120.936 93.3947 120.936 92.8888C120.936 92.3738 120.854 91.8953 120.689 91.4532C120.525 91.0112 120.275 90.6557 119.938 90.3868C119.6 90.1134 119.167 89.9767 118.639 89.9767C118.119 89.9767 117.691 90.1134 117.354 90.3868C117.016 90.6557 116.766 91.0112 116.602 91.4532C116.438 91.8953 116.355 92.3738 116.355 92.8888C116.355 93.3947 116.438 93.8686 116.602 94.3107C116.766 94.7482 117.016 95.1014 117.354 95.3702C117.691 95.6391 118.119 95.7736 118.639 95.7736ZM124.34 93.8732L124.312 92.424H124.559L127.895 89.0197H129.344L125.789 92.629H125.68L124.34 93.8732ZM123.246 96.6622V86.4767H124.408V96.6622H123.246ZM128.086 96.6622L125.105 92.8888L125.939 92.0685L129.59 96.6622H128.086ZM130.205 96.6622V89.0197H131.367V96.6622H130.205ZM130.793 87.7482C130.565 87.7482 130.369 87.6707 130.205 87.5157C130.041 87.3608 129.959 87.174 129.959 86.9552C129.959 86.7365 130.041 86.5496 130.205 86.3947C130.369 86.2397 130.565 86.1622 130.793 86.1622C131.021 86.1622 131.217 86.2397 131.381 86.3947C131.545 86.5496 131.627 86.7365 131.627 86.9552C131.627 87.174 131.545 87.3608 131.381 87.5157C131.217 87.6707 131.021 87.7482 130.793 87.7482ZM136.07 96.8263C135.337 96.8263 134.701 96.6622 134.163 96.3341C133.63 96.006 133.22 95.548 132.933 94.9601C132.646 94.3676 132.502 93.6818 132.502 92.9025C132.502 92.1186 132.643 91.4282 132.926 90.8312C133.208 90.2342 133.605 89.767 134.115 89.4298C134.63 89.0926 135.232 88.924 135.92 88.924C136.316 88.924 136.711 88.99 137.103 89.1222C137.494 89.2544 137.85 89.4685 138.169 89.7648C138.493 90.061 138.75 90.4529 138.941 90.9406C139.133 91.4282 139.229 92.0275 139.229 92.7384V93.2443H133.336V92.2325H138.593L138.053 92.6154C138.053 92.1049 137.973 91.6515 137.813 91.255C137.654 90.8585 137.415 90.5463 137.096 90.3185C136.781 90.0906 136.389 89.9767 135.92 89.9767C135.451 89.9767 135.047 90.0929 134.71 90.3253C134.377 90.5532 134.122 90.8517 133.944 91.2208C133.767 91.59 133.678 91.9865 133.678 92.4103V93.0802C133.678 93.659 133.778 94.1489 133.979 94.5499C134.179 94.951 134.459 95.2563 134.819 95.4659C135.179 95.671 135.596 95.7736 136.07 95.7736C136.376 95.7736 136.654 95.7303 136.904 95.6437C137.155 95.5525 137.371 95.4181 137.554 95.2404C137.736 95.0581 137.875 94.8348 137.971 94.5704L139.105 94.8986C138.987 95.2814 138.786 95.6186 138.504 95.9103C138.226 96.1974 137.88 96.423 137.465 96.587C137.05 96.7465 136.585 96.8263 136.07 96.8263ZM145.736 90.7423L144.684 91.0294C144.583 90.7697 144.41 90.5236 144.164 90.2911C143.923 90.0542 143.544 89.9357 143.029 89.9357C142.564 89.9357 142.177 90.045 141.867 90.2638C141.557 90.478 141.402 90.7469 141.402 91.0704C141.402 91.3621 141.507 91.5945 141.717 91.7677C141.931 91.9409 142.264 92.0822 142.715 92.1915L143.85 92.465C144.529 92.629 145.035 92.882 145.367 93.2238C145.704 93.5656 145.873 94.0008 145.873 94.5294C145.873 94.9669 145.748 95.3588 145.497 95.7052C145.246 96.0516 144.898 96.325 144.451 96.5255C144.005 96.726 143.485 96.8263 142.893 96.8263C142.113 96.8263 141.468 96.6554 140.958 96.3136C140.452 95.9718 140.131 95.4773 139.994 94.8302L141.102 94.5568C141.206 94.9669 141.407 95.2745 141.703 95.4796C142.004 95.6847 142.396 95.7872 142.879 95.7872C143.421 95.7872 143.854 95.671 144.178 95.4386C144.506 95.2016 144.67 94.9213 144.67 94.5978C144.67 94.06 144.292 93.7 143.535 93.5177L142.264 93.2169C141.562 93.0483 141.047 92.7908 140.719 92.4445C140.391 92.0981 140.227 91.6629 140.227 91.1388C140.227 90.7059 140.347 90.323 140.589 89.9904C140.835 89.6577 141.17 89.3979 141.594 89.2111C142.018 89.0197 142.496 88.924 143.029 88.924C143.79 88.924 144.385 89.0926 144.813 89.4298C145.246 89.7625 145.554 90.2 145.736 90.7423Z" fill="#1E1E1E"/>
<rect x="194" y="83.6622" width="27" height="16" rx="8" fill="#CA9FFF"/>
<rect x="206" y="84.6622" width="14" height="14" rx="7" fill="white"/>
<line x1="16.9989" y1="108.493" x2="217.994" y2="107.162" stroke="#D9D9D9"/>
<path d="M25 120.327V129.66M20.3333 124.993H29.6666" stroke="#1E1E1E" stroke-width="1.5" stroke-linecap="round" stroke-linejoin="round"/>
<path d="M44.46 130.189C41.52 130.189 39.56 127.991 39.56 124.981C39.56 121.971 41.52 119.787 44.46 119.787C47.4 119.787 49.36 121.971 49.36 124.981C49.36 127.991 47.4 130.189 44.46 130.189ZM44.46 129.069C46.98 129.069 48.1 127.137 48.1 124.981C48.1 122.825 46.98 120.907 44.46 120.907C41.94 120.907 40.82 122.825 40.82 124.981C40.82 127.137 41.94 129.069 44.46 129.069ZM53.8018 123.833H52.4018V128.131C52.4018 128.943 52.8498 129.083 53.8018 129.013V129.993C53.5498 130.049 53.2558 130.077 52.9618 130.077C52.0098 130.077 51.2818 129.699 51.2818 128.243V123.833H50.2318V122.853H51.2818V120.473H52.4018V122.853H53.8018V123.833ZM58.4731 122.657C59.7751 122.657 60.8671 123.371 60.8671 125.009V129.993H59.7471V125.289C59.7471 124.365 59.3131 123.637 58.1931 123.637C56.9331 123.637 56.0931 124.435 56.0931 125.541V129.993H54.9731V119.983H56.0931V123.707H56.1211C56.4991 123.203 57.2551 122.657 58.4731 122.657ZM65.4076 129.209C66.8356 129.209 67.3676 128.285 67.4936 127.795H68.6136C68.2496 129.125 67.2276 130.189 65.4496 130.189C63.2796 130.189 61.9636 128.663 61.9636 126.423C61.9636 124.043 63.3076 122.657 65.3936 122.657C67.6336 122.657 68.7256 124.183 68.7256 126.717H63.0836C63.0836 128.005 63.8536 129.209 65.4076 129.209ZM65.3936 123.637C64.0496 123.637 63.0836 124.589 63.0836 125.737H67.6056C67.6056 124.589 66.7376 123.637 65.3936 123.637ZM72.9565 122.657C73.2225 122.657 73.4185 122.671 73.6145 122.699V123.819H73.5865C72.0325 123.567 70.9545 124.659 70.9545 126.185V129.993H69.8345V122.853H70.9545V124.267H70.9825C71.3605 123.329 71.9345 122.657 72.9565 122.657ZM82.504 125.429C82.448 124.645 81.916 123.637 80.488 123.637C78.794 123.637 78.15 125.079 78.15 126.423C78.15 127.767 78.794 129.209 80.488 129.209C81.93 129.209 82.448 128.215 82.504 127.361H83.624C83.526 128.985 82.252 130.189 80.488 130.189C78.402 130.189 77.03 128.663 77.03 126.423C77.03 124.183 78.402 122.657 80.488 122.657C82.252 122.657 83.456 123.833 83.624 125.429H82.504ZM87.7898 130.189C85.6058 130.189 84.2898 128.649 84.2898 126.423C84.2898 124.197 85.6058 122.657 87.7898 122.657C89.9598 122.657 91.2758 124.197 91.2758 126.423C91.2758 128.649 89.9598 130.189 87.7898 130.189ZM87.7898 129.209C89.3858 129.209 90.1558 127.949 90.1558 126.423C90.1558 124.897 89.3858 123.637 87.7898 123.637C86.1798 123.637 85.4098 124.897 85.4098 126.423C85.4098 127.949 86.1798 129.209 87.7898 129.209ZM95.5007 130.189C93.3167 130.189 92.0007 128.649 92.0007 126.423C92.0007 124.197 93.3167 122.657 95.5007 122.657C97.6707 122.657 98.9867 124.197 98.9867 126.423C98.9867 128.649 97.6707 130.189 95.5007 130.189ZM95.5007 129.209C97.0967 129.209 97.8667 127.949 97.8667 126.423C97.8667 124.897 97.0967 123.637 95.5007 123.637C93.8907 123.637 93.1207 124.897 93.1207 126.423C93.1207 127.949 93.8907 129.209 95.5007 129.209ZM100.118 119.983H101.238V125.919L104.514 122.853H105.914L103.128 125.499L106.208 129.993H104.878L102.344 126.157L101.238 127.179V129.993H100.118V119.983ZM107.667 121.467C107.359 121.467 106.967 121.229 106.967 120.795C106.967 120.361 107.359 120.123 107.667 120.123C107.989 120.123 108.367 120.361 108.367 120.795C108.367 121.229 107.989 121.467 107.667 121.467ZM107.107 122.853H108.227V129.993H107.107V122.853ZM112.945 129.209C114.373 129.209 114.905 128.285 115.031 127.795H116.151C115.787 129.125 114.765 130.189 112.987 130.189C110.817 130.189 109.501 128.663 109.501 126.423C109.501 124.043 110.845 122.657 112.931 122.657C115.171 122.657 116.263 124.183 116.263 126.717H110.621C110.621 128.005 111.391 129.209 112.945 129.209ZM112.931 123.637C111.587 123.637 110.621 124.589 110.621 125.737H115.143C115.143 124.589 114.275 123.637 112.931 123.637ZM120.27 125.751C121.544 126.059 122.986 126.269 122.986 128.033C122.986 129.335 121.796 130.189 120.172 130.189C117.988 130.189 116.98 129.153 116.91 127.613H118.03C118.1 128.411 118.38 129.209 120.172 129.209C121.39 129.209 121.866 128.579 121.866 128.103C121.866 127.067 120.928 127.011 119.906 126.759C118.814 126.493 117.19 126.367 117.19 124.687C117.19 123.567 118.184 122.657 119.864 122.657C121.642 122.657 122.594 123.665 122.706 124.897H121.586C121.474 124.351 121.208 123.637 119.864 123.637C118.856 123.637 118.31 124.043 118.31 124.603C118.31 125.443 119.276 125.513 120.27 125.751Z" fill="#1E1E1E"/>
<rect x="194" y="116.993" width="27" height="16" rx="8" fill="#CA9FFF"/>
<rect x="206" y="117.993" width="14" height="14" rx="7" fill="white"/>
<g clip-path="url(#clip0_368_1015)">
<g clip-path="url(#clip1_368_1015)">
<rect width="201" height="31" transform="translate(17 148.993)" fill="#CA9FFF"/>
<path d="M77.3872 167.609H73.4672L72.7312 169.993H69.8512L73.9952 158.553H76.8752L81.0032 169.993H78.1232L77.3872 167.609ZM74.1232 165.417H76.7472L75.4512 161.193H75.4192L74.1232 165.417ZM88.3527 162.809C88.1447 161.561 87.5687 160.649 86.0487 160.649C84.1447 160.649 83.5047 162.121 83.5047 164.265C83.5047 166.425 84.1447 167.897 86.0487 167.897C87.5847 167.897 88.1607 166.985 88.3527 165.705H91.2327C90.9767 168.393 89.3127 170.249 86.1767 170.249C82.5607 170.249 80.6247 167.721 80.6247 164.265C80.6247 160.825 82.5607 158.297 86.1767 158.297C89.2967 158.297 90.9607 160.153 91.2327 162.809H88.3527ZM99.5089 162.809C99.3009 161.561 98.7249 160.649 97.2049 160.649C95.3009 160.649 94.6609 162.121 94.6609 164.265C94.6609 166.425 95.3009 167.897 97.2049 167.897C98.7409 167.897 99.3169 166.985 99.5089 165.705H102.389C102.133 168.393 100.469 170.249 97.3329 170.249C93.7169 170.249 91.7809 167.721 91.7809 164.265C91.7809 160.825 93.7169 158.297 97.3329 158.297C100.453 158.297 102.117 160.153 102.389 162.809H99.5089ZM106.281 162.937H111.273V165.289H106.281V167.641H112.169V169.993H103.401V158.553H112.073V160.905H106.281V162.937ZM113.448 169.993V158.553H119C121.384 158.553 122.872 159.801 122.872 162.201C122.872 164.601 121.384 165.849 119 165.849H116.328V169.993H113.448ZM116.328 160.905V163.497H118.392C119.384 163.497 119.992 163.161 119.992 162.201C119.992 161.241 119.384 160.905 118.392 160.905H116.328ZM126.702 169.993V160.905H123.374V158.553H132.894V160.905H129.582V169.993H126.702ZM143.403 167.609H139.483L138.747 169.993H135.867L140.011 158.553H142.891L147.019 169.993H144.139L143.403 167.609ZM140.139 165.417H142.763L141.467 161.193H141.435L140.139 165.417ZM147.823 158.553H150.703V167.641H155.791V169.993H147.823V158.553ZM156.87 158.553H159.75V167.641H164.838V169.993H156.87V158.553Z" fill="#1E1E1E"/>
</g>
<g opacity="0.6">
<path d="M44.444 201.489C44.236 200.337 43.484 198.945 41.372 198.945C38.908 198.945 37.932 201.009 37.932 203.265C37.932 205.537 38.908 207.601 41.372 207.601C43.5 207.601 44.316 206.209 44.444 204.817H46.348C46.092 207.393 44.332 209.233 41.42 209.233C38.124 209.233 36.044 206.721 36.044 203.265C36.044 199.825 38.124 197.313 41.42 197.313C44.316 197.313 46.076 199.153 46.348 201.489H44.444ZM56.6213 205.089C56.6213 207.585 55.2933 209.233 52.1093 209.233C48.9253 209.233 47.5973 207.585 47.5973 205.089V197.553H49.5013V205.089C49.5013 206.817 50.3653 207.601 52.1093 207.601C53.8693 207.601 54.7333 206.817 54.7333 205.089V197.553H56.6213V205.089ZM62.8901 202.177C65.3381 202.801 67.1941 203.329 67.1941 205.889C67.1941 207.713 65.8181 209.233 62.9381 209.233C60.1381 209.233 58.0101 207.777 57.8981 205.185H59.8021C59.8981 206.641 60.8901 207.601 62.9381 207.601C64.6341 207.601 65.2901 206.849 65.2901 205.969C65.2901 204.609 64.3141 204.353 62.0581 203.793C60.2661 203.345 58.3301 202.657 58.3301 200.481C58.3301 198.449 59.8981 197.313 62.3941 197.313C64.9061 197.313 66.7301 198.625 66.8901 200.977H64.9861C64.8101 199.649 63.9781 198.945 62.3941 198.945C61.0341 198.945 60.2181 199.457 60.2181 200.305C60.2181 201.553 61.2901 201.777 62.8901 202.177ZM71.1715 208.993V199.169H67.5075V197.553H76.7235V199.169H73.0755V208.993H71.1715ZM82.5663 209.233C79.1103 209.233 76.9503 206.705 76.9503 203.265C76.9503 199.825 79.1103 197.313 82.5663 197.313C86.0063 197.313 88.1823 199.825 88.1823 203.265C88.1823 206.705 86.0063 209.233 82.5663 209.233ZM82.5663 207.601C85.1903 207.601 86.2783 205.585 86.2783 203.265C86.2783 200.961 85.1903 198.945 82.5663 198.945C79.9423 198.945 78.8383 200.961 78.8383 203.265C78.8383 205.585 79.9423 207.601 82.5663 207.601ZM89.6948 208.993V197.553H92.1588L95.3588 206.353H95.3908L98.5748 197.553H101.039V208.993H99.1828V200.321H99.1508L96.1268 208.993H94.6068L91.5828 200.321H91.5508V208.993H89.6948ZM103.024 197.553H104.928V208.993H103.024V197.553ZM111.281 202.177C113.729 202.801 115.585 203.329 115.585 205.889C115.585 207.713 114.209 209.233 111.329 209.233C108.529 209.233 106.401 207.777 106.289 205.185H108.193C108.289 206.641 109.281 207.601 111.329 207.601C113.025 207.601 113.681 206.849 113.681 205.969C113.681 204.609 112.705 204.353 110.449 203.793C108.657 203.345 106.721 202.657 106.721 200.481C106.721 198.449 108.289 197.313 110.785 197.313C113.297 197.313 115.121 198.625 115.281 200.977H113.377C113.201 199.649 112.369 198.945 110.785 198.945C109.425 198.945 108.609 199.457 108.609 200.305C108.609 201.553 109.681 201.777 111.281 202.177ZM118.974 202.273H124.558V203.905H118.974V207.377H125.502V208.993H117.07V197.553H125.342V199.169H118.974V202.273ZM138.069 201.489C137.861 200.337 137.109 198.945 134.997 198.945C132.533 198.945 131.557 201.009 131.557 203.265C131.557 205.537 132.533 207.601 134.997 207.601C137.125 207.601 137.941 206.209 138.069 204.817H139.973C139.717 207.393 137.957 209.233 135.045 209.233C131.749 209.233 129.669 206.721 129.669 203.265C129.669 199.825 131.749 197.313 135.045 197.313C137.941 197.313 139.701 199.153 139.973 201.489H138.069ZM146.566 209.233C143.11 209.233 140.95 206.705 140.95 203.265C140.95 199.825 143.11 197.313 146.566 197.313C150.006 197.313 152.182 199.825 152.182 203.265C152.182 206.705 150.006 209.233 146.566 209.233ZM146.566 207.601C149.19 207.601 150.278 205.585 150.278 203.265C150.278 200.961 149.19 198.945 146.566 198.945C143.942 198.945 142.838 200.961 142.838 203.265C142.838 205.585 143.942 207.601 146.566 207.601ZM158.879 209.233C155.423 209.233 153.263 206.705 153.263 203.265C153.263 199.825 155.423 197.313 158.879 197.313C162.319 197.313 164.495 199.825 164.495 203.265C164.495 206.705 162.319 209.233 158.879 209.233ZM158.879 207.601C161.503 207.601 162.591 205.585 162.591 203.265C162.591 200.961 161.503 198.945 158.879 198.945C156.255 198.945 155.151 200.961 155.151 203.265C155.151 205.585 156.255 207.601 158.879 207.601ZM166.007 197.553H167.911V203.201L173.095 197.553H175.367L170.919 202.401L175.639 208.993H173.415L169.671 203.729L167.911 205.617V208.993H166.007V197.553ZM176.617 197.553H178.521V208.993H176.617V197.553ZM182.396 202.273H187.98V203.905H182.396V207.377H188.924V208.993H180.492V197.553H188.764V199.169H182.396V202.273ZM194.687 202.177C197.135 202.801 198.991 203.329 198.991 205.889C198.991 207.713 197.615 209.233 194.735 209.233C191.935 209.233 189.807 207.777 189.695 205.185H191.599C191.695 206.641 192.687 207.601 194.735 207.601C196.431 207.601 197.087 206.849 197.087 205.969C197.087 204.609 196.111 204.353 193.855 203.793C192.063 203.345 190.127 202.657 190.127 200.481C190.127 198.449 191.695 197.313 194.191 197.313C196.703 197.313 198.527 198.625 198.687 200.977H196.783C196.607 199.649 195.775 198.945 194.191 198.945C192.831 198.945 192.015 199.457 192.015 200.305C192.015 201.553 193.087 201.777 194.687 202.177Z" fill="#1E1E1E"/>
</g>
</g>
<defs>
<clipPath id="clip0_368_1015">
<rect x="17" y="148.993" width="201" height="70" rx="4" fill="white"/>
</clipPath>
<clipPath id="clip1_368_1015">
<rect x="17" y="148.993" width="201" height="31" rx="4" fill="white"/>
</clipPath>
</defs>
</svg>
