<svg width="281" height="119" viewBox="0 0 281 119" fill="none" xmlns="http://www.w3.org/2000/svg">
<path d="M1 13C1 6.37258 6.37258 1 13 1H268C274.627 1 280 6.37258 280 13V106C280 112.627 274.627 118 268 118H13C6.37259 118 1 112.627 1 106V13Z" fill="#FDFF6D"/>
<path d="M268 0.5C274.904 0.500003 280.5 6.09644 280.5 13V106C280.5 112.904 274.904 118.5 268 118.5H13C6.09644 118.5 0.5 112.904 0.5 106V13C0.5 6.09644 6.09644 0.5 13 0.5H268Z" stroke="#E0E0E0" stroke-opacity="0.3"/>
<path d="M134.542 24.5833H146.458M140.5 30C138.776 30 137.123 30.6848 135.904 31.9038C134.685 33.1228 134 34.7761 134 36.5V38.6667C134 38.954 134.114 39.2295 134.317 39.4327C134.52 39.6359 134.796 39.75 135.083 39.75H145.917C146.204 39.75 146.48 39.6359 146.683 39.4327C146.886 39.2295 147 38.954 147 38.6667V36.5C147 34.7761 146.315 33.1228 145.096 31.9038C143.877 30.6848 142.224 30 140.5 30ZM140.5 30C138.776 30 137.123 29.3152 135.904 28.0962C134.685 26.8772 134 25.2239 134 23.5V21.3333C134 21.046 134.114 20.7705 134.317 20.5673C134.52 20.3641 134.796 20.25 135.083 20.25H145.917C146.204 20.25 146.48 20.3641 146.683 20.5673C146.886 20.7705 147 21.046 147 21.3333V23.5C147 25.2239 146.315 26.8772 145.096 28.0962C143.877 29.3152 142.224 30 140.5 30Z" stroke="black" stroke-width="2" stroke-linecap="round" stroke-linejoin="round"/>
<path d="M47.48 56.66C50.7 57.46 52.8 58 52.8 61.26C52.8 63.34 51.26 65.28 47.64 65.28C44.26 65.28 41.64 63.48 41.44 60.2H43.24C43.44 62.16 44.64 63.68 47.64 63.68C50.12 63.68 51 62.54 51 61.26C51 59.3 49.94 58.94 46.74 58.2C44.6 57.7 42.04 56.96 42.04 54.18C42.04 51.92 43.78 50.42 46.94 50.42C49.98 50.42 52.1 51.98 52.34 54.94H50.54C50.28 53.02 49.2 52.02 46.94 52.02C44.92 52.02 43.84 52.8 43.84 53.98C43.84 55.88 45.38 56.14 47.48 56.66ZM61.1795 54.8H62.7795V65H61.1795V63.78H61.1395C60.5995 64.5 59.5195 65.28 57.7795 65.28C55.9195 65.28 54.3595 64.26 54.3595 61.92V54.8H55.9595V61.52C55.9595 62.84 56.5795 63.88 58.1795 63.88C59.9795 63.88 61.1795 62.74 61.1795 61.16V54.8ZM69.6659 54.52C72.1859 54.52 74.2259 56.54 74.2259 59.9C74.2259 63.26 72.1859 65.28 69.6659 65.28C67.9859 65.28 67.0259 64.56 66.4259 63.68H66.3859V68.44H64.7859V54.8H66.3859V56.06H66.4259C67.0259 55.28 67.9859 54.52 69.6659 54.52ZM69.4659 63.88C71.5659 63.88 72.6259 61.9 72.6259 59.9C72.6259 57.9 71.5659 55.92 69.4659 55.92C67.5659 55.92 66.3859 57.5 66.3859 59.9C66.3859 62.3 67.5659 63.88 69.4659 63.88ZM80.0392 63.88C82.0792 63.88 82.8392 62.56 83.0192 61.86H84.6192C84.0992 63.76 82.6392 65.28 80.0992 65.28C76.9992 65.28 75.1192 63.1 75.1192 59.9C75.1192 56.5 77.0392 54.52 80.0192 54.52C83.2192 54.52 84.7792 56.7 84.7792 60.32H76.7192C76.7192 62.16 77.8192 63.88 80.0392 63.88ZM80.0192 55.92C78.0992 55.92 76.7192 57.28 76.7192 58.92H83.1792C83.1792 57.28 81.9392 55.92 80.0192 55.92ZM90.6233 54.52C91.0033 54.52 91.2833 54.54 91.5633 54.58V56.18H91.5233C89.3033 55.82 87.7633 57.38 87.7633 59.56V65H86.1633V54.8H87.7633V56.82H87.8033C88.3433 55.48 89.1633 54.52 90.6233 54.52ZM103.883 50.7H105.483V65H103.883V63.74H103.843C103.243 64.52 102.283 65.28 100.643 65.28C98.0827 65.28 96.0427 63.26 96.0427 59.9C96.0427 56.54 98.0827 54.52 100.643 54.52C102.283 54.52 103.243 55.24 103.843 56.12H103.883V50.7ZM100.803 63.88C102.703 63.88 103.883 62.3 103.883 59.9C103.883 57.5 102.703 55.92 100.803 55.92C98.7027 55.92 97.6427 57.9 97.6427 59.9C97.6427 61.9 98.7027 63.88 100.803 63.88ZM108.282 52.82C107.842 52.82 107.282 52.48 107.282 51.86C107.282 51.24 107.842 50.9 108.282 50.9C108.742 50.9 109.282 51.24 109.282 51.86C109.282 52.48 108.742 52.82 108.282 52.82ZM107.482 54.8H109.082V65H107.482V54.8ZM115.421 58.94C117.241 59.38 119.301 59.68 119.301 62.2C119.301 64.06 117.601 65.28 115.281 65.28C112.161 65.28 110.721 63.8 110.621 61.6H112.221C112.321 62.74 112.721 63.88 115.281 63.88C117.021 63.88 117.701 62.98 117.701 62.3C117.701 60.82 116.361 60.74 114.901 60.38C113.341 60 111.021 59.82 111.021 57.42C111.021 55.82 112.441 54.52 114.841 54.52C117.381 54.52 118.741 55.96 118.901 57.72H117.301C117.141 56.94 116.761 55.92 114.841 55.92C113.401 55.92 112.621 56.5 112.621 57.3C112.621 58.5 114.001 58.6 115.421 58.94ZM128.087 58.48C128.007 57.36 127.247 55.92 125.207 55.92C122.787 55.92 121.867 57.98 121.867 59.9C121.867 61.82 122.787 63.88 125.207 63.88C127.267 63.88 128.007 62.46 128.087 61.24H129.687C129.547 63.56 127.727 65.28 125.207 65.28C122.227 65.28 120.267 63.1 120.267 59.9C120.267 56.7 122.227 54.52 125.207 54.52C127.727 54.52 129.447 56.2 129.687 58.48H128.087ZM135.438 65.28C132.318 65.28 130.438 63.08 130.438 59.9C130.438 56.72 132.318 54.52 135.438 54.52C138.538 54.52 140.418 56.72 140.418 59.9C140.418 63.08 138.538 65.28 135.438 65.28ZM135.438 63.88C137.718 63.88 138.818 62.08 138.818 59.9C138.818 57.72 137.718 55.92 135.438 55.92C133.138 55.92 132.038 57.72 132.038 59.9C132.038 62.08 133.138 63.88 135.438 63.88ZM148.594 54.8H150.194V65H148.594V63.78H148.554C148.014 64.5 146.934 65.28 145.194 65.28C143.334 65.28 141.774 64.26 141.774 61.92V54.8H143.374V61.52C143.374 62.84 143.994 63.88 145.594 63.88C147.394 63.88 148.594 62.74 148.594 61.16V54.8ZM157.2 54.52C159.06 54.52 160.62 55.54 160.62 57.88V65H159.02V58.28C159.02 56.96 158.4 55.92 156.8 55.92C155 55.92 153.8 57.06 153.8 58.64V65H152.2V54.8H153.8V56.02H153.84C154.38 55.3 155.46 54.52 157.2 54.52ZM166.811 56.2H164.811V62.34C164.811 63.5 165.451 63.7 166.811 63.6V65C166.451 65.08 166.031 65.12 165.611 65.12C164.251 65.12 163.211 64.58 163.211 62.5V56.2H161.711V54.8H163.211V51.4H164.811V54.8H166.811V56.2ZM176.428 63.88C178.468 63.88 179.228 62.56 179.408 61.86H181.008C180.488 63.76 179.028 65.28 176.488 65.28C173.388 65.28 171.508 63.1 171.508 59.9C171.508 56.5 173.428 54.52 176.408 54.52C179.608 54.52 181.168 56.7 181.168 60.32H173.108C173.108 62.16 174.208 63.88 176.428 63.88ZM176.408 55.92C174.488 55.92 173.108 57.28 173.108 58.92H179.568C179.568 57.28 178.328 55.92 176.408 55.92ZM187.552 54.52C189.412 54.52 190.972 55.54 190.972 57.88V65H189.372V58.28C189.372 56.96 188.752 55.92 187.152 55.92C185.352 55.92 184.152 57.06 184.152 58.64V65H182.552V54.8H184.152V56.02H184.192C184.732 55.3 185.812 54.52 187.552 54.52ZM200.179 50.7H201.779V65H200.179V63.74H200.139C199.539 64.52 198.579 65.28 196.939 65.28C194.379 65.28 192.339 63.26 192.339 59.9C192.339 56.54 194.379 54.52 196.939 54.52C198.579 54.52 199.539 55.24 200.139 56.12H200.179V50.7ZM197.099 63.88C198.999 63.88 200.179 62.3 200.179 59.9C200.179 57.5 198.999 55.92 197.099 55.92C194.999 55.92 193.939 57.9 193.939 59.9C193.939 61.9 194.999 63.88 197.099 63.88ZM204.578 52.82C204.138 52.82 203.578 52.48 203.578 51.86C203.578 51.24 204.138 50.9 204.578 50.9C205.038 50.9 205.578 51.24 205.578 51.86C205.578 52.48 205.038 52.82 204.578 52.82ZM203.778 54.8H205.378V65H203.778V54.8ZM212.577 54.52C214.437 54.52 215.997 55.54 215.997 57.88V65H214.397V58.28C214.397 56.96 213.777 55.92 212.177 55.92C210.377 55.92 209.177 57.06 209.177 58.64V65H207.577V54.8H209.177V56.02H209.217C209.757 55.3 210.837 54.52 212.577 54.52ZM225.204 54.8H226.804V64.44C226.804 67.16 225.084 68.54 222.284 68.54C219.484 68.54 217.824 67.06 217.664 65.32H219.264C219.464 66.36 220.304 67.14 222.204 67.14C224.104 67.14 225.204 66.32 225.204 64.42V62.88H225.164C224.564 63.76 223.604 64.48 221.924 64.48C219.404 64.48 217.364 62.86 217.364 59.5C217.364 56.14 219.404 54.52 221.924 54.52C223.604 54.52 224.564 55.28 225.164 56.06H225.204V54.8ZM222.124 63.08C224.024 63.08 225.204 61.9 225.204 59.5C225.204 57.1 224.024 55.92 222.124 55.92C220.024 55.92 218.964 57.5 218.964 59.5C218.964 61.5 220.024 63.08 222.124 63.08ZM229.678 65.14C229.058 65.14 228.578 64.72 228.578 64.04C228.578 63.38 229.058 62.94 229.678 62.94C230.298 62.94 230.778 63.38 230.778 64.04C230.778 64.72 230.298 65.14 229.678 65.14ZM233.443 65.14C232.823 65.14 232.343 64.72 232.343 64.04C232.343 63.38 232.823 62.94 233.443 62.94C234.063 62.94 234.543 63.38 234.543 64.04C234.543 64.72 234.063 65.14 233.443 65.14ZM237.208 65.14C236.588 65.14 236.108 64.72 236.108 64.04C236.108 63.38 236.588 62.94 237.208 62.94C237.828 62.94 238.308 63.38 238.308 64.04C238.308 64.72 237.828 65.14 237.208 65.14Z" fill="black"/>
<path d="M91.3314 102.48C85.1214 102.48 82.2114 97.53 82.2114 91.65C82.2114 85.77 85.1214 80.79 91.3314 80.79C97.5414 80.79 100.421 85.77 100.421 91.65C100.421 97.53 97.5414 102.48 91.3314 102.48ZM91.3314 98.37C94.3614 98.37 95.3214 95.76 95.3214 91.65C95.3214 87.54 94.3614 84.9 91.3314 84.9C88.3014 84.9 87.3114 87.54 87.3114 91.65C87.3114 95.76 88.3014 98.37 91.3314 98.37ZM110.66 102.48C104.45 102.48 101.54 97.53 101.54 91.65C101.54 85.77 104.45 80.79 110.66 80.79C116.87 80.79 119.75 85.77 119.75 91.65C119.75 97.53 116.87 102.48 110.66 102.48ZM110.66 98.37C113.69 98.37 114.65 95.76 114.65 91.65C114.65 87.54 113.69 84.9 110.66 84.9C107.63 84.9 106.64 87.54 106.64 91.65C106.64 95.76 107.63 98.37 110.66 98.37ZM124.042 92.97C122.602 92.97 121.492 91.98 121.492 90.42C121.492 88.89 122.602 87.87 124.042 87.87C125.452 87.87 126.592 88.89 126.592 90.42C126.592 91.98 125.452 92.97 124.042 92.97ZM124.042 102.27C122.602 102.27 121.492 101.28 121.492 99.72C121.492 98.19 122.602 97.17 124.042 97.17C125.452 97.17 126.592 98.19 126.592 99.72C126.592 101.28 125.452 102.27 124.042 102.27ZM133.402 88.83H128.602C128.602 83.97 131.182 80.79 136.792 80.79C141.262 80.79 144.262 83.13 144.262 87.09C144.262 92.55 138.142 95.19 135.472 97.83V97.89H144.262V102H128.302C128.302 98.55 130.102 96.42 131.932 94.89C135.652 91.8 139.162 90.18 139.162 87.45C139.162 85.86 138.262 84.9 136.642 84.9C134.692 84.9 133.402 85.98 133.402 88.83ZM150.827 88.83H146.027C146.027 83.97 148.607 80.79 154.217 80.79C158.687 80.79 161.687 83.13 161.687 87.09C161.687 92.55 155.567 95.19 152.897 97.83V97.89H161.687V102H145.727C145.727 98.55 147.527 96.42 149.357 94.89C153.077 91.8 156.587 90.18 156.587 87.45C156.587 85.86 155.687 84.9 154.067 84.9C152.117 84.9 150.827 85.98 150.827 88.83ZM166.091 92.97C164.651 92.97 163.541 91.98 163.541 90.42C163.541 88.89 164.651 87.87 166.091 87.87C167.501 87.87 168.641 88.89 168.641 90.42C168.641 91.98 167.501 92.97 166.091 92.97ZM166.091 102.27C164.651 102.27 163.541 101.28 163.541 99.72C163.541 98.19 164.651 97.17 166.091 97.17C167.501 97.17 168.641 98.19 168.641 99.72C168.641 101.28 167.501 102.27 166.091 102.27ZM184.811 102H179.711V97.62H170.321V92.61L179.711 81.27H184.811V93.51H187.871V97.62H184.811V102ZM179.711 86.82L174.071 93.51H179.711V86.82ZM193.381 81.27H197.581V102H192.481V87.99C191.311 89.19 189.571 89.19 188.101 89.19V85.59C192.031 85.59 193.381 83.52 193.381 81.27Z" fill="#1E1E1E"/>
</svg>
