<svg width="281" height="119" viewBox="0 0 281 119" fill="none" xmlns="http://www.w3.org/2000/svg">
<path d="M1 13C1 6.37258 6.37258 1 13 1H268C274.627 1 280 6.37258 280 13V106C280 112.627 274.627 118 268 118H13C6.37259 118 1 112.627 1 106V13Z" fill="black"/>
<path d="M268 0.5C274.904 0.500003 280.5 6.09644 280.5 13V106C280.5 112.904 274.904 118.5 268 118.5H13C6.09644 118.5 0.5 112.904 0.5 106V13C0.5 6.09644 6.09644 0.5 13 0.5H268Z" stroke="#D7D7D7" stroke-opacity="0.3"/>
<path d="M134.542 24.5833H146.458M140.5 30C138.776 30 137.123 30.6848 135.904 31.9038C134.685 33.1228 134 34.7761 134 36.5V38.6667C134 38.954 134.114 39.2295 134.317 39.4327C134.52 39.6359 134.796 39.75 135.083 39.75H145.917C146.204 39.75 146.48 39.6359 146.683 39.4327C146.886 39.2295 147 38.954 147 38.6667V36.5C147 34.7761 146.315 33.1228 145.096 31.9038C143.877 30.6848 142.224 30 140.5 30ZM140.5 30C138.776 30 137.123 29.3152 135.904 28.0962C134.685 26.8772 134 25.2239 134 23.5V21.3333C134 21.046 134.114 20.7705 134.317 20.5673C134.52 20.3641 134.796 20.25 135.083 20.25H145.917C146.204 20.25 146.48 20.3641 146.683 20.5673C146.886 20.7705 147 21.046 147 21.3333V23.5C147 25.2239 146.315 26.8772 145.096 28.0962C143.877 29.3152 142.224 30 140.5 30Z" stroke="#FDFF6D" stroke-width="2" stroke-linecap="round" stroke-linejoin="round"/>
<path d="M23.1875 65V52.3H18.4275V50.7H29.7475V52.3H24.9875V65H23.1875ZM32.0945 52.82C31.6545 52.82 31.0945 52.48 31.0945 51.86C31.0945 51.24 31.6545 50.9 32.0945 50.9C32.5545 50.9 33.0945 51.24 33.0945 51.86C33.0945 52.48 32.5545 52.82 32.0945 52.82ZM31.2945 54.8H32.8945V65H31.2945V54.8ZM45.7538 54.52C47.8138 54.52 48.8138 55.74 48.8138 57.88V65H47.2138V58.28C47.2138 56.96 46.9538 55.92 45.3538 55.92C43.7538 55.92 42.7538 57.06 42.7538 58.64V65H41.1538V58.28C41.1538 56.96 40.8938 55.92 39.2938 55.92C37.6938 55.92 36.6938 57.06 36.6938 58.64V65H35.0938V54.8H36.6938V56.02H36.7338C37.2738 55.3 38.1538 54.52 39.6938 54.52C41.1538 54.52 41.9938 55.14 42.4138 56.28H42.4538C43.1538 55.32 44.2138 54.52 45.7538 54.52ZM55.0931 63.88C57.1331 63.88 57.8931 62.56 58.0731 61.86H59.6731C59.1531 63.76 57.6931 65.28 55.1531 65.28C52.0531 65.28 50.1731 63.1 50.1731 59.9C50.1731 56.5 52.0931 54.52 55.0731 54.52C58.2731 54.52 59.8331 56.7 59.8331 60.32H51.7731C51.7731 62.16 52.8731 63.88 55.0931 63.88ZM55.0731 55.92C53.1531 55.92 51.7731 57.28 51.7731 58.92H58.2331C58.2331 57.28 56.9931 55.92 55.0731 55.92ZM65.6772 54.52C66.0572 54.52 66.3372 54.54 66.6172 54.58V56.18H66.5772C64.3572 55.82 62.8172 57.38 62.8172 59.56V65H61.2172V54.8H62.8172V56.82H62.8572C63.3972 55.48 64.2172 54.52 65.6772 54.52ZM78.9366 50.7H80.5366V65H78.9366V63.74H78.8966C78.2966 64.52 77.3366 65.28 75.6966 65.28C73.1366 65.28 71.0966 63.26 71.0966 59.9C71.0966 56.54 73.1366 54.52 75.6966 54.52C77.3366 54.52 78.2966 55.24 78.8966 56.12H78.9366V50.7ZM75.8566 63.88C77.7566 63.88 78.9366 62.3 78.9366 59.9C78.9366 57.5 77.7566 55.92 75.8566 55.92C73.7566 55.92 72.6966 57.9 72.6966 59.9C72.6966 61.9 73.7566 63.88 75.8566 63.88ZM86.8713 63.88C88.9113 63.88 89.6713 62.56 89.8513 61.86H91.4513C90.9313 63.76 89.4713 65.28 86.9313 65.28C83.8313 65.28 81.9513 63.1 81.9513 59.9C81.9513 56.5 83.8713 54.52 86.8513 54.52C90.0513 54.52 91.6113 56.7 91.6113 60.32H83.5513C83.5513 62.16 84.6513 63.88 86.8713 63.88ZM86.8513 55.92C84.9313 55.92 83.5513 57.28 83.5513 58.92H90.0113C90.0113 57.28 88.7713 55.92 86.8513 55.92ZM97.1353 58.94C98.9553 59.38 101.015 59.68 101.015 62.2C101.015 64.06 99.3153 65.28 96.9953 65.28C93.8753 65.28 92.4353 63.8 92.3353 61.6H93.9353C94.0353 62.74 94.4353 63.88 96.9953 63.88C98.7353 63.88 99.4153 62.98 99.4153 62.3C99.4153 60.82 98.0753 60.74 96.6153 60.38C95.0553 60 92.7353 59.82 92.7353 57.42C92.7353 55.82 94.1553 54.52 96.5553 54.52C99.0953 54.52 100.455 55.96 100.615 57.72H99.0153C98.8553 56.94 98.4753 55.92 96.5553 55.92C95.1153 55.92 94.3353 56.5 94.3353 57.3C94.3353 58.5 95.7153 58.6 97.1353 58.94ZM103.366 52.82C102.926 52.82 102.366 52.48 102.366 51.86C102.366 51.24 102.926 50.9 103.366 50.9C103.826 50.9 104.366 51.24 104.366 51.86C104.366 52.48 103.826 52.82 103.366 52.82ZM102.566 54.8H104.166V65H102.566V54.8ZM113.625 54.8H115.225V64.44C115.225 67.16 113.505 68.54 110.705 68.54C107.905 68.54 106.245 67.06 106.085 65.32H107.685C107.885 66.36 108.725 67.14 110.625 67.14C112.525 67.14 113.625 66.32 113.625 64.42V62.88H113.585C112.985 63.76 112.025 64.48 110.345 64.48C107.825 64.48 105.785 62.86 105.785 59.5C105.785 56.14 107.825 54.52 110.345 54.52C112.025 54.52 112.985 55.28 113.585 56.06H113.625V54.8ZM110.545 63.08C112.445 63.08 113.625 61.9 113.625 59.5C113.625 57.1 112.445 55.92 110.545 55.92C108.445 55.92 107.385 57.5 107.385 59.5C107.385 61.5 108.445 63.08 110.545 63.08ZM122.22 54.52C124.08 54.52 125.64 55.54 125.64 57.88V65H124.04V58.28C124.04 56.96 123.42 55.92 121.82 55.92C120.02 55.92 118.82 57.06 118.82 58.64V65H117.22V54.8H118.82V56.02H118.86C119.4 55.3 120.48 54.52 122.22 54.52ZM131.926 63.88C133.966 63.88 134.726 62.56 134.906 61.86H136.506C135.986 63.76 134.526 65.28 131.986 65.28C128.886 65.28 127.006 63.1 127.006 59.9C127.006 56.5 128.926 54.52 131.906 54.52C135.106 54.52 136.666 56.7 136.666 60.32H128.606C128.606 62.16 129.706 63.88 131.926 63.88ZM131.906 55.92C129.986 55.92 128.606 57.28 128.606 58.92H135.066C135.066 57.28 133.826 55.92 131.906 55.92ZM145.31 50.7H146.91V65H145.31V63.74H145.27C144.67 64.52 143.71 65.28 142.07 65.28C139.51 65.28 137.47 63.26 137.47 59.9C137.47 56.54 139.51 54.52 142.07 54.52C143.71 54.52 144.67 55.24 145.27 56.12H145.31V50.7ZM142.23 63.88C144.13 63.88 145.31 62.3 145.31 59.9C145.31 57.5 144.13 55.92 142.23 55.92C140.13 55.92 139.07 57.9 139.07 59.9C139.07 61.9 140.13 63.88 142.23 63.88ZM157.149 56.2H155.149V62.34C155.149 63.5 155.789 63.7 157.149 63.6V65C156.789 65.08 156.369 65.12 155.949 65.12C154.589 65.12 153.549 64.58 153.549 62.5V56.2H152.049V54.8H153.549V51.4H155.149V54.8H157.149V56.2ZM162.944 65.28C159.824 65.28 157.944 63.08 157.944 59.9C157.944 56.72 159.824 54.52 162.944 54.52C166.044 54.52 167.924 56.72 167.924 59.9C167.924 63.08 166.044 65.28 162.944 65.28ZM162.944 63.88C165.224 63.88 166.324 62.08 166.324 59.9C166.324 57.72 165.224 55.92 162.944 55.92C160.644 55.92 159.544 57.72 159.544 59.9C159.544 62.08 160.644 63.88 162.944 63.88ZM183.804 54.52C185.864 54.52 186.864 55.74 186.864 57.88V65H185.264V58.28C185.264 56.96 185.004 55.92 183.404 55.92C181.804 55.92 180.804 57.06 180.804 58.64V65H179.204V58.28C179.204 56.96 178.944 55.92 177.344 55.92C175.744 55.92 174.744 57.06 174.744 58.64V65H173.144V54.8H174.744V56.02H174.784C175.324 55.3 176.204 54.52 177.744 54.52C179.204 54.52 180.044 55.14 180.464 56.28H180.504C181.204 55.32 182.264 54.52 183.804 54.52ZM195.043 57.4C195.043 56.6 194.603 55.92 192.963 55.92C191.023 55.92 190.383 56.48 190.283 57.96H188.683C188.783 56 190.003 54.52 192.963 54.52C194.903 54.52 196.643 55.28 196.643 57.74V62.7C196.643 63.5 196.783 63.94 197.803 63.82V64.94C197.383 65.08 197.163 65.1 196.863 65.1C195.903 65.1 195.323 64.84 195.043 63.72H195.003C194.363 64.68 193.223 65.28 191.543 65.28C189.483 65.28 188.183 64.1 188.183 62.38C188.183 60.06 189.903 59.46 192.543 58.96C194.263 58.64 195.043 58.42 195.043 57.4ZM191.703 63.88C193.603 63.88 195.043 63.02 195.043 61.06V59.36C194.743 59.66 193.763 59.94 192.683 60.16C190.703 60.58 189.783 61.08 189.783 62.3C189.783 63.3 190.383 63.88 191.703 63.88ZM198.798 50.7H200.398V59.18L205.078 54.8H207.078L203.098 58.58L207.498 65H205.598L201.978 59.52L200.398 60.98V65H198.798V50.7ZM212.118 63.88C214.158 63.88 214.918 62.56 215.098 61.86H216.698C216.178 63.76 214.718 65.28 212.178 65.28C209.078 65.28 207.198 63.1 207.198 59.9C207.198 56.5 209.118 54.52 212.098 54.52C215.298 54.52 216.858 56.7 216.858 60.32H208.798C208.798 62.16 209.898 63.88 212.118 63.88ZM212.098 55.92C210.178 55.92 208.798 57.28 208.798 58.92H215.258C215.258 57.28 214.018 55.92 212.098 55.92ZM230.686 54.8L226.326 65.84C225.886 66.94 225.366 68.44 223.486 68.44C222.846 68.44 222.386 68.32 222.126 68.24V67.04H222.366C223.246 67.12 223.866 67.06 224.406 66.48C224.826 66.02 225.246 65.16 224.846 64.16L220.986 54.8H222.786L225.906 63.12H225.946L228.886 54.8H230.686ZM235.856 65.28C232.736 65.28 230.856 63.08 230.856 59.9C230.856 56.72 232.736 54.52 235.856 54.52C238.956 54.52 240.836 56.72 240.836 59.9C240.836 63.08 238.956 65.28 235.856 65.28ZM235.856 63.88C238.136 63.88 239.236 62.08 239.236 59.9C239.236 57.72 238.136 55.92 235.856 55.92C233.556 55.92 232.456 57.72 232.456 59.9C232.456 62.08 233.556 63.88 235.856 63.88ZM249.012 54.8H250.612V65H249.012V63.78H248.972C248.432 64.5 247.352 65.28 245.612 65.28C243.752 65.28 242.192 64.26 242.192 61.92V54.8H243.792V61.52C243.792 62.84 244.412 63.88 246.012 63.88C247.812 63.88 249.012 62.74 249.012 61.16V54.8ZM253.498 65.14C252.878 65.14 252.398 64.72 252.398 64.04C252.398 63.38 252.878 62.94 253.498 62.94C254.118 62.94 254.598 63.38 254.598 64.04C254.598 64.72 254.118 65.14 253.498 65.14ZM257.263 65.14C256.643 65.14 256.163 64.72 256.163 64.04C256.163 63.38 256.643 62.94 257.263 62.94C257.883 62.94 258.363 63.38 258.363 64.04C258.363 64.72 257.883 65.14 257.263 65.14ZM261.028 65.14C260.408 65.14 259.928 64.72 259.928 64.04C259.928 63.38 260.408 62.94 261.028 62.94C261.648 62.94 262.128 63.38 262.128 64.04C262.128 64.72 261.648 65.14 261.028 65.14Z" fill="#FDFF6D"/>
<path d="M88.4688 97.53H81.1188L79.7388 102H74.3388L82.1088 80.55H87.5088L95.2488 102H89.8488L88.4688 97.53ZM82.3488 93.42H87.2688L84.8388 85.5H84.7788L82.3488 93.42ZM96.4567 102V80.55H101.857L109.357 93.3H109.417V80.55H114.817V102H109.417L101.917 89.25H101.857V102H96.4567ZM123.186 91.05L116.676 80.55H122.376L126.306 87.09H126.366L130.326 80.55H136.026L129.516 90.99L136.626 102H130.626L126.366 95.04H126.306L122.076 102H116.076L123.186 91.05ZM137.928 80.55H143.328V102H137.928V80.55ZM155.873 102.48C149.063 102.48 145.253 97.74 145.253 91.26C145.253 84.81 149.063 80.07 155.873 80.07C162.623 80.07 166.493 84.81 166.493 91.26C166.493 97.74 162.623 102.48 155.873 102.48ZM155.873 98.07C159.773 98.07 161.093 95.01 161.093 91.26C161.093 87.54 159.773 84.48 155.873 84.48C151.943 84.48 150.653 87.54 150.653 91.26C150.653 95.01 151.943 98.07 155.873 98.07ZM186.055 94.26C186.055 99.6 183.565 102.48 177.085 102.48C170.605 102.48 168.115 99.6 168.115 94.26V80.55H173.515V94.26C173.515 97.05 174.715 98.07 177.085 98.07C179.455 98.07 180.655 97.05 180.655 94.26V80.55H186.055V94.26ZM197.707 88.68C201.757 89.79 205.927 91.11 205.927 95.7C205.927 99.81 202.807 102.48 197.437 102.48C191.857 102.48 187.657 99.72 187.657 94.95H193.057C193.057 97.23 195.037 98.07 197.437 98.07C199.447 98.07 200.527 97.29 200.527 96.21C200.527 94.5 198.217 94.11 195.187 93.21C191.497 92.13 188.257 90.54 188.257 86.58C188.257 81.9 191.917 80.07 196.537 80.07C201.547 80.07 205.477 82.71 205.627 87.06H200.227C199.987 85.44 198.607 84.48 196.537 84.48C194.917 84.48 193.657 84.99 193.657 86.19C193.657 87.51 195.007 87.93 197.707 88.68Z" fill="#FDFF6D"/>
</svg>
