<svg width="269" height="113" viewBox="0 0 269 113" fill="none" xmlns="http://www.w3.org/2000/svg">
<path d="M1 13C1 6.37258 6.37258 1 13 1H256C262.627 1 268 6.37258 268 13V100C268 106.627 262.627 112 256 112H13C6.37258 112 1 106.627 1 100V13Z" fill="black"/>
<path d="M256 0.5C262.904 0.5 268.5 6.09644 268.5 13V100C268.5 106.904 262.904 112.5 256 112.5H13C6.09644 112.5 0.5 106.904 0.5 100V13L0.503906 12.6777C0.674839 5.92311 6.20419 0.5 13 0.5H256Z" stroke="#D7D7D7" stroke-opacity="0.3"/>
<path d="M25.1984 36.456C28.7084 37.418 32.3224 38.562 32.3224 42.54C32.3224 46.102 29.6184 48.416 24.9644 48.416C20.1284 48.416 16.4884 46.024 16.4884 41.89H21.1684C21.1684 43.866 22.8844 44.594 24.9644 44.594C26.7064 44.594 27.6424 43.918 27.6424 42.982C27.6424 41.5 25.6404 41.162 23.0144 40.382C19.8164 39.446 17.0084 38.068 17.0084 34.636C17.0084 30.58 20.1804 28.994 24.1844 28.994C28.5264 28.994 31.9324 31.282 32.0624 35.052H27.3824C27.1744 33.648 25.9784 32.816 24.1844 32.816C22.7804 32.816 21.6884 33.258 21.6884 34.298C21.6884 35.442 22.8584 35.806 25.1984 36.456ZM45.7504 36.326C45.4124 34.298 44.4764 32.816 42.0064 32.816C38.9124 32.816 37.8724 35.208 37.8724 38.692C37.8724 42.202 38.9124 44.594 42.0064 44.594C44.5024 44.594 45.4384 43.112 45.7504 41.032H50.4304C50.0144 45.4 47.3104 48.416 42.2144 48.416C36.3384 48.416 33.1924 44.308 33.1924 38.692C33.1924 33.102 36.3384 28.994 42.2144 28.994C47.2844 28.994 49.9884 32.01 50.4304 36.326H45.7504ZM62.1012 44.126H55.7312L54.5352 48H49.8552L56.5892 29.41H61.2692L67.9772 48H63.2972L62.1012 44.126ZM56.7972 40.564H61.0612L58.9552 33.7H58.9032L56.7972 40.564ZM69.0241 48V29.41H77.7861C81.9201 29.41 84.4161 31.308 84.4161 34.818C84.4161 37.288 82.9601 38.848 80.6461 39.368V39.42C85.3001 40.226 83.6101 47.428 84.6761 47.74V48H79.8141C78.9041 47.22 80.5941 41.526 76.6161 41.526H73.7041V48H69.0241ZM73.7041 33.232V37.704H76.8761C78.7481 37.704 79.7361 37.028 79.7361 35.468C79.7361 33.908 78.7481 33.232 76.8761 33.232H73.7041ZM98.0114 36.326C97.6734 34.298 96.7374 32.816 94.2674 32.816C91.1734 32.816 90.1334 35.208 90.1334 38.692C90.1334 42.202 91.1734 44.594 94.2674 44.594C96.7634 44.594 97.6994 43.112 98.0114 41.032H102.691C102.275 45.4 99.5714 48.416 94.4754 48.416C88.5994 48.416 85.4534 44.308 85.4534 38.692C85.4534 33.102 88.5994 28.994 94.4754 28.994C99.5454 28.994 102.249 32.01 102.691 36.326H98.0114ZM104.102 29.41H108.782V48H104.102V29.41ZM115.273 48V33.232H109.865V29.41H125.335V33.232H119.953V48H115.273ZM125.922 29.41H130.862L134.476 37.054H134.528L138.168 29.41H143.108L136.842 41.136V48H132.162V41.136L125.922 29.41ZM152.884 48V33.232H147.476V29.41H162.946V33.232H157.564V48H152.884ZM173.009 44.126H166.639L165.443 48H160.763L167.497 29.41H172.177L178.885 48H174.205L173.009 44.126ZM167.705 40.564H171.969L169.863 33.7H169.811L167.705 40.564ZM190.568 36.326C190.23 34.298 189.294 32.816 186.824 32.816C183.73 32.816 182.69 35.208 182.69 38.692C182.69 42.202 183.73 44.594 186.824 44.594C189.32 44.594 190.256 43.112 190.568 41.032H195.248C194.832 45.4 192.128 48.416 187.032 48.416C181.156 48.416 178.01 44.308 178.01 38.692C178.01 33.102 181.156 28.994 187.032 28.994C192.102 28.994 194.806 32.01 195.248 36.326H190.568ZM200.828 48V33.232H195.42V29.41H210.89V33.232H205.508V48H200.828ZM212.37 29.41H217.05V48H212.37V29.41ZM231.277 36.326C230.939 34.298 230.003 32.816 227.533 32.816C224.439 32.816 223.399 35.208 223.399 38.692C223.399 42.202 224.439 44.594 227.533 44.594C230.029 44.594 230.965 43.112 231.277 41.032H235.957C235.541 45.4 232.837 48.416 227.741 48.416C221.865 48.416 218.719 44.308 218.719 38.692C218.719 33.102 221.865 28.994 227.741 28.994C232.811 28.994 235.515 32.01 235.957 36.326H231.277ZM245.168 36.456C248.678 37.418 252.292 38.562 252.292 42.54C252.292 46.102 249.588 48.416 244.934 48.416C240.098 48.416 236.458 46.024 236.458 41.89H241.138C241.138 43.866 242.854 44.594 244.934 44.594C246.676 44.594 247.612 43.918 247.612 42.982C247.612 41.5 245.61 41.162 242.984 40.382C239.786 39.446 236.978 38.068 236.978 34.636C236.978 30.58 240.15 28.994 244.154 28.994C248.496 28.994 251.902 31.282 252.032 35.052H247.352C247.144 33.648 245.948 32.816 244.154 32.816C242.75 32.816 241.658 33.258 241.658 34.298C241.658 35.442 242.828 35.806 245.168 36.456Z" fill="#FDFF6D"/>
<line x1="35" y1="75" x2="46" y2="75" stroke="#FDFF6D" stroke-width="2" stroke-linecap="round"/>
<line x1="35" y1="82" x2="46" y2="82" stroke="#FDFF6D" stroke-width="2" stroke-linecap="round"/>
<path d="M56.1552 70.7H57.9552V76.78H65.5952V70.7H67.3952V85H65.5952V78.38H57.9552V85H56.1552V70.7ZM70.441 72.82C70.001 72.82 69.441 72.48 69.441 71.86C69.441 71.24 70.001 70.9 70.441 70.9C70.901 70.9 71.441 71.24 71.441 71.86C71.441 72.48 70.901 72.82 70.441 72.82ZM69.641 74.8H71.241V85H69.641V74.8ZM80.5002 74.8H82.1002V84.44C82.1002 87.16 80.3802 88.54 77.5802 88.54C74.7802 88.54 73.1202 87.06 72.9602 85.32H74.5602C74.7602 86.36 75.6002 87.14 77.5002 87.14C79.4002 87.14 80.5002 86.32 80.5002 84.42V82.88H80.4602C79.8602 83.76 78.9002 84.48 77.2202 84.48C74.7002 84.48 72.6602 82.86 72.6602 79.5C72.6602 76.14 74.7002 74.52 77.2202 74.52C78.9002 74.52 79.8602 75.28 80.4602 76.06H80.5002V74.8ZM77.4202 83.08C79.3202 83.08 80.5002 81.9 80.5002 79.5C80.5002 77.1 79.3202 75.92 77.4202 75.92C75.3202 75.92 74.2602 77.5 74.2602 79.5C74.2602 81.5 75.3202 83.08 77.4202 83.08ZM88.8949 74.52C90.7549 74.52 92.3149 75.54 92.3149 77.88V85H90.7149V78.28C90.7149 76.96 90.0949 75.92 88.4949 75.92C86.6949 75.92 85.4949 77.06 85.4949 78.64V85H83.8949V70.7H85.4949V76.02H85.5349C86.0749 75.3 87.1549 74.52 88.8949 74.52ZM98.4013 83.88C100.441 83.88 101.201 82.56 101.381 81.86H102.981C102.461 83.76 101.001 85.28 98.4613 85.28C95.3613 85.28 93.4813 83.1 93.4813 79.9C93.4813 76.5 95.4013 74.52 98.3813 74.52C101.581 74.52 103.141 76.7 103.141 80.32H95.0813C95.0813 82.16 96.1813 83.88 98.4013 83.88ZM98.3813 75.92C96.4613 75.92 95.0813 77.28 95.0813 78.92H101.541C101.541 77.28 100.301 75.92 98.3813 75.92ZM108.785 74.52C109.165 74.52 109.445 74.54 109.725 74.58V76.18H109.685C107.465 75.82 105.925 77.38 105.925 79.56V85H104.325V74.8H105.925V76.82H105.965C106.505 75.48 107.325 74.52 108.785 74.52ZM119.265 74.52C121.785 74.52 123.825 76.54 123.825 79.9C123.825 83.26 121.785 85.28 119.265 85.28C117.585 85.28 116.625 84.56 116.025 83.68H115.985V88.44H114.385V74.8H115.985V76.06H116.025C116.625 75.28 117.585 74.52 119.265 74.52ZM119.065 83.88C121.165 83.88 122.225 81.9 122.225 79.9C122.225 77.9 121.165 75.92 119.065 75.92C117.165 75.92 115.985 77.5 115.985 79.9C115.985 82.3 117.165 83.88 119.065 83.88ZM129.438 83.88C131.478 83.88 132.238 82.56 132.418 81.86H134.018C133.498 83.76 132.038 85.28 129.498 85.28C126.398 85.28 124.518 83.1 124.518 79.9C124.518 76.5 126.438 74.52 129.418 74.52C132.618 74.52 134.178 76.7 134.178 80.32H126.118C126.118 82.16 127.218 83.88 129.438 83.88ZM129.418 75.92C127.498 75.92 126.118 77.28 126.118 78.92H132.578C132.578 77.28 131.338 75.92 129.418 75.92ZM139.822 74.52C140.202 74.52 140.482 74.54 140.762 74.58V76.18H140.722C138.502 75.82 136.962 77.38 136.962 79.56V85H135.362V74.8H136.962V76.82H137.002C137.542 75.48 138.362 74.52 139.822 74.52ZM148.667 78.48C148.587 77.36 147.827 75.92 145.787 75.92C143.367 75.92 142.447 77.98 142.447 79.9C142.447 81.82 143.367 83.88 145.787 83.88C147.847 83.88 148.587 82.46 148.667 81.24H150.267C150.127 83.56 148.307 85.28 145.787 85.28C142.807 85.28 140.847 83.1 140.847 79.9C140.847 76.7 142.807 74.52 145.787 74.52C148.307 74.52 150.027 76.2 150.267 78.48H148.667ZM155.738 83.88C157.778 83.88 158.538 82.56 158.718 81.86H160.318C159.798 83.76 158.338 85.28 155.798 85.28C152.698 85.28 150.818 83.1 150.818 79.9C150.818 76.5 152.738 74.52 155.718 74.52C158.918 74.52 160.478 76.7 160.478 80.32H152.418C152.418 82.16 153.518 83.88 155.738 83.88ZM155.718 75.92C153.798 75.92 152.418 77.28 152.418 78.92H158.878C158.878 77.28 157.638 75.92 155.718 75.92ZM162.662 72.82C162.222 72.82 161.662 72.48 161.662 71.86C161.662 71.24 162.222 70.9 162.662 70.9C163.122 70.9 163.662 71.24 163.662 71.86C163.662 72.48 163.122 72.82 162.662 72.82ZM161.862 74.8H163.462V85H161.862V74.8ZM164.401 74.8H166.141L168.961 83.4H168.981L171.801 74.8H173.541L169.881 85H168.061L164.401 74.8ZM178.425 83.88C180.465 83.88 181.225 82.56 181.405 81.86H183.005C182.485 83.76 181.025 85.28 178.485 85.28C175.385 85.28 173.505 83.1 173.505 79.9C173.505 76.5 175.425 74.52 178.405 74.52C181.605 74.52 183.165 76.7 183.165 80.32H175.105C175.105 82.16 176.205 83.88 178.425 83.88ZM178.405 75.92C176.485 75.92 175.105 77.28 175.105 78.92H181.565C181.565 77.28 180.325 75.92 178.405 75.92ZM191.609 70.7H193.209V85H191.609V83.74H191.569C190.969 84.52 190.009 85.28 188.369 85.28C185.809 85.28 183.769 83.26 183.769 79.9C183.769 76.54 185.809 74.52 188.369 74.52C190.009 74.52 190.969 75.24 191.569 76.12H191.609V70.7ZM188.529 83.88C190.429 83.88 191.609 82.3 191.609 79.9C191.609 77.5 190.429 75.92 188.529 75.92C186.429 75.92 185.369 77.9 185.369 79.9C185.369 81.9 186.429 83.88 188.529 83.88ZM197.547 74.8H199.287L202.107 83.4H202.127L204.947 74.8H206.687L203.027 85H201.207L197.547 74.8ZM213.373 77.4C213.373 76.6 212.933 75.92 211.293 75.92C209.353 75.92 208.713 76.48 208.613 77.96H207.013C207.113 76 208.333 74.52 211.293 74.52C213.233 74.52 214.973 75.28 214.973 77.74V82.7C214.973 83.5 215.113 83.94 216.133 83.82V84.94C215.713 85.08 215.493 85.1 215.193 85.1C214.233 85.1 213.653 84.84 213.373 83.72H213.333C212.693 84.68 211.553 85.28 209.873 85.28C207.813 85.28 206.513 84.1 206.513 82.38C206.513 80.06 208.233 79.46 210.873 78.96C212.593 78.64 213.373 78.42 213.373 77.4ZM210.033 83.88C211.933 83.88 213.373 83.02 213.373 81.06V79.36C213.073 79.66 212.093 79.94 211.013 80.16C209.033 80.58 208.113 81.08 208.113 82.3C208.113 83.3 208.713 83.88 210.033 83.88ZM216.989 70.7H218.589V85H216.989V70.7ZM227.214 74.8H228.814V85H227.214V83.78H227.174C226.634 84.5 225.554 85.28 223.814 85.28C221.954 85.28 220.394 84.26 220.394 81.92V74.8H221.994V81.52C221.994 82.84 222.614 83.88 224.214 83.88C226.014 83.88 227.214 82.74 227.214 81.16V74.8ZM234.961 83.88C237.001 83.88 237.761 82.56 237.941 81.86H239.541C239.021 83.76 237.561 85.28 235.021 85.28C231.921 85.28 230.041 83.1 230.041 79.9C230.041 76.5 231.961 74.52 234.941 74.52C238.141 74.52 239.701 76.7 239.701 80.32H231.641C231.641 82.16 232.741 83.88 234.961 83.88ZM234.941 75.92C233.021 75.92 231.641 77.28 231.641 78.92H238.101C238.101 77.28 236.861 75.92 234.941 75.92Z" fill="#FDFF6D"/>
</svg>
