<svg width="267" height="111" viewBox="0 0 267 111" fill="none" xmlns="http://www.w3.org/2000/svg">
<rect width="267" height="111" rx="12" fill="#FDFF6D"/>
<path d="M55.9245 37.456C59.4345 38.418 63.0485 39.562 63.0485 43.54C63.0485 47.102 60.3445 49.416 55.6905 49.416C50.8545 49.416 47.2145 47.024 47.2145 42.89H51.8945C51.8945 44.866 53.6105 45.594 55.6905 45.594C57.4325 45.594 58.3685 44.918 58.3685 43.982C58.3685 42.5 56.3665 42.162 53.7405 41.382C50.5425 40.446 47.7345 39.068 47.7345 35.636C47.7345 31.58 50.9065 29.994 54.9105 29.994C59.2525 29.994 62.6585 32.282 62.7885 36.052H58.1085C57.9005 34.648 56.7045 33.816 54.9105 33.816C53.5065 33.816 52.4145 34.258 52.4145 35.298C52.4145 36.442 53.5845 36.806 55.9245 37.456ZM69.3525 37.534H77.4645V41.356H69.3525V45.178H78.9205V49H64.6725V30.41H78.7645V34.232H69.3525V37.534ZM80.7387 30.41H85.4187V45.178H93.6867V49H80.7387V30.41ZM95.1799 30.41H99.8599V45.178H108.128V49H95.1799V30.41ZM109.647 30.41H114.327V49H109.647V30.41ZM116.623 49V30.41H121.303L127.803 41.46H127.855V30.41H132.535V49H127.855L121.355 37.95H121.303V49H116.623ZM146.909 36.572C146.571 35.298 145.713 33.816 143.139 33.816C140.071 33.816 138.901 36.208 138.901 39.692C138.901 43.202 140.071 45.594 143.321 45.594C145.479 45.594 146.987 44.294 147.039 42.5H143.503V39.12H151.875V49H148.521L148.053 46.634H148.001C147.117 48.324 145.375 49.416 142.645 49.416C137.367 49.416 134.221 45.308 134.221 39.692C134.221 34.102 137.367 29.994 143.217 29.994C148.313 29.994 151.147 33.01 151.589 36.572H146.909ZM162.697 38.314H170.159V42.136H162.697V49H158.017V30.41H171.849V34.232H162.697V38.314ZM182.642 45.126H176.272L175.076 49H170.396L177.13 30.41H181.81L188.518 49H183.838L182.642 45.126ZM177.338 41.564H181.602L179.496 34.7H179.444L177.338 41.564ZM197.01 37.456C200.52 38.418 204.134 39.562 204.134 43.54C204.134 47.102 201.43 49.416 196.776 49.416C191.94 49.416 188.3 47.024 188.3 42.89H192.98C192.98 44.866 194.696 45.594 196.776 45.594C198.518 45.594 199.454 44.918 199.454 43.982C199.454 42.5 197.452 42.162 194.826 41.382C191.628 40.446 188.82 39.068 188.82 35.636C188.82 31.58 191.992 29.994 195.996 29.994C200.338 29.994 203.744 32.282 203.874 36.052H199.194C198.986 34.648 197.79 33.816 195.996 33.816C194.592 33.816 193.5 34.258 193.5 35.298C193.5 36.442 194.67 36.806 197.01 37.456ZM209.674 49V34.232H204.266V30.41H219.736V34.232H214.354V49H209.674Z" fill="#1E1E1E"/>
<line x1="81.5" y1="69" x2="98.5" y2="69" stroke="black" stroke-width="2" stroke-linecap="round"/>
<line x1="87.5" y1="74" x2="98.5" y2="74" stroke="black" stroke-width="2" stroke-linecap="round"/>
<line x1="94.5" y1="79" x2="98.5" y2="79" stroke="black" stroke-width="2" stroke-linecap="round"/>
<path d="M111.559 80.28C107.359 80.28 104.559 77.14 104.559 72.84C104.559 68.54 107.359 65.42 111.559 65.42C115.759 65.42 118.559 68.54 118.559 72.84C118.559 77.14 115.759 80.28 111.559 80.28ZM111.559 78.68C115.159 78.68 116.759 75.92 116.759 72.84C116.759 69.76 115.159 67.02 111.559 67.02C107.959 67.02 106.359 69.76 106.359 72.84C106.359 75.92 107.959 78.68 111.559 78.68ZM125.064 69.52C126.924 69.52 128.484 70.54 128.484 72.88V80H126.884V73.28C126.884 71.96 126.264 70.92 124.664 70.92C122.864 70.92 121.664 72.06 121.664 73.64V80H120.064V69.8H121.664V71.02H121.704C122.244 70.3 123.324 69.52 125.064 69.52ZM130.29 65.7H131.89V80H130.29V65.7ZM142.396 69.8L138.036 80.84C137.596 81.94 137.076 83.44 135.196 83.44C134.556 83.44 134.096 83.32 133.836 83.24V82.04H134.076C134.956 82.12 135.576 82.06 136.116 81.48C136.536 81.02 136.956 80.16 136.556 79.16L132.696 69.8H134.496L137.616 78.12H137.656L140.596 69.8H142.396ZM151.645 70.72C154.245 70.72 156.065 72.72 156.065 75.28C156.065 78.26 153.885 80.28 151.105 80.28C147.945 80.28 146.185 78.24 146.105 76.02H147.905C148.065 77.36 148.865 78.68 151.025 78.68C152.925 78.68 154.265 77.5 154.265 75.28C154.265 73.2 153.005 72.32 151.225 72.32C149.985 72.32 148.905 72.72 148.205 73.62H146.285L147.725 66.18H155.325V67.78H149.185L148.365 71.96V72C149.065 71.2 150.105 70.72 151.645 70.72ZM161.064 65.7H162.664V80H161.064V65.7ZM168.87 78.88C170.91 78.88 171.67 77.56 171.85 76.86H173.45C172.93 78.76 171.47 80.28 168.93 80.28C165.83 80.28 163.95 78.1 163.95 74.9C163.95 71.5 165.87 69.52 168.85 69.52C172.05 69.52 173.61 71.7 173.61 75.32H165.55C165.55 77.16 166.65 78.88 168.87 78.88ZM168.85 70.92C166.93 70.92 165.55 72.28 165.55 73.92H172.01C172.01 72.28 170.77 70.92 168.85 70.92ZM178.898 67.1C177.538 67 176.958 67.2 176.958 68.36V69.8H178.898V71.2H176.958V80H175.358V71.2H173.938V69.8H175.358V68.2C175.358 66.12 176.398 65.58 177.758 65.58C178.118 65.58 178.538 65.62 178.898 65.7V67.1ZM184.302 71.2H182.302V77.34C182.302 78.5 182.942 78.7 184.302 78.6V80C183.942 80.08 183.522 80.12 183.102 80.12C181.742 80.12 180.702 79.58 180.702 77.5V71.2H179.202V69.8H180.702V66.4H182.302V69.8H184.302V71.2ZM186.056 65.7H187.856V69.8L187.456 76.32H186.456L186.056 69.8V65.7ZM186.956 80.14C186.336 80.14 185.856 79.72 185.856 79.04C185.856 78.38 186.336 77.94 186.956 77.94C187.576 77.94 188.056 78.38 188.056 79.04C188.056 79.72 187.576 80.14 186.956 80.14Z" fill="black"/>
</svg>
