<svg width="223" height="84" viewBox="0 0 223 84" fill="none" xmlns="http://www.w3.org/2000/svg">
<rect width="223" height="84" rx="12" fill="#CA9FFF"/>
<path d="M46 34V22C46 21.4696 45.7893 20.9609 45.4142 20.5858C45.0391 20.2107 44.5304 20 44 20H36C35.4696 20 34.9609 20.2107 34.5858 20.5858C34.2107 20.9609 34 21.4696 34 22V33C34 33.2652 34.1054 33.5196 34.2929 33.7071C34.4804 33.8946 34.7348 34 35 34H37" fill="black"/>
<path d="M46 34V22C46 21.4696 45.7893 20.9609 45.4142 20.5858C45.0391 20.2107 44.5304 20 44 20H36C35.4696 20 34.9609 20.2107 34.5858 20.5858C34.2107 20.9609 34 21.4696 34 22V33C34 33.2652 34.1054 33.5196 34.2929 33.7071C34.4804 33.8946 34.7348 34 35 34H37" stroke="black" stroke-width="1.5" stroke-linecap="round" stroke-linejoin="round"/>
<path d="M47 34H41" stroke="black" stroke-width="1.5" stroke-linecap="round" stroke-linejoin="round"/>
<path d="M51 34H53C53.2652 34 53.5196 33.8946 53.7071 33.7071C53.8946 33.5196 54 33.2652 54 33V29.35C53.9996 29.1231 53.922 28.903 53.78 28.726L50.3 24.376C50.2065 24.2589 50.0878 24.1643 49.9528 24.0992C49.8178 24.0341 49.6699 24.0002 49.52 24H46" stroke="black" stroke-width="1.5" stroke-linecap="round" stroke-linejoin="round"/>
<path d="M49 36C50.1046 36 51 35.1046 51 34C51 32.8954 50.1046 32 49 32C47.8954 32 47 32.8954 47 34C47 35.1046 47.8954 36 49 36Z" stroke="black" stroke-width="1.5" stroke-linecap="round" stroke-linejoin="round"/>
<path d="M39 36C40.1046 36 41 35.1046 41 34C41 32.8954 40.1046 32 39 32C37.8954 32 37 32.8954 37 34C37 35.1046 37.8954 36 39 36Z" fill="#CA9FFF" stroke="black" stroke-width="1.5" stroke-linecap="round" stroke-linejoin="round"/>
<path d="M67.472 25.94H73.852V27.54H67.472V34H65.672V19.7H75.372V21.3H67.472V25.94ZM79.9514 23.52C80.3314 23.52 80.6114 23.54 80.8914 23.58V25.18H80.8514C78.6314 24.82 77.0914 26.38 77.0914 28.56V34H75.4914V23.8H77.0914V25.82H77.1314C77.6714 24.48 78.4914 23.52 79.9514 23.52ZM85.4962 32.88C87.5362 32.88 88.2963 31.56 88.4763 30.86H90.0763C89.5563 32.76 88.0962 34.28 85.5562 34.28C82.4562 34.28 80.5762 32.1 80.5762 28.9C80.5762 25.5 82.4962 23.52 85.4763 23.52C88.6763 23.52 90.2362 25.7 90.2362 29.32H82.1762C82.1762 31.16 83.2762 32.88 85.4962 32.88ZM85.4763 24.92C83.5562 24.92 82.1762 26.28 82.1762 27.92H88.6363C88.6363 26.28 87.3962 24.92 85.4763 24.92ZM95.3603 32.88C97.4003 32.88 98.1603 31.56 98.3403 30.86H99.9403C99.4203 32.76 97.9603 34.28 95.4203 34.28C92.3203 34.28 90.4403 32.1 90.4403 28.9C90.4403 25.5 92.3603 23.52 95.3403 23.52C98.5403 23.52 100.1 25.7 100.1 29.32H92.0403C92.0403 31.16 93.1403 32.88 95.3603 32.88ZM95.3403 24.92C93.4203 24.92 92.0403 26.28 92.0403 27.92H98.5003C98.5003 26.28 97.2603 24.92 95.3403 24.92ZM108.228 27.94C110.048 28.38 112.108 28.68 112.108 31.2C112.108 33.06 110.408 34.28 108.088 34.28C104.968 34.28 103.528 32.8 103.428 30.6H105.028C105.128 31.74 105.528 32.88 108.088 32.88C109.828 32.88 110.508 31.98 110.508 31.3C110.508 29.82 109.168 29.74 107.708 29.38C106.148 29 103.828 28.82 103.828 26.42C103.828 24.82 105.248 23.52 107.648 23.52C110.188 23.52 111.548 24.96 111.708 26.72H110.108C109.948 25.94 109.568 24.92 107.648 24.92C106.208 24.92 105.428 25.5 105.428 26.3C105.428 27.5 106.808 27.6 108.228 27.94ZM117.859 23.52C119.719 23.52 121.279 24.54 121.279 26.88V34H119.679V27.28C119.679 25.96 119.059 24.92 117.459 24.92C115.659 24.92 114.459 26.06 114.459 27.64V34H112.859V19.7H114.459V25.02H114.499C115.039 24.3 116.119 23.52 117.859 23.52ZM123.625 21.82C123.185 21.82 122.625 21.48 122.625 20.86C122.625 20.24 123.185 19.9 123.625 19.9C124.085 19.9 124.625 20.24 124.625 20.86C124.625 21.48 124.085 21.82 123.625 21.82ZM122.825 23.8H124.425V34H122.825V23.8ZM130.904 23.52C133.424 23.52 135.464 25.54 135.464 28.9C135.464 32.26 133.424 34.28 130.904 34.28C129.224 34.28 128.264 33.56 127.664 32.68H127.624V37.44H126.024V23.8H127.624V25.06H127.664C128.264 24.28 129.224 23.52 130.904 23.52ZM130.704 32.88C132.804 32.88 133.864 30.9 133.864 28.9C133.864 26.9 132.804 24.92 130.704 24.92C128.804 24.92 127.624 26.5 127.624 28.9C127.624 31.3 128.804 32.88 130.704 32.88ZM141.218 23.52C143.738 23.52 145.778 25.54 145.778 28.9C145.778 32.26 143.738 34.28 141.218 34.28C139.538 34.28 138.578 33.56 137.978 32.68H137.938V37.44H136.338V23.8H137.938V25.06H137.978C138.578 24.28 139.538 23.52 141.218 23.52ZM141.018 32.88C143.118 32.88 144.178 30.9 144.178 28.9C144.178 26.9 143.118 24.92 141.018 24.92C139.118 24.92 137.938 26.5 137.938 28.9C137.938 31.3 139.118 32.88 141.018 32.88ZM147.651 21.82C147.211 21.82 146.651 21.48 146.651 20.86C146.651 20.24 147.211 19.9 147.651 19.9C148.111 19.9 148.651 20.24 148.651 20.86C148.651 21.48 148.111 21.82 147.651 21.82ZM146.851 23.8H148.451V34H146.851V23.8ZM155.05 23.52C156.91 23.52 158.47 24.54 158.47 26.88V34H156.87V27.28C156.87 25.96 156.25 24.92 154.65 24.92C152.85 24.92 151.65 26.06 151.65 27.64V34H150.05V23.8H151.65V25.02H151.69C152.23 24.3 153.31 23.52 155.05 23.52ZM167.076 23.8H168.676V33.44C168.676 36.16 166.956 37.54 164.156 37.54C161.356 37.54 159.696 36.06 159.536 34.32H161.136C161.336 35.36 162.176 36.14 164.076 36.14C165.976 36.14 167.076 35.32 167.076 33.42V31.88H167.036C166.436 32.76 165.476 33.48 163.796 33.48C161.276 33.48 159.236 31.86 159.236 28.5C159.236 25.14 161.276 23.52 163.796 23.52C165.476 23.52 166.436 24.28 167.036 25.06H167.076V23.8ZM163.996 32.08C165.896 32.08 167.076 30.9 167.076 28.5C167.076 26.1 165.896 24.92 163.996 24.92C161.896 24.92 160.836 26.5 160.836 28.5C160.836 30.5 161.896 32.08 163.996 32.08ZM170.551 19.7H172.351V23.8L171.951 30.32H170.951L170.551 23.8V19.7ZM171.451 34.14C170.831 34.14 170.351 33.72 170.351 33.04C170.351 32.38 170.831 31.94 171.451 31.94C172.071 31.94 172.551 32.38 172.551 33.04C172.551 33.72 172.071 34.14 171.451 34.14ZM174.517 19.7H176.317V23.8L175.917 30.32H174.917L174.517 23.8V19.7ZM175.417 34.14C174.797 34.14 174.317 33.72 174.317 33.04C174.317 32.38 174.797 31.94 175.417 31.94C176.037 31.94 176.517 32.38 176.517 33.04C176.517 33.72 176.037 34.14 175.417 34.14ZM178.482 19.7H180.282V23.8L179.882 30.32H178.882L178.482 23.8V19.7ZM179.382 34.14C178.762 34.14 178.282 33.72 178.282 33.04C178.282 32.38 178.762 31.94 179.382 31.94C180.002 31.94 180.482 32.38 180.482 33.04C180.482 33.72 180.002 34.14 179.382 34.14Z" fill="black"/>
<path d="M189.578 22.998L187.488 23.724L188.808 25.638L187.862 26.298L186.498 24.274L185.134 26.298L184.188 25.638L185.508 23.724L183.418 22.998L183.814 21.986L185.904 22.668V20.27H187.092V22.668L189.182 21.986L189.578 22.998Z" fill="black"/>
<path d="M23.5782 54.998L21.4882 55.724L22.8082 57.638L21.8622 58.298L20.4982 56.274L19.1342 58.298L18.1882 57.638L19.5082 55.724L17.4182 54.998L17.8142 53.986L19.9042 54.668V52.27H21.0922V54.668L23.1822 53.986L23.5782 54.998Z" fill="black"/>
<path d="M25.3562 51.99H26.6862L28.5902 60.194H28.6182L30.8582 51.99H32.2582L34.4982 60.194H34.5262L36.4302 51.99H37.7602L35.2822 62H33.8822L31.5722 53.418H31.5442L29.2342 62H27.8342L25.3562 51.99ZM41.9471 54.664C43.2491 54.664 44.3411 55.378 44.3411 57.016V62H43.2211V57.296C43.2211 56.372 42.7871 55.644 41.6671 55.644C40.4071 55.644 39.5671 56.442 39.5671 57.548V62H38.4471V51.99H39.5671V55.714H39.5951C39.9731 55.21 40.7291 54.664 41.9471 54.664ZM48.6016 61.216C50.0296 61.216 50.5616 60.292 50.6876 59.802H51.8076C51.4436 61.132 50.4216 62.196 48.6436 62.196C46.4736 62.196 45.1576 60.67 45.1576 58.43C45.1576 56.05 46.5016 54.664 48.5876 54.664C50.8276 54.664 51.9196 56.19 51.9196 58.724H46.2776C46.2776 60.012 47.0476 61.216 48.6016 61.216ZM48.5876 55.644C47.2436 55.644 46.2776 56.596 46.2776 57.744H50.7996C50.7996 56.596 49.9316 55.644 48.5876 55.644ZM56.2484 54.664C57.5504 54.664 58.6424 55.378 58.6424 57.016V62H57.5224V57.296C57.5224 56.372 57.0884 55.644 55.9684 55.644C54.7084 55.644 53.8684 56.442 53.8684 57.548V62H52.7484V54.86H53.8684V55.714H53.8964C54.2744 55.21 55.0304 54.664 56.2484 54.664ZM68.4357 54.86L65.3837 62.588C65.0757 63.358 64.7117 64.408 63.3957 64.408C62.9477 64.408 62.6257 64.324 62.4437 64.268V63.428H62.6117C63.2277 63.484 63.6617 63.442 64.0397 63.036C64.3337 62.714 64.6277 62.112 64.3477 61.412L61.6457 54.86H62.9057L65.0897 60.684H65.1177L67.1757 54.86H68.4357ZM71.9145 62.196C69.7305 62.196 68.4145 60.656 68.4145 58.43C68.4145 56.204 69.7305 54.664 71.9145 54.664C74.0845 54.664 75.4005 56.204 75.4005 58.43C75.4005 60.656 74.0845 62.196 71.9145 62.196ZM71.9145 61.216C73.5105 61.216 74.2805 59.956 74.2805 58.43C74.2805 56.904 73.5105 55.644 71.9145 55.644C70.3045 55.644 69.5345 56.904 69.5345 58.43C69.5345 59.956 70.3045 61.216 71.9145 61.216ZM80.9835 54.86H82.1035V62H80.9835V61.146H80.9555C80.5775 61.65 79.8215 62.196 78.6035 62.196C77.3015 62.196 76.2095 61.482 76.2095 59.844V54.86H77.3295V59.564C77.3295 60.488 77.7635 61.216 78.8835 61.216C80.1435 61.216 80.9835 60.418 80.9835 59.312V54.86ZM88.7887 57.758C90.0627 58.066 91.5047 58.276 91.5047 60.04C91.5047 61.342 90.3147 62.196 88.6907 62.196C86.5067 62.196 85.4987 61.16 85.4287 59.62H86.5487C86.6187 60.418 86.8987 61.216 88.6907 61.216C89.9087 61.216 90.3847 60.586 90.3847 60.11C90.3847 59.074 89.4467 59.018 88.4247 58.766C87.3327 58.5 85.7087 58.374 85.7087 56.694C85.7087 55.574 86.7027 54.664 88.3827 54.664C90.1607 54.664 91.1127 55.672 91.2247 56.904H90.1047C89.9927 56.358 89.7267 55.644 88.3827 55.644C87.3747 55.644 86.8287 56.05 86.8287 56.61C86.8287 57.45 87.7947 57.52 88.7887 57.758ZM95.8099 54.664C97.1119 54.664 98.2039 55.378 98.2039 57.016V62H97.0839V57.296C97.0839 56.372 96.6499 55.644 95.5299 55.644C94.2699 55.644 93.4299 56.442 93.4299 57.548V62H92.3099V51.99H93.4299V55.714H93.4579C93.8359 55.21 94.5919 54.664 95.8099 54.664ZM102.52 62.196C100.336 62.196 99.0204 60.656 99.0204 58.43C99.0204 56.204 100.336 54.664 102.52 54.664C104.69 54.664 106.006 56.204 106.006 58.43C106.006 60.656 104.69 62.196 102.52 62.196ZM102.52 61.216C104.116 61.216 104.886 59.956 104.886 58.43C104.886 56.904 104.116 55.644 102.52 55.644C100.91 55.644 100.14 56.904 100.14 58.43C100.14 59.956 100.91 61.216 102.52 61.216ZM110.273 54.664C112.037 54.664 113.465 56.078 113.465 58.43C113.465 60.782 112.037 62.196 110.273 62.196C109.097 62.196 108.425 61.692 108.005 61.076H107.977V64.408H106.857V54.86H107.977V55.742H108.005C108.425 55.196 109.097 54.664 110.273 54.664ZM110.133 61.216C111.603 61.216 112.345 59.83 112.345 58.43C112.345 57.03 111.603 55.644 110.133 55.644C108.803 55.644 107.977 56.75 107.977 58.43C107.977 60.11 108.803 61.216 110.133 61.216ZM119.987 55.84H118.587V60.138C118.587 60.95 119.035 61.09 119.987 61.02V62C119.735 62.056 119.441 62.084 119.147 62.084C118.195 62.084 117.467 61.706 117.467 60.25V55.84H116.417V54.86H117.467V52.48H118.587V54.86H119.987V55.84ZM124.379 54.664C125.681 54.664 126.773 55.378 126.773 57.016V62H125.653V57.296C125.653 56.372 125.219 55.644 124.099 55.644C122.839 55.644 121.999 56.442 121.999 57.548V62H120.879V51.99H121.999V55.714H122.027C122.405 55.21 123.161 54.664 124.379 54.664ZM131.117 54.664C131.383 54.664 131.579 54.678 131.775 54.706V55.826H131.747C130.193 55.574 129.115 56.666 129.115 58.192V62H127.995V54.86H129.115V56.274H129.143C129.521 55.336 130.095 54.664 131.117 54.664ZM135.335 62.196C133.151 62.196 131.835 60.656 131.835 58.43C131.835 56.204 133.151 54.664 135.335 54.664C137.505 54.664 138.821 56.204 138.821 58.43C138.821 60.656 137.505 62.196 135.335 62.196ZM135.335 61.216C136.931 61.216 137.701 59.956 137.701 58.43C137.701 56.904 136.931 55.644 135.335 55.644C133.725 55.644 132.955 56.904 132.955 58.43C132.955 59.956 133.725 61.216 135.335 61.216ZM144.403 54.86H145.523V62H144.403V61.146H144.375C143.997 61.65 143.241 62.196 142.023 62.196C140.721 62.196 139.629 61.482 139.629 59.844V54.86H140.749V59.564C140.749 60.488 141.183 61.216 142.303 61.216C143.563 61.216 144.403 60.418 144.403 59.312V54.86ZM151.87 54.86H152.99V61.608C152.99 63.512 151.786 64.478 149.826 64.478C147.866 64.478 146.704 63.442 146.592 62.224H147.712C147.852 62.952 148.44 63.498 149.77 63.498C151.1 63.498 151.87 62.924 151.87 61.594V60.516H151.842C151.422 61.132 150.75 61.636 149.574 61.636C147.81 61.636 146.382 60.502 146.382 58.15C146.382 55.798 147.81 54.664 149.574 54.664C150.75 54.664 151.422 55.196 151.842 55.742H151.87V54.86ZM149.714 60.656C151.044 60.656 151.87 59.83 151.87 58.15C151.87 56.47 151.044 55.644 149.714 55.644C148.244 55.644 147.502 56.75 147.502 58.15C147.502 59.55 148.244 60.656 149.714 60.656ZM157.746 54.664C159.048 54.664 160.14 55.378 160.14 57.016V62H159.02V57.296C159.02 56.372 158.586 55.644 157.466 55.644C156.206 55.644 155.366 56.442 155.366 57.548V62H154.246V51.99H155.366V55.714H155.394C155.772 55.21 156.528 54.664 157.746 54.664ZM166.979 62.196C164.795 62.196 163.479 60.656 163.479 58.43C163.479 56.204 164.795 54.664 166.979 54.664C169.149 54.664 170.465 56.204 170.465 58.43C170.465 60.656 169.149 62.196 166.979 62.196ZM166.979 61.216C168.575 61.216 169.345 59.956 169.345 58.43C169.345 56.904 168.575 55.644 166.979 55.644C165.369 55.644 164.599 56.904 164.599 58.43C164.599 59.956 165.369 61.216 166.979 61.216ZM176.048 54.86H177.168V62H176.048V61.146H176.02C175.642 61.65 174.886 62.196 173.668 62.196C172.366 62.196 171.274 61.482 171.274 59.844V54.86H172.394V59.564C172.394 60.488 172.828 61.216 173.948 61.216C175.208 61.216 176.048 60.418 176.048 59.312V54.86ZM181.555 54.664C181.821 54.664 182.017 54.678 182.213 54.706V55.826H182.185C180.631 55.574 179.553 56.666 179.553 58.192V62H178.433V54.86H179.553V56.274H179.581C179.959 55.336 180.533 54.664 181.555 54.664ZM189.842 56.68C189.842 56.12 189.534 55.644 188.386 55.644C187.028 55.644 186.58 56.036 186.51 57.072H185.39C185.46 55.7 186.314 54.664 188.386 54.664C189.744 54.664 190.962 55.196 190.962 56.918V60.39C190.962 60.95 191.06 61.258 191.774 61.174V61.958C191.48 62.056 191.326 62.07 191.116 62.07C190.444 62.07 190.038 61.888 189.842 61.104H189.814C189.366 61.776 188.568 62.196 187.392 62.196C185.95 62.196 185.04 61.37 185.04 60.166C185.04 58.542 186.244 58.122 188.092 57.772C189.296 57.548 189.842 57.394 189.842 56.68ZM187.504 61.216C188.834 61.216 189.842 60.614 189.842 59.242V58.052C189.632 58.262 188.946 58.458 188.19 58.612C186.804 58.906 186.16 59.256 186.16 60.11C186.16 60.81 186.58 61.216 187.504 61.216ZM195.747 54.664C197.511 54.664 198.939 56.078 198.939 58.43C198.939 60.782 197.511 62.196 195.747 62.196C194.571 62.196 193.899 61.692 193.479 61.076H193.451V64.408H192.331V54.86H193.451V55.742H193.479C193.899 55.196 194.571 54.664 195.747 54.664ZM195.607 61.216C197.077 61.216 197.819 59.83 197.819 58.43C197.819 57.03 197.077 55.644 195.607 55.644C194.277 55.644 193.451 56.75 193.451 58.43C193.451 60.11 194.277 61.216 195.607 61.216ZM203.246 54.664C205.01 54.664 206.438 56.078 206.438 58.43C206.438 60.782 205.01 62.196 203.246 62.196C202.07 62.196 201.398 61.692 200.978 61.076H200.95V64.408H199.83V54.86H200.95V55.742H200.978C201.398 55.196 202.07 54.664 203.246 54.664ZM203.106 61.216C204.576 61.216 205.318 59.83 205.318 58.43C205.318 57.03 204.576 55.644 203.106 55.644C201.776 55.644 200.95 56.75 200.95 58.43C200.95 60.11 201.776 61.216 203.106 61.216Z" fill="black"/>
</svg>
